<svg xmlns="http://www.w3.org/2000/svg" xmlns:xlink="http://www.w3.org/1999/xlink" width="500" height="264" version="1.1" viewBox="0 0 500 264"><title>ifelse_task2.svg</title><desc>Created with sketchtool.</desc><g id="combined" fill="none" fill-rule="evenodd" stroke="none" stroke-width="1"><g id="ifelse_task2.svg"><path id="Path-1218-Copy" fill="#EE6B47" fill-rule="nonzero" d="M422.5,187.5 L422.5,136.5 L342,136.5 L340.5,136.5 L340.5,133.5 L425.5,133.5 L425.5,187.5 L433.5,187.5 L424,206.5 L414.5,187.5 L422.5,187.5 Z"/><g id="Rectangle-1-+-Корень" transform="translate(213.000000, 4.000000)"><rect id="Rectangle-1" width="78" height="28" x="1" y="1" fill="#FFF9EB" stroke="#E8C48E" stroke-width="2" rx="14"/><text id="Begin" fill="#8A704D" font-family="OpenSans-Regular, Open Sans" font-size="14" font-weight="normal"><tspan x="21" y="19">Begin</tspan></text></g><g id="Rectangle-1-+-Корень-Copy-2" transform="translate(8.000000, 206.000000)"><rect id="Rectangle-1" width="131" height="49" x="1" y="1" fill="#FFF9EB" stroke="#E8C48E" stroke-width="2" rx="24.5"/><text id="You-don't-know?-“ECM" fill="#8A704D" font-family="OpenSans-Regular, Open Sans" font-size="14" font-weight="normal"><tspan x="13.354" y="20">You don&apos;t know?</tspan> <tspan x="21.967" y="39">“ECMAScript”!</tspan></text></g><g id="Rectangle-1-+-Корень-Copy-3" transform="translate(354.000000, 206.000000)"><rect id="Rectangle-1" width="131" height="49" x="1" y="1" fill="#FFF9EB" stroke="#E8C48E" stroke-width="2" rx="24.5"/><text id="Right!" fill="#8A704D" font-family="OpenSans-Regular, Open Sans" font-size="14" font-weight="normal"><tspan x="47.93" y="28">Right!</tspan></text></g><path id="Line" fill="#EE6B47" fill-rule="nonzero" d="M252,57.0499687 L252,34 L255,34 L255,57.0499687 L263,57.0499687 L253.5,76.0499687 L244,57.0499687 L252,57.0499687 Z"/><path id="Path-1218" fill="#EE6B47" fill-rule="nonzero" d="M77.5,187.5 L77.5,133.5 L139.5,133.5 L139.5,136.5 L80.5,136.5 L80.5,187.5 L88.5,187.5 L79,206.5 L69.5,187.5 L77.5,187.5 Z"/><rect id="Rectangle-356" width="60" height="20" x="47" y="152" fill="#FFF"/><g id="Rectangle-354-+-Каково-“официальное”" transform="translate(137.000000, 76.000000)"><path id="Rectangle-354" fill="#FFF9EB" stroke="#E8C48E" stroke-width="2" d="M2.1985673,59.5 L116.5,117.877127 L230.801433,59.5 L116.5,1.12287343 L2.1985673,59.5 Z"/><text id="What's-the-“official" fill="#8A704D" font-family="OpenSans-Regular, Open Sans" font-size="14" font-weight="normal"><tspan x="81.026" y="43">What&apos;s the</tspan> <tspan x="60.635" y="62">“official” name of</tspan> <tspan x="80.77" y="81">JavaScript?</tspan></text></g><text id="Other" fill="#8A704D" font-family="OpenSans-Regular, Open Sans" font-size="14" font-weight="normal"><tspan x="57" y="166">Other</tspan></text><rect id="Rectangle-356-Copy" width="60" height="20" x="387" y="152" fill="#FFF"/><text id="ECMAScript" fill="#8A704D" font-family="OpenSans-Regular, Open Sans" font-size="14" font-weight="normal"><tspan x="383" y="165">ECMAScript</tspan></text></g></g></svg>