<svg xmlns="http://www.w3.org/2000/svg" xmlns:xlink="http://www.w3.org/1999/xlink" width="486" height="295" version="1.1" viewBox="0 0 486 295"><title>mixin-inheritance.svg</title><desc>Created with sketchtool.</desc><g id="inheritance" fill="none" fill-rule="evenodd" stroke="none" stroke-width="1"><g id="mixin-inheritance.svg"><rect id="Rectangle-1" width="178" height="58" x="305" y="130.11" fill="#FFF9EB" stroke="#E8C48E" stroke-width="2"/><text id="sayHi:-function-sayB" fill="#8A704D" font-family="PTMono-Regular, PT Mono" font-size="14" font-weight="normal"><tspan x="315" y="153.11">sayHi: function</tspan> <tspan x="315" y="168.11">sayBye: function</tspan></text><text id="sayHiMixin" fill="#8A704D" font-family="PTMono-Regular, PT Mono" font-size="14" font-weight="normal"><tspan x="304" y="122.11">sayHiMixin</tspan></text><rect id="Rectangle-1" width="178" height="28" x="305" y="23.11" fill="#FFF9EB" stroke="#E8C48E" stroke-width="2"/><text id="say:-function" fill="#8A704D" font-family="PTMono-Regular, PT Mono" font-size="14" font-weight="normal"><tspan x="315" y="41.11">say: function</tspan></text><text id="sayMixin" fill="#8A704D" font-family="PTMono-Regular, PT Mono" font-size="14" font-weight="normal"><tspan x="304" y="15.11">sayMixin</tspan></text><path id="Line-2" fill="#EE6B47" fill-rule="nonzero" d="M365.5,78.609589 L365.5,106.609589 L363.5,106.609589 L363.5,78.609589 L357.5,78.609589 L364.5,64.609589 L371.5,78.609589 L365.5,78.609589 Z"/><text id="[[Prototype]]" fill="#EE6B47" font-family="PTMono-Regular, PT Mono" font-size="14" font-weight="normal"><tspan x="378" y="87">[[Prototype]]</tspan></text><rect id="Rectangle-1-Copy" width="178" height="58" x="8" y="130.11" fill="#FFF9EB" stroke="#E8C48E" stroke-width="2"/><text id="constructor:-User-sa" fill="#8A704D" font-family="PTMono-Regular, PT Mono" font-size="14" font-weight="normal"><tspan x="18" y="146.11">constructor: User</tspan> <tspan x="18" y="161.11">sayHi: function</tspan> <tspan x="18" y="176.11">sayBye: function</tspan></text><text id="User.prototype" fill="#8A704D" font-family="PTMono-Regular, PT Mono" font-size="14" font-weight="normal"><tspan x="7" y="122.11">User.prototype</tspan></text><path id="Line-2-Copy" fill="#EE6B47" fill-rule="nonzero" d="M68.5,218.609589 L68.5,246.609589 L66.5,246.609589 L66.5,218.609589 L60.5,218.609589 L67.5,204.609589 L74.5,218.609589 L68.5,218.609589 Z"/><path id="Line-2-Copy-2" fill="#EE6B47" fill-rule="nonzero" d="M264.5,176.609589 L154.5,176.609589 L154.5,174.609589 L264.5,174.609589 L264.5,168.609589 L278.5,175.609589 L264.5,182.609589 L264.5,176.609589 Z"/><path id="Line-2-Copy-3" fill="#EE6B47" fill-rule="nonzero" d="M264.5,160.609589 L154.5,160.609589 L154.5,158.609589 L264.5,158.609589 L264.5,152.609589 L278.5,159.609589 L264.5,166.609589 L264.5,160.609589 Z"/><text id="[[Prototype]]-Copy" fill="#EE6B47" font-family="PTMono-Regular, PT Mono" font-size="14" font-weight="normal"><tspan x="81" y="227">[[Prototype]]</tspan></text><rect id="Rectangle-1-Copy-2" width="99" height="28" x="12" y="261" fill="#FFF9EB" stroke="#E8C48E" stroke-width="2"/><text id="name:-..." fill="#8A704D" font-family="PTMono-Regular, PT Mono" font-size="14" font-weight="normal"><tspan x="18" y="278.11">name: ...</tspan></text><text id="user" fill="#8A704D" font-family="PTMono-Regular, PT Mono" font-size="14" font-weight="normal"><tspan x="11" y="253">user</tspan></text><text id="[[HomeObject]" fill="#EE6B47" font-family="PTMono-Regular, PT Mono" font-size="14" font-weight="normal"><tspan x="193" y="148">[[HomeObject]</tspan></text></g></g></svg>