<svg xmlns="http://www.w3.org/2000/svg" xmlns:xlink="http://www.w3.org/1999/xlink" width="599" height="493" version="1.1" viewBox="0 0 599 493"><title>ifelse_task.svg</title><desc>Created with sketchtool.</desc><g id="combined" fill="none" fill-rule="evenodd" stroke="none" stroke-width="1"><g id="ifelse_task.svg"><path id="Path-1218-Copy" fill="#EE6B47" fill-rule="nonzero" d="M526.5,419.5 L526.5,329.5 L446,329.5 L444.5,329.5 L444.5,326.5 L529.5,326.5 L529.5,419.5 L537.5,419.5 L528,438.5 L518.5,419.5 L526.5,419.5 Z"/><path id="Path-1218-Copy" fill="#EE6B47" fill-rule="nonzero" d="M369.5,257.5 L369.5,134.5 L289,134.5 L287.5,134.5 L287.5,131.5 L372.5,131.5 L372.5,257.5 L380.5,257.5 L371,276.5 L361.5,257.5 L369.5,257.5 Z"/><g id="Rectangle-1-+-Корень" transform="translate(180.000000, 4.000000)"><rect id="Rectangle-1" width="78" height="28" x="1" y="1" fill="#FFF9EB" stroke="#E8C48E" stroke-width="2" rx="14"/><text id="Begin" fill="#8A704D" font-family="OpenSans-Regular, Open Sans" font-size="14" font-weight="normal"><tspan x="21" y="20">Begin</tspan></text></g><g id="Rectangle-1-+-Корень-Copy-2" transform="translate(0.000000, 243.000000)"><rect id="Rectangle-1" width="131" height="49" x="1" y="1" fill="#FFF9EB" stroke="#E8C48E" stroke-width="2" rx="24.5"/><text id="Canceled" fill="#8A704D" font-family="OpenSans-Regular, Open Sans" font-size="14" font-weight="normal"><tspan x="36.647" y="29">Canceled</tspan></text></g><g id="Rectangle-1-+-Корень-Copy-5" transform="translate(150.000000, 438.000000)"><rect id="Rectangle-1" width="131" height="49" x="1" y="1" fill="#FFF9EB" stroke="#E8C48E" stroke-width="2" rx="24.5"/><text id="Canceled" fill="#8A704D" font-family="OpenSans-Regular, Open Sans" font-size="14" font-weight="normal"><tspan x="36.647" y="29">Canceled</tspan></text></g><g id="Rectangle-1-+-Корень-Copy-6" transform="translate(458.000000, 438.000000)"><rect id="Rectangle-1" width="131" height="49" x="1" y="1" fill="#FFF9EB" stroke="#E8C48E" stroke-width="2" rx="24.5"/><text id="Welcome!" fill="#8A704D" font-family="OpenSans-Regular, Open Sans" font-size="14" font-weight="normal"><tspan x="35.093" y="29">Welcome!</tspan></text></g><g id="Rectangle-1-+-Корень-Copy-4" transform="translate(154.000000, 243.000000)"><rect id="Rectangle-1" width="131" height="49" x="1" y="1" fill="#FFF9EB" stroke="#E8C48E" stroke-width="2" rx="24.5"/><text id="I-don't-know-you" fill="#8A704D" font-family="OpenSans-Regular, Open Sans" font-size="14" font-weight="normal"><tspan x="12.773" y="28">I don&apos;t know you</tspan></text></g><g id="Rectangle-1-+-Корень-Copy-7" transform="translate(296.000000, 438.000000)"><rect id="Rectangle-1" width="147" height="49" x="1" y="1" fill="#FFF9EB" stroke="#E8C48E" stroke-width="2" rx="24.5"/><text id="Wrong-password" fill="#8A704D" font-family="OpenSans-Regular, Open Sans" font-size="14" font-weight="normal"><tspan x="18.152" y="29">Wrong password</tspan></text></g><path id="Line" fill="#EE6B47" fill-rule="nonzero" d="M219,58.0499687 L219,35 L222,35 L222,58.0499687 L230,58.0499687 L220.5,77.0499687 L211,58.0499687 L219,58.0499687 Z"/><path id="Path-1218" fill="#EE6B47" fill-rule="nonzero" d="M69.3890337,219.547739 L69.3890337,131.366765 L131.691299,131.366765 L131.691299,134.366765 L72.3890337,134.366765 L72.3890337,219.547739 L80.3890337,219.547739 L70.8890337,238.547739 L61.3890337,219.547739 L69.3890337,219.547739 Z"/><path id="Path-1218-Copy-2" fill="#EE6B47" fill-rule="nonzero" d="M219.065358,419.494817 L219.394323,326.366765 L281.691299,326.366765 L281.691299,329.366765 L222.383744,329.366765 L222.065339,419.505414 L230.06529,419.533673 L220.498234,438.499997 L211.065408,419.466558 L219.065358,419.494817 Z"/><g id="Rectangle-354-+-Каково-“официальное”" transform="translate(127.000000, 81.000000)"><path id="Rectangle-354" fill="#FFF9EB" stroke="#E8C48E" stroke-width="2" d="M2.05929887,52 L93.6102814,102.856071 L185.161264,52 L93.6102814,1.14392927 L2.05929887,52 Z"/><text id="Who's-there?" fill="#8A704D" font-family="OpenSans-Regular, Open Sans" font-size="14" font-weight="normal"><tspan x="51.722" y="55">Who&apos;s there?</tspan></text></g><g id="Rectangle-354-+-Каково-“официальное”-Copy" transform="translate(277.000000, 276.000000)"><path id="Rectangle-354" fill="#FFF9EB" stroke="#E8C48E" stroke-width="2" d="M2.05929887,52 L93.6102814,102.856071 L185.161264,52 L93.6102814,1.14392927 L2.05929887,52 Z"/><text id="Password?" fill="#8A704D" font-family="OpenSans-Regular, Open Sans" font-size="14" font-weight="normal"><tspan x="59.03" y="55">Password?</tspan></text></g><g id="Rectangle-356-+-Отмена" transform="translate(39.000000, 191.000000)"><rect id="Rectangle-356" width="60" height="20" x="0" y="2" fill="#FFF"/><text id="Cancel" fill="#8A704D" font-family="OpenSans-Regular, Open Sans" font-size="14" font-weight="normal"><tspan x="7.5" y="15">Cancel</tspan></text></g><g id="Rectangle-356-+-Отмена-Copy" transform="translate(189.000000, 384.000000)"><rect id="Rectangle-356" width="60" height="20" x="0" y="2" fill="#FFF"/><text id="Cancel" fill="#8A704D" font-family="OpenSans-Regular, Open Sans" font-size="14" font-weight="normal"><tspan x="7.5" y="15">Cancel</tspan></text></g><g id="Rectangle-356-Copy-+-“Админ”" transform="translate(341.000000, 191.000000)"><rect id="Rectangle-356-Copy" width="60" height="20" x="0" y="2" fill="#FFF"/><text id="Admin" fill="#8A704D" font-family="OpenSans-Regular, Open Sans" font-size="14" font-weight="normal"><tspan x="7.703" y="15">Admin</tspan></text></g><g id="Rectangle-356-Copy-+-“Админ”-Copy" transform="translate(493.000000, 384.000000)"><rect id="Rectangle-356-Copy" width="60" height="20" x="7" y="2" fill="#FFF"/><text id="TheMaster" fill="#8A704D" font-family="OpenSans-Regular, Open Sans" font-size="14" font-weight="normal"><tspan x=".096" y="15">TheMaster</tspan></text></g><path id="Line" fill="#EE6B47" fill-rule="nonzero" d="M220,224.560081 L220,182 L223,182 L223,224.560081 L231,224.560081 L221.5,243.560081 L212,224.560081 L220,224.560081 Z"/><path id="Line-Copy-2" fill="#EE6B47" fill-rule="nonzero" d="M370,419.560081 L370,377 L373,377 L373,419.560081 L381,419.560081 L371.5,438.560081 L362,419.560081 L370,419.560081 Z"/><g id="Rectangle-356-Copy-2-+-“Админ”-Copy" transform="translate(191.000000, 191.000000)"><rect id="Rectangle-356-Copy-2" width="60" height="20" x="0" y="2" fill="#FFF"/><text id="Other" fill="#8A704D" font-family="OpenSans-Regular, Open Sans" font-size="14" font-weight="normal"><tspan x="9.996" y="15">Other</tspan></text></g><g id="Rectangle-356-Copy-2-+-“Админ”-Copy-Copy" transform="translate(341.000000, 384.000000)"><rect id="Rectangle-356-Copy-2" width="60" height="20" x="0" y="2" fill="#FFF"/><text id="Other" fill="#8A704D" font-family="OpenSans-Regular, Open Sans" font-size="14" font-weight="normal"><tspan x="9.996" y="15">Other</tspan></text></g></g></g></svg>