<svg xmlns="http://www.w3.org/2000/svg" xmlns:xlink="http://www.w3.org/1999/xlink" width="234" height="240" version="1.1" viewBox="0 0 234 240"><title>circ-ease.svg</title><desc>Created with sketchtool.</desc><g id="animation" fill="none" fill-rule="evenodd" stroke="none" stroke-width="1"><g id="circ-ease.svg"><path id="Line" fill="#E8C48E" fill-rule="nonzero" d="M35,36.1600037 L35,210.5 L33,210.5 L33,36.1600037 L27,36.1600037 L34,22.1600037 L41,36.1600037 L35,36.1600037 Z"/><path id="Line" fill="#E8C48E" fill-rule="nonzero" d="M194.509995,195 L23.5,195 L23.5,193 L194.509995,193 L194.509995,187 L208.509995,194 L194.509995,201 L194.509995,195 Z"/><path id="Path-747" stroke="#EE6B47" stroke-linejoin="bevel" stroke-width="3" d="M35.1598321,193.734972 C116.357678,193.734973 200.574538,141.537458 208.465749,22.4456533"/><path id="Path-748" stroke="#8DB173" stroke-linejoin="bevel" stroke-width="3" d="M35.1598321,193.734972 C116.357678,193.734973 200.574538,141.537458 208.465749,22.4456533" transform="translate(121.812790, 108.090312) scale(-1, -1) translate(-121.812790, -108.090312)"/><text id="0" fill="#8A704D" font-family="PTMono-Bold, PT Mono" font-size="14" font-weight="bold"><tspan x="17" y="212">0</tspan></text><text id="1" fill="#8A704D" font-family="PTMono-Bold, PT Mono" font-size="14" font-weight="bold"><tspan x="17" y="36">1</tspan></text><text id="-2" fill="#8A704D" font-family="PTMono-Bold, PT Mono" font-size="14" font-weight="bold"><tspan x="200" y="212">1</tspan></text><path id="Path-770" stroke="#62C0DC" stroke-linejoin="bevel" stroke-width="3" d="M35.4840461,192.776816 C53.45735,186.177656 112.052703,195.594079 121.221885,109.458253 C130.391067,23.3224269 202.177314,24.4036062 206.959731,21.4508296"/></g></g></svg>