<svg xmlns="http://www.w3.org/2000/svg" xmlns:xlink="http://www.w3.org/1999/xlink" width="409" height="467" version="1.1" viewBox="0 0 409 467"><title>metric-client-width-nopadding.svg</title><desc>Created with sketchtool.</desc><defs><linearGradient id="linearGradient-1" x1="50%" x2="50%" y1="0%" y2="100%"><stop offset="0%" stop-color="#FFF"/><stop offset="100%" stop-color="#F1F1F1"/></linearGradient><linearGradient id="linearGradient-2" x1="50%" x2="50%" y1="0%" y2="100%"><stop offset="0%" stop-color="#FFF"/><stop offset="100%" stop-color="#F1F1F1"/></linearGradient></defs><g id="dom" fill="none" fill-rule="evenodd" stroke="none" stroke-width="1"><g id="metric-client-width-nopadding.svg"><rect width="409" height="467" x="0" y="0" fill="#FFF"/><path id="Rectangle-1" fill="#E8C48F" fill-opacity=".88" d="M364,156 L60,156 L60,356 L364,356 L364,156 Z M35,131 L389,131 L389,381 L35,381 L35,131 Z"/><text id="clientWidth:284px-=-" font-family="PTMono-Regular, PT Mono" font-size="12" font-weight="normal"><tspan x="84.7" y="399.642" fill="#EE6B47">clientWidth:</tspan> <tspan x="171.1" y="399.642" fill="#3B86C4">284px </tspan> <tspan x="214.3" y="399.642" fill="#EE6B47">= content width</tspan></text><path id="Line-44" fill="#EE6B47" fill-rule="nonzero" d="M77.6799927,408.64193 L329.679993,408.64193 L329.679993,402.64193 L343.679993,409.64193 L329.679993,416.64193 L329.679993,410.64193 L77.6799927,410.64193 L77.6799927,416.64193 L63.6799927,409.64193 L77.6799927,402.64193 L77.6799927,408.64193 Z"/><text id="CSS-width:-300px" font-family="PTMono-Regular, PT Mono" font-size="12" font-weight="normal"><tspan x="145.9" y="429.642" fill="#F38158">CSS width:</tspan> <tspan x="217.9" y="429.642" fill="#3B86C4"> 300px</tspan></text><path id="Line-47" fill="#EE6B47" fill-rule="nonzero" d="M76.6799927,433.64193 L349,433.64193 L349,427.64193 L363,434.64193 L349,441.64193 L349,435.64193 L76.6799927,435.64193 L76.6799927,441.64193 L62.6799927,434.64193 L76.6799927,427.64193 L76.6799927,433.64193 Z"/><text id="Introduction-This-Ec" fill="#5A4739" font-family="OpenSans-Bold, Open Sans" font-size="16" font-weight="bold"><tspan x="62" y="173">Introduction</tspan> <tspan x="62" y="201" font-family="OpenSans-Regular, Open Sans" font-size="14" font-weight="normal">This Ecma Standard is based on several </tspan> <tspan x="62" y="220" font-family="OpenSans-Regular, Open Sans" font-size="14" font-weight="normal">originating technologies, the most well </tspan> <tspan x="62" y="239" font-family="OpenSans-Regular, Open Sans" font-size="14" font-weight="normal">known being JavaScript (Netscape) and </tspan> <tspan x="62" y="258" font-family="OpenSans-Regular, Open Sans" font-size="14" font-weight="normal">JScript (Microsoft). The language was </tspan> <tspan x="62" y="277" font-family="OpenSans-Regular, Open Sans" font-size="14" font-weight="normal">invented by Brendan Eich at Netscape and </tspan> <tspan x="62" y="296" font-family="OpenSans-Regular, Open Sans" font-size="14" font-weight="normal">first appeared in that company’s Navigator </tspan> <tspan x="62" y="315" font-family="OpenSans-Regular, Open Sans" font-size="14" font-weight="normal">2.0 browser. It has appeared in all </tspan> <tspan x="62" y="334" font-family="OpenSans-Regular, Open Sans" font-size="14" font-weight="normal">subsequent browsers from Netscape and </tspan> <tspan x="62" y="353" font-family="OpenSans-Regular, Open Sans" font-size="14" font-weight="normal">in all browsers from Microsoft starting with</tspan></text><ellipse id="Oval-5" cx="191" cy="58.858" fill="#FFF9EB" stroke="#EE6B47" stroke-width="2" rx="76" ry="43.5"/><path id="Line" fill="#EE6B47" fill-rule="nonzero" d="M190,114.638622 L190,103 L192,103 L192,114.638622 L198,114.638622 L191,128.638622 L184,114.638622 L190,114.638622 Z"/><text id="padding:-0;" fill="#8A704D" font-family="PTMono-Regular, PT Mono" font-size="16" font-weight="normal"><tspan x="136" y="52">padding: 0;</tspan> <tspan x="136" y="70">width: 300px;</tspan></text><g id="Group-2" transform="translate(348.000000, 156.000000)"><rect id="Rectangle-19" width="15" height="199" x=".5" y=".5" fill="#F3F2F2" stroke="#E9E9E9" rx="3"/><g id="Rectangle-18-+-Triangle-1"><rect id="Rectangle-18" width="15" height="19" x=".5" y=".5" fill="url(#linearGradient-1)" stroke="#CFCFCF" rx="3"/><polygon id="Triangle-1" fill="#92979F" points="8 7 11.2 13 4.8 13"/></g><g id="Rectangle-18-+-Triangle-2" transform="translate(8.000000, 190.000000) scale(1, -1) translate(-8.000000, -190.000000) translate(0.000000, 180.000000)"><rect id="Rectangle-18" width="15" height="19" x=".5" y=".5" fill="url(#linearGradient-1)" stroke="#CFCFCF" rx="3"/><polygon id="Triangle-1" fill="#92979F" points="8 7 11.2 13 4.8 13"/></g><g id="Rectangle-18-+-Triangle-3-+-Group" transform="translate(0.000000, 50.000000)"><g id="Rectangle-18-+-Triangle-3" fill="url(#linearGradient-2)" stroke="#CFCFCF" transform="translate(8.000000, 25.500000) scale(1, -1) translate(-8.000000, -25.500000)"><rect id="Rectangle-18" width="15" height="50" x=".5" y=".5" rx="3"/></g><g id="Group" fill="#D8D8D8" stroke="#979797" transform="translate(4.000000, 20.000000)"><rect id="Rectangle-22" width="7" height="1" x=".5" y=".5"/><rect id="Rectangle-23" width="7" height="1" x=".5" y="3.5"/><rect id="Rectangle-24" width="7" height="1" x=".5" y="6.5"/><rect id="Rectangle-25" width="7" height="1" x=".5" y="9.5"/></g></g></g><path id="Line-46" stroke="#EE6B47" stroke-dasharray="3 6" stroke-linecap="square" stroke-width="2" d="M60.5,354.64193 L60.5,450.64193"/><path id="Line-45" stroke="#EE6B47" stroke-dasharray="3 6" stroke-linecap="square" stroke-width="2" d="M345.5,354.64193 L345.5,414"/><path id="Line-48" stroke="#EE6B47" stroke-dasharray="3 6" stroke-linecap="square" stroke-width="2" d="M363.5,354.64193 L363.5,450.64193"/></g></g></svg>