<svg xmlns="http://www.w3.org/2000/svg" xmlns:xlink="http://www.w3.org/1999/xlink" width="409" height="150" version="1.1" viewBox="0 0 409 150"><title>linked-list-split.svg</title><desc>Created with sketchtool.</desc><g id="combined" fill="none" fill-rule="evenodd" stroke="none" stroke-width="1"><g id="linked-list-split.svg"><rect id="Rectangle-15" width="78" height="32" x="88" y="30" fill="#FFF9EB" stroke="#E8C48E" stroke-width="2"/><text id="value" fill="#8A704D" font-family="Consolas" font-size="14" font-weight="normal"><tspan x="90" y="20">value</tspan></text><text id="-8" fill="#8A704D" font-family="Consolas" font-size="14" font-weight="normal"><tspan x="122" y="50">1</tspan></text><path id="Line-21" fill="#EE6B47" fill-rule="nonzero" d="M210.27,46 L151.73,46 L151.73,44 L210.27,44 L210.27,38 L224.27,45 L210.27,52 L210.27,46 Z"/><text id="next" fill="#EE6B47" font-family="Consolas" font-size="14" font-weight="normal"><tspan x="176" y="34">next</tspan></text><rect id="Rectangle-11" width="78" height="32" x="228" y="30" fill="#FFF9EB" stroke="#E8C48E" stroke-width="2"/><text id="value-2" fill="#8A704D" font-family="Consolas" font-size="14" font-weight="normal"><tspan x="230" y="20">value</tspan></text><text id="-9" fill="#8A704D" font-family="Consolas" font-size="14" font-weight="normal"><tspan x="262" y="50">2</tspan></text><path id="Line-22" fill="#EE6B47" fill-rule="nonzero" d="M350.27,46 L291.73,46 L291.73,44 L350.27,44 L350.27,38 L364.27,45 L350.27,52 L350.27,46 Z"/><text id="next-2" fill="#EE6B47" font-family="Consolas" font-size="14" font-weight="normal"><tspan x="316" y="34">next</tspan></text><rect id="Rectangle-13" width="78" height="32" x="87" y="95" fill="#FFF9EB" stroke="#E8C48E" stroke-width="2"/><text id="value-3" fill="#8A704D" font-family="Consolas" font-size="14" font-weight="normal"><tspan x="89" y="85">value</tspan></text><text id="-10" fill="#8A704D" font-family="Consolas" font-size="14" font-weight="normal"><tspan x="121" y="115">3</tspan></text><path id="Line-23" fill="#EE6B47" fill-rule="nonzero" d="M209.27,111 L150.73,111 L150.73,109 L209.27,109 L209.27,103 L223.27,110 L209.27,117 L209.27,111 Z"/><text id="next-3" fill="#EE6B47" font-family="Consolas" font-size="14" font-weight="normal"><tspan x="175" y="99">next</tspan></text><rect id="Rectangle-14" width="78" height="32" x="227" y="95" fill="#FFF9EB" stroke="#E8C48E" stroke-width="2"/><text id="value-4" fill="#8A704D" font-family="Consolas" font-size="14" font-weight="normal"><tspan x="229" y="85">value</tspan></text><text id="4" fill="#8A704D" font-family="Consolas" font-size="14" font-weight="normal"><tspan x="261" y="115">4</tspan></text><path id="Line-24" fill="#EE6B47" fill-rule="nonzero" d="M349.27,111 L290.73,111 L290.73,109 L349.27,109 L349.27,103 L363.27,110 L349.27,117 L349.27,111 Z"/><text id="next-4" fill="#EE6B47" font-family="Consolas" font-size="14" font-weight="normal"><tspan x="315" y="99">next</tspan></text><text id="null" fill="#8A704D" font-family="Consolas-Italic, Consolas" font-size="14" font-style="italic" font-weight="normal"><tspan x="371" y="114">null</tspan></text><text id="null-copy" fill="#8A704D" font-family="Consolas-Italic, Consolas" font-size="14" font-style="italic" font-weight="normal"><tspan x="371" y="49">null</tspan></text><text id="secondList" fill="#8A704D" font-family="Consolas-Italic, Consolas" font-size="14" font-style="italic" font-weight="normal"><tspan x="5" y="114">secondList</tspan></text><text id="list" fill="#8A704D" font-family="Consolas-Italic, Consolas" font-size="14" font-style="italic" font-weight="normal"><tspan x="50" y="49">list</tspan></text></g></g></svg>