<svg xmlns="http://www.w3.org/2000/svg" xmlns:xlink="http://www.w3.org/1999/xlink" width="652" height="77" version="1.1" viewBox="0 0 652 77"><title>linked-list.svg</title><desc>Created with sketchtool.</desc><g id="combined" fill="none" fill-rule="evenodd" stroke="none" stroke-width="1"><g id="linked-list.svg"><rect id="Rectangle-15" width="78" height="32" x="48" y="30" fill="#FFF9EB" stroke="#E8C48E" stroke-width="2"/><text id="value" fill="#8A704D" font-family="Consolas" font-size="14" font-weight="normal"><tspan x="50" y="20">value</tspan></text><text id="-8" fill="#8A704D" font-family="Consolas" font-size="14" font-weight="normal"><tspan x="82" y="50">1</tspan></text><path id="Line-21" fill="#EE6B47" fill-rule="nonzero" d="M170.27,46 L111.73,46 L111.73,44 L170.27,44 L170.27,38 L184.27,45 L170.27,52 L170.27,46 Z"/><text id="next" fill="#EE6B47" font-family="Consolas" font-size="14" font-weight="normal"><tspan x="136" y="34">next</tspan></text><rect id="Rectangle-11" width="78" height="32" x="188" y="30" fill="#FFF9EB" stroke="#E8C48E" stroke-width="2"/><text id="value-2" fill="#8A704D" font-family="Consolas" font-size="14" font-weight="normal"><tspan x="190" y="20">value</tspan></text><text id="-9" fill="#8A704D" font-family="Consolas" font-size="14" font-weight="normal"><tspan x="222" y="50">2</tspan></text><path id="Line-22" fill="#EE6B47" fill-rule="nonzero" d="M310.27,46 L251.73,46 L251.73,44 L310.27,44 L310.27,38 L324.27,45 L310.27,52 L310.27,46 Z"/><text id="next-2" fill="#EE6B47" font-family="Consolas" font-size="14" font-weight="normal"><tspan x="276" y="34">next</tspan></text><rect id="Rectangle-13" width="78" height="32" x="327" y="30" fill="#FFF9EB" stroke="#E8C48E" stroke-width="2"/><text id="value-3" fill="#8A704D" font-family="Consolas" font-size="14" font-weight="normal"><tspan x="329" y="20">value</tspan></text><text id="-10" fill="#8A704D" font-family="Consolas" font-size="14" font-weight="normal"><tspan x="361" y="50">3</tspan></text><path id="Line-23" fill="#EE6B47" fill-rule="nonzero" d="M449.27,46 L390.73,46 L390.73,44 L449.27,44 L449.27,38 L463.27,45 L449.27,52 L449.27,46 Z"/><text id="next-3" fill="#EE6B47" font-family="Consolas" font-size="14" font-weight="normal"><tspan x="415" y="34">next</tspan></text><rect id="Rectangle-14" width="78" height="32" x="467" y="30" fill="#FFF9EB" stroke="#E8C48E" stroke-width="2"/><text id="value-4" fill="#8A704D" font-family="Consolas" font-size="14" font-weight="normal"><tspan x="469" y="20">value</tspan></text><text id="4" fill="#8A704D" font-family="Consolas" font-size="14" font-weight="normal"><tspan x="501" y="50">4</tspan></text><path id="Line-24" fill="#EE6B47" fill-rule="nonzero" d="M589.27,46 L530.73,46 L530.73,44 L589.27,44 L589.27,38 L603.27,45 L589.27,52 L589.27,46 Z"/><text id="next-4" fill="#EE6B47" font-family="Consolas" font-size="14" font-weight="normal"><tspan x="555" y="34">next</tspan></text><text id="null" fill="#8A704D" font-family="Consolas-Italic, Consolas" font-size="14" font-style="italic" font-weight="normal"><tspan x="610" y="49">null</tspan></text><text id="list" fill="#8A704D" font-family="Consolas-Italic, Consolas" font-size="14" font-style="italic" font-weight="normal"><tspan x="10" y="49">list</tspan></text></g></g></svg>