<svg xmlns="http://www.w3.org/2000/svg" xmlns:xlink="http://www.w3.org/1999/xlink" width="502" height="225" version="1.1" viewBox="0 0 502 225"><title>recursion-pow.svg</title><desc>Created with sketchtool.</desc><g id="combined" fill="none" fill-rule="evenodd" stroke="none" stroke-width="1"><g id="recursion-pow.svg"><g id="Rectangle-1-+-Корень" transform="translate(159.000000, 2.000000)"><rect id="Rectangle-1" width="78" height="28" x="1" y="1" fill="#FFF9EB" stroke="#E8C48E" stroke-width="2" rx="14"/><text id="pow(x,n)" fill="#8A704D" font-family="PTMono-Regular, PT Mono" font-size="14" font-weight="normal"><tspan x="8" y="19">pow(x,n)</tspan></text></g><g id="Rectangle-1-+-Корень-Copy-2" fill="#FFF9EB" stroke="#E8C48E" stroke-width="2" transform="translate(5.000000, 192.000000)"><rect id="Rectangle-1" width="85" height="28" x="1" y="1" rx="14"/></g><text id="x" fill="#8A704D" font-family="PTMono-Regular, PT Mono" font-size="14" font-weight="normal"><tspan x="46.5" y="210">x</tspan></text><g id="Rectangle-1-+-Корень-Copy-3" fill="#FFF9EB" stroke="#E8C48E" stroke-width="2" transform="translate(353.000000, 120.000000)"><rect id="Rectangle-1" width="140" height="28" x="1" y="1" rx="14"/></g><text id="x-*-pow(x,-n-1)" fill="#8A704D" font-family="PTMono-Regular, PT Mono" font-size="14" font-weight="normal"><tspan x="362.5" y="138">x * pow(x, n-1)</tspan></text><path id="Line" fill="#EE6B47" fill-rule="nonzero" d="M198,73 L198,32 L201,32 L201,73 L209,73 L199.5,92 L190,73 L198,73 Z"/><path id="Path-1218" fill="#EE6B47" fill-rule="nonzero" d="M48.3890337,167.547739 L48.3890337,129.366765 L110.691299,129.366765 L110.691299,132.366765 L51.3890337,132.366765 L51.3890337,167.547739 L59.3890337,167.547739 L49.8890337,186.547739 L40.3890337,167.547739 L48.3890337,167.547739 Z"/><rect id="Rectangle-356" width="60" height="20" x="18" y="143" fill="#FFF"/><g id="Rectangle-354-+-Каково-“официальное”" transform="translate(117.000000, 100.000000)"><path id="Rectangle-354" fill="#FFF9EB" stroke="#E8C48E" stroke-width="2" d="M2.52996327,35.5 L82.5,69.9113491 L162.470037,35.5 L82.5,1.08865086 L2.52996327,35.5 Z"/><text id="n-==-1-?" fill="#8A704D" font-family="PTMono-Regular, PT Mono" font-size="14" font-weight="normal"><tspan x="54.9" y="40">n == 1 ?</tspan></text></g><text id="Yes" fill="#8A704D" font-family="OpenSans-Regular, Open Sans" font-size="14" font-weight="normal"><tspan x="40" y="156">Yes</tspan></text><text id="No" fill="#8A704D" font-family="PTSans-Regular, PT Sans" font-size="14" font-weight="normal"><tspan x="299" y="123">No</tspan></text><path id="Line" fill="#EE6B47" fill-rule="nonzero" d="M324,135 L286,135 L286,132 L324,132 L324,124 L343,133.5 L324,143 L324,135 Z"/><polygon id="Line-decoration-1" fill="#EE6B47" stroke="#EE6B47" stroke-width="3" points="229.8 59 219 56 219 62" transform="translate(224.400000, 59.000000) scale(-1, 1) translate(-224.400000, -59.000000)"/><path id="Line" stroke="#EE6B47" stroke-dasharray="5 5" stroke-linecap="square" stroke-width="3" d="M420.5,111.5 L420.5,58.5"/><text id="recursive-call-until" fill="#8A704D" font-family="OpenSans-Regular, Open Sans" font-size="14" font-weight="normal"><tspan x="233.5" y="49">recursive call until n==1</tspan></text><path id="Line-Copy" stroke="#EE6B47" stroke-dasharray="5 5" stroke-linecap="square" stroke-width="3" d="M232.5,58.5 L421.5,58.5"/></g></g></svg>