<svg xmlns="http://www.w3.org/2000/svg" xmlns:xlink="http://www.w3.org/1999/xlink" width="449" height="190" version="1.1" viewBox="0 0 449 190"><title>object-prototype-2.svg</title><desc>Created with sketchtool.</desc><g id="inheritance" fill="none" fill-rule="evenodd" stroke="none" stroke-width="1"><g id="object-prototype-2.svg"><rect id="Rectangle-1" width="207" height="58" x="233" y="23" fill="#FFF9EB" stroke="#E8C48E" stroke-width="2"/><text id="..." fill="#8A704D" font-family="PTMono-Regular, PT Mono" font-size="14" font-weight="normal"><tspan x="243" y="38">...</tspan> <tspan x="243" y="53">get __proto__: function</tspan> <tspan x="243" y="68">set __proto__: function</tspan></text><rect id="Rectangle-1-Copy" width="207" height="28" x="233" y="150" fill="#FFF9EB" stroke="#E8C48E" stroke-width="2"/><text id="Object.prototype" fill="#8A704D" font-family="PTMono-Regular, PT Mono" font-size="14" font-weight="normal"><tspan x="232" y="15">Object.prototype</tspan></text><rect id="Rectangle-1-Copy-2" width="108" height="28" x="10" y="23" fill="#FFF9EB" stroke="#E8C48E" stroke-width="2"/><text id="Object" fill="#8A704D" font-family="PTMono-Regular, PT Mono" font-size="14" font-weight="normal"><tspan x="9" y="15">Object</tspan></text><text id="obj" fill="#8A704D" font-family="PTMono-Regular, PT Mono" font-size="14" font-weight="normal"><tspan x="238" y="139">obj</tspan></text><path id="Line" fill="#EE6B47" fill-rule="nonzero" d="M322.5,108.5 L322.5,136.5 L320.5,136.5 L320.5,108.5 L314.5,108.5 L321.5,94.5 L328.5,108.5 L322.5,108.5 Z"/><path id="Line-Copy" fill="#EE6B47" fill-rule="nonzero" d="M194,35 L127,35 L127,33 L194,33 L194,27 L208,34 L194,41 L194,35 Z"/><text id="[[Prototype]]" fill="#8A704D" font-family="PTMono-Regular, PT Mono" font-size="14" font-weight="normal"><tspan x="331" y="118">[[Prototype]]</tspan></text><text id="prototype" fill="#8A704D" font-family="PTMono-Regular, PT Mono" font-size="14" font-weight="normal"><tspan x="134" y="22">prototype</tspan></text><text id="constructor" fill="#8A704D" font-family="PTMono-Regular, PT Mono" font-size="14" font-weight="normal"><tspan x="17" y="41">constructor</tspan></text></g></g></svg>