<svg xmlns="http://www.w3.org/2000/svg" xmlns:xlink="http://www.w3.org/1999/xlink" width="488" height="246" version="1.1" viewBox="0 0 488 246"><title>carousel1.svg</title><desc>Created with sketchtool.</desc><g id="combined" fill="none" fill-rule="evenodd" stroke="none" stroke-width="1"><g id="carousel1.svg"><rect id="Rectangle-18" width="63" height="63" x="41.5" y="98.5" fill="#FFF9EB" stroke="#8A704D" stroke-width="3" rx="10"/><rect id="Rectangle-19" width="63" height="63" x="109.5" y="98.5" fill="#FFF9EB" stroke="#8A704D" stroke-width="3" rx="10"/><rect id="Rectangle-20" width="63" height="63" x="177.5" y="98.5" fill="#FFF9EB" stroke="#8A704D" stroke-width="3" rx="10"/><rect id="Rectangle-21" width="63" height="63" x="245.5" y="98.5" fill="#FFF9EB" stroke="#8A704D" stroke-width="3" opacity=".5" rx="10"/><rect id="Rectangle-22" width="63" height="63" x="313.5" y="98.5" fill="#FFF9EB" stroke="#8A704D" stroke-width="3" opacity=".5" rx="10"/><rect id="Rectangle-23" width="63" height="63" x="381.5" y="98.5" fill="#FFF9EB" stroke="#8A704D" stroke-width="3" opacity=".5" rx="10"/><text id="…-2" fill="#8A704D" font-family="Consolas" font-size="24" font-weight="normal"><tspan x="406" y="131">…</tspan></text><rect id="Rectangle-24" width="412" height="70" x="38" y="95" stroke="#EE6B47" stroke-width="2"/><path id="Rectangle-1" fill="#E8C48F" fill-opacity=".88" d="M244,59 L36,59 L36,196 L244,196 L244,59 Z M19,42 L261,42 L261,213 L19,213 L19,42 Z"/><text id="div-(container)" fill="#8A704D" font-family="Consolas" font-size="14" font-weight="normal"><tspan x="82.5" y="32">div (container)</tspan></text><text id="130x130" fill="#8A704D" font-family="Consolas" font-size="13" font-weight="normal"><tspan x="48" y="133">130x130</tspan></text><text id="ul-(width:-9999px)" fill="#EE6B47" font-family="Consolas" font-size="14" font-weight="normal"><tspan x="71.5" y="82">ul (width: 9999px)</tspan></text><rect id="Rectangle-36" width="16" height="84" x="447" y="90" fill="#FFF"/></g></g></svg>