<svg xmlns="http://www.w3.org/2000/svg" xmlns:xlink="http://www.w3.org/1999/xlink" width="639" height="246" version="1.1" viewBox="0 0 639 246"><title>carousel2.svg</title><desc>Created with sketchtool.</desc><g id="dom" fill="none" fill-rule="evenodd" stroke="none" stroke-width="1"><g id="carousel2.svg"><rect id="Rectangle-18" width="63" height="63" x="41.5" y="98.5" fill="#FFF9EB" stroke="#8A704D" stroke-width="3" opacity=".5" rx="10"/><rect id="Rectangle-19" width="63" height="63" x="109.5" y="98.5" fill="#FFF9EB" stroke="#8A704D" stroke-width="3" opacity=".5" rx="10"/><rect id="Rectangle-20" width="63" height="63" x="177.5" y="98.5" fill="#FFF9EB" stroke="#8A704D" stroke-width="3" opacity=".5" rx="10"/><rect id="Rectangle-21" width="63" height="63" x="245.5" y="98.5" fill="#FFF9EB" stroke="#8A704D" stroke-width="3" rx="10"/><rect id="Rectangle-22" width="63" height="63" x="313.5" y="98.5" fill="#FFF9EB" stroke="#8A704D" stroke-width="3" rx="10"/><rect id="Rectangle-23" width="63" height="63" x="381.5" y="98.5" fill="#FFF9EB" stroke="#8A704D" stroke-width="3" rx="10"/><rect id="Rectangle-26" width="63" height="63" x="449.5" y="98.5" fill="#FFF9EB" stroke="#8A704D" stroke-width="3" opacity=".5" rx="10"/><rect id="Rectangle-25" width="63" height="63" x="517.5" y="98.5" fill="#FFF9EB" stroke="#8A704D" stroke-width="3" opacity=".5" rx="10"/><text id="…-3" fill="#8A704D" font-family="PTMono-Regular, PT Mono" font-size="24" font-weight="normal"><tspan x="542" y="131">…</tspan></text><rect id="Rectangle-24" width="546" height="70" x="38" y="95" stroke="#EE6B47" stroke-width="2"/><path id="Rectangle-1" fill="#E8C48F" fill-opacity=".88" d="M450,59 L242,59 L242,196 L450,196 L450,59 Z M225,42 L467,42 L467,213 L225,213 L225,42 Z"/><text id="div-(container)" fill="#8A704D" font-family="PTMono-Regular, PT Mono" font-size="14" font-weight="normal"><tspan x="288.5" y="32">div (container)</tspan></text><text id="130x130" fill="#8A704D" font-family="PTMono-Regular, PT Mono" font-size="13" font-weight="normal"><tspan x="252" y="133">130x130</tspan></text><text id="ul-(margin-left:--35" fill="#EE6B47" font-family="PTMono-Regular, PT Mono" font-size="14" font-weight="normal"><tspan x="246.5" y="82">ul (margin-left: -350px)</tspan></text><rect id="Rectangle-36" width="16" height="84" x="582" y="83" fill="#FFF"/></g></g></svg>