<svg xmlns="http://www.w3.org/2000/svg" xmlns:xlink="http://www.w3.org/1999/xlink" width="320" height="130" version="1.1" viewBox="0 0 320 130"><title>regexp-nested-groups.svg</title><desc>Created with sketchtool.</desc><g id="regexp" fill="none" fill-rule="evenodd" stroke="none" stroke-width="1"><g id="regexp-nested-groups.svg"><text id="&lt;(([a-z]+)\s*([^&gt;]*)" font-family="PTMono-Regular, PT Mono" font-size="22" font-weight="normal"><tspan x="20" y="75" fill="#8A704D">&lt;</tspan> <tspan x="33.2" y="75" fill="#DB2023">((</tspan> <tspan x="59.6" y="75" fill="#8A704D">[a-z]+</tspan> <tspan x="138.8" y="75" fill="#DB2023">)</tspan> <tspan x="152" y="75" fill="#8A704D">\s*</tspan> <tspan x="191.6" y="75" fill="#DB2023">(</tspan> <tspan x="204.8" y="75" fill="#8A704D">[^&gt;]*</tspan> <tspan x="270.8" y="75" fill="#D0021B">))</tspan> <tspan x="297.2" y="75" fill="#8A704D">&gt;</tspan></text><path id="Line" stroke="#D0021B" stroke-linecap="square" d="M42.5,45.6458333 L42.5,29.3541667"/><path id="Line-2" stroke="#D0021B" stroke-linecap="square" d="M290.5,45.6458333 L290.5,29.3541667"/><path id="Line" stroke="#D0021B" stroke-linecap="square" d="M42.5,28.5 L290.5,28.5"/><path id="Line-5" stroke="#D0021B" stroke-linecap="square" d="M52.5,101.645833 L52.5,85.3541667"/><path id="Line-4" stroke="#D0021B" stroke-linecap="square" d="M145.5,101.645833 L145.5,85.3541667"/><path id="Line-3" stroke="#D0021B" stroke-linecap="square" d="M52.5,102.5 L145.5,102.5"/><text id="1" fill="#D0021B" font-family="PTMono-Regular, PT Mono" font-size="20" font-weight="normal"><tspan x="24" y="44">1</tspan></text><text id="span-class=&quot;my&quot;" fill="#417505" font-family="PTMono-Regular, PT Mono" font-size="20" font-weight="normal"><tspan x="82" y="23">span class=&quot;my&quot;</tspan></text><text id="2" fill="#D0021B" font-family="PTMono-Regular, PT Mono" font-size="20" font-weight="normal"><tspan x="35" y="101">2</tspan></text><text id="span" fill="#417505" font-family="PTMono-Regular, PT Mono" font-size="20" font-weight="normal"><tspan x="73" y="119">span</tspan></text><path id="Line-8" stroke="#D0021B" stroke-linecap="square" d="M197.5,101.645833 L197.5,85.3541667"/><path id="Line-7" stroke="#D0021B" stroke-linecap="square" d="M277.5,101.645833 L277.5,85.3541667"/><path id="Line-6" stroke="#D0021B" stroke-linecap="square" d="M197.5,102.5 L277.5,102.5"/><text id="3" fill="#D0021B" font-family="PTMono-Regular, PT Mono" font-size="20" font-weight="normal"><tspan x="182" y="101">3</tspan></text><text id="class=&quot;my&quot;" fill="#417505" font-family="PTMono-Regular, PT Mono" font-size="20" font-weight="normal"><tspan x="185" y="121">class=&quot;my&quot;</tspan></text></g></g></svg>