<svg xmlns="http://www.w3.org/2000/svg" xmlns:xlink="http://www.w3.org/1999/xlink" width="209" height="316" version="1.1" viewBox="0 0 209 316"><title>native-prototypes-array-tostring.svg</title><desc>Created with sketchtool.</desc><g id="inheritance" fill="none" fill-rule="evenodd" stroke="none" stroke-width="1"><g id="native-prototypes-array-tostring.svg"><rect id="Rectangle-1" width="168" height="58" x="17" y="156" fill="#FFF9EB" stroke="#E8C48E" stroke-width="2"/><text id="toString:-function" font-family="PTMono-Bold, PT Mono" font-size="14" font-weight="bold"><tspan x="27" y="179" fill="#EC6B4E">toString: function</tspan> <tspan x="27" y="194" fill="#8A704D" font-family="PTMono-Regular, PT Mono" font-weight="normal">...</tspan></text><text id="Array.prototype" fill="#8A704D" font-family="PTMono-Regular, PT Mono" font-size="14" font-weight="normal"><tspan x="16" y="148">Array.prototype</tspan></text><rect id="Rectangle-1" width="168" height="58" x="17" y="23" fill="#FFF9EB" stroke="#E8C48E" stroke-width="2"/><text id="toString:-function" fill="#8A704D" font-family="PTMono-Regular, PT Mono" font-size="14" font-weight="normal"><tspan x="27" y="46">toString: function</tspan> <tspan x="27" y="61">...</tspan></text><text id="Object.prototype" fill="#8A704D" font-family="PTMono-Regular, PT Mono" font-size="14" font-weight="normal"><tspan x="16" y="15">Object.prototype</tspan></text><rect id="Rectangle-1" width="168" height="28" x="17" y="273" fill="#FFF9EB" stroke="#E8C48E" stroke-width="2"/><path id="Line" fill="#EE6B47" fill-rule="nonzero" d="M77.5,236.5 L77.5,264.5 L75.5,264.5 L75.5,236.5 L69.5,236.5 L76.5,222.5 L83.5,236.5 L77.5,236.5 Z"/><text id="[[Prototype]]" fill="#8A704D" font-family="PTMono-Regular, PT Mono" font-size="14" font-weight="normal"><tspan x="86" y="244">[[Prototype]]</tspan></text><path id="Line-2" fill="#EE6B47" fill-rule="nonzero" d="M77.5,104.5 L77.5,132.5 L75.5,132.5 L75.5,104.5 L69.5,104.5 L76.5,90.5 L83.5,104.5 L77.5,104.5 Z"/><text id="[[Prototype]]" fill="#8A704D" font-family="PTMono-Regular, PT Mono" font-size="14" font-weight="normal"><tspan x="86" y="112">[[Prototype]]</tspan></text><text id="[1,-2,-3]" fill="#8A704D" font-family="PTMono-Regular, PT Mono" font-size="14" font-weight="normal"><tspan x="41" y="291">[1, 2, 3]</tspan></text></g></g></svg>