<svg xmlns="http://www.w3.org/2000/svg" xmlns:xlink="http://www.w3.org/1999/xlink" width="453" height="199" version="1.1" viewBox="0 0 453 199"><title>object-prototype-1.svg</title><desc>Created with sketchtool.</desc><g id="inheritance" fill="none" fill-rule="evenodd" stroke="none" stroke-width="1"><g id="object-prototype-1.svg"><rect id="Rectangle-1" width="208" height="58" x="233" y="23" fill="#FFF9EB" stroke="#E8C48E" stroke-width="2"/><text id="constructor:-Object" fill="#8A704D" font-family="PTMono-Regular, PT Mono" font-size="14" font-weight="normal"><tspan x="243" y="40">constructor: Object</tspan> <tspan x="243" y="55">toString: function</tspan> <tspan x="243" y="70">...</tspan></text><rect id="Rectangle-1-Copy" width="178" height="28" x="233" y="164" fill="#FFF9EB" stroke="#E8C48E" stroke-width="2"/><text id="Object.prototype" fill="#8A704D" font-family="PTMono-Regular, PT Mono" font-size="14" font-weight="normal"><tspan x="232" y="15">Object.prototype</tspan></text><rect id="Rectangle-1-Copy-2" width="108" height="28" x="10" y="23" fill="#FFF9EB" stroke="#E8C48E" stroke-width="2"/><text id="Object" fill="#8A704D" font-family="PTMono-Regular, PT Mono" font-size="14" font-weight="normal"><tspan x="9" y="15">Object</tspan></text><text id="obj-=-new-Object()" fill="#8A704D" font-family="PTMono-Regular, PT Mono" font-size="14" font-weight="normal"><tspan x="238" y="154">obj = new Object()</tspan></text><path id="Line" fill="#EE6B47" fill-rule="nonzero" d="M322.5,108.5 L322.5,136.5 L320.5,136.5 L320.5,108.5 L314.5,108.5 L321.5,94.5 L328.5,108.5 L322.5,108.5 Z"/><path id="Line-Copy" fill="#EE6B47" fill-rule="nonzero" d="M204,35 L127,35 L127,33 L204,33 L204,27 L218,34 L204,41 L204,35 Z"/><text id="[[Prototype]]" fill="#8A704D" font-family="PTMono-Regular, PT Mono" font-size="14" font-weight="normal"><tspan x="331" y="118">[[Prototype]]</tspan></text><text id="prototype" fill="#8A704D" font-family="PTMono-Regular, PT Mono" font-size="14" font-weight="normal"><tspan x="134" y="22">prototype</tspan></text><text id="constructor" fill="#8A704D" font-family="PTMono-Regular, PT Mono" font-size="14" font-weight="normal"><tspan x="17" y="41">constructor</tspan></text></g></g></svg>