<svg xmlns="http://www.w3.org/2000/svg" xmlns:xlink="http://www.w3.org/1999/xlink" width="453" height="160" version="1.1" viewBox="0 0 453 160"><title>proto-constructor-animal-rabbit.svg</title><desc>Created with sketchtool.</desc><g id="inheritance" fill="none" fill-rule="evenodd" stroke="none" stroke-width="1"><g id="proto-constructor-animal-rabbit.svg"><rect id="Rectangle-1" width="187" height="28" x="233" y="23" fill="#FFF9EB" stroke="#E8C48E" stroke-width="2"/><text id="eats:-true" fill="#8A704D" font-family="PTMono-Regular, PT Mono" font-size="14" font-weight="normal"><tspan x="243" y="42">eats: true</tspan></text><rect id="Rectangle-1-Copy" width="187" height="28" x="233" y="124" fill="#FFF9EB" stroke="#E8C48E" stroke-width="2"/><text id="name:-&quot;White-Rabbit&quot;" fill="#8A704D" font-family="PTMono-Regular, PT Mono" font-size="14" font-weight="normal"><tspan x="246" y="143">name: &quot;White Rabbit&quot;</tspan></text><text id="animal" fill="#8A704D" font-family="PTMono-Regular, PT Mono" font-size="14" font-weight="normal"><tspan x="232" y="15">animal</tspan></text><rect id="Rectangle-1-Copy-2" width="99" height="28" x="10" y="23" fill="#FFF9EB" stroke="#E8C48E" stroke-width="2"/><text id="Rabbit" fill="#8A704D" font-family="PTMono-Regular, PT Mono" font-size="14" font-weight="normal"><tspan x="9" y="15">Rabbit</tspan></text><text id="rabbit" fill="#8A704D" font-family="PTMono-Regular, PT Mono" font-size="14" font-weight="normal"><tspan x="238" y="113">rabbit</tspan></text><path id="Line" fill="#EE6B47" fill-rule="nonzero" d="M322.5,82.5 L322.5,110.5 L320.5,110.5 L320.5,82.5 L314.5,82.5 L321.5,68.5 L328.5,82.5 L322.5,82.5 Z"/><path id="Line-Copy" fill="#EE6B47" fill-rule="nonzero" d="M208,35 L127,35 L127,33 L208,33 L208,27 L222,34 L208,41 L208,35 Z"/><text id="[[Prototype]]" fill="#8A704D" font-family="PTMono-Regular, PT Mono" font-size="14" font-weight="normal"><tspan x="331" y="92">[[Prototype]]</tspan></text><text id="prototype" fill="#8A704D" font-family="PTMono-Regular, PT Mono" font-size="14" font-weight="normal"><tspan x="134" y="22">prototype</tspan></text></g></g></svg>