<svg xmlns="http://www.w3.org/2000/svg" xmlns:xlink="http://www.w3.org/1999/xlink" width="188" height="192" version="1.1" viewBox="0 0 188 192"><title>json-meetup.svg</title><desc>Created with sketchtool.</desc><g id="combined" fill="none" fill-rule="evenodd" stroke="none" stroke-width="1"><g id="json-meetup.svg"><rect id="Rectangle-2" width="89" height="26" x="59" y="1" fill="#FFF9EB" stroke="#BCA68E" stroke-width="2"/><text id="number:-23" fill="#8A704D" font-family="Consolas" font-size="12" font-weight="normal"><tspan x="72" y="17">number: 23</tspan></text><rect id="Rectangle-3" width="152" height="26" x="25" y="80" fill="#FFF9EB" stroke="#BCA68E" stroke-width="2"/><text id="title:-&quot;Conference&quot;" fill="#8A704D" font-family="Consolas" font-size="12" font-weight="normal"><tspan x="38" y="96">title: &quot;Conference&quot;</tspan></text><rect id="Rectangle-3-Copy" width="89" height="26" x="57" y="157" fill="#FFF9EB" stroke="#BCA68E" stroke-width="2"/><text id="..." fill="#8A704D" font-family="Consolas" font-size="12" font-weight="normal"><tspan x="91" y="173">...</tspan></text><text id="place" fill="#8A704D" font-family="Consolas" font-size="14" font-weight="normal"><tspan x="127" y="56">place</tspan></text><path id="Line" fill="#EE6B47" fill-rule="nonzero" d="M93.5,52.5 L93.5,34.5 L95.5,34.5 L95.5,52.5 L101.5,52.5 L94.5,66.5 L87.5,52.5 L93.5,52.5 Z"/><path id="Line-Copy" fill="#EE6B47" fill-rule="nonzero" d="M108.5,49.5 L108.5,67.5 L106.5,67.5 L106.5,49.5 L100.5,49.5 L107.5,35.5 L114.5,49.5 L108.5,49.5 Z"/><text id="occupiedBy" fill="#8A704D" font-family="Consolas" font-size="14" font-weight="normal"><tspan x="5" y="56">occupiedBy</tspan></text><path id="Line-Copy-2" fill="#EE6B47" fill-rule="nonzero" d="M100.5,131.5 L100.5,113.5 L102.5,113.5 L102.5,131.5 L108.5,131.5 L101.5,145.5 L94.5,131.5 L100.5,131.5 Z"/><text id="participants" fill="#8A704D" font-family="Consolas" font-size="14" font-weight="normal"><tspan x="0" y="135">participants</tspan></text><ellipse id="Oval-32" cx="101" cy="52.5" stroke="#F5A623" rx="37" ry="33.5"/></g></g></svg>