<svg xmlns="http://www.w3.org/2000/svg" xmlns:xlink="http://www.w3.org/1999/xlink" width="233" height="344" version="1.1" viewBox="0 0 233 344"><title>rabbit-animal-object.svg</title><desc>Created with sketchtool.</desc><g id="inheritance" fill="none" fill-rule="evenodd" stroke="none" stroke-width="1"><g id="rabbit-animal-object.svg"><rect id="Rectangle-1" width="218" height="58" x="14" y="96" fill="#FFF9EB" stroke="#E8C48E" stroke-width="2"/><text id="toString:-function" fill="#8A704D" font-family="PTMono-Regular, PT Mono" font-size="14" font-weight="normal"><tspan x="24" y="113">toString: function</tspan> <tspan x="24" y="128">hasOwnProperty: function</tspan> <tspan x="24" y="143">...</tspan></text><text id="Object.prototype" fill="#8A704D" font-family="PTMono-Regular, PT Mono" font-size="14" font-weight="normal"><tspan x="13" y="88">Object.prototype</tspan></text><rect id="Rectangle-1" width="218" height="28" x="14" y="213" fill="#FFF9EB" stroke="#E8C48E" stroke-width="2"/><text id="animal" fill="#8A704D" font-family="PTMono-Regular, PT Mono" font-size="14" font-weight="normal"><tspan x="13" y="205">animal</tspan></text><path id="Line" fill="#EE6B47" fill-rule="nonzero" d="M74.5,176.5 L74.5,204.5 L72.5,204.5 L72.5,176.5 L66.5,176.5 L73.5,162.5 L80.5,176.5 L74.5,176.5 Z"/><text id="[[Prototype]]" fill="#8A704D" font-family="PTMono-Regular, PT Mono" font-size="14" font-weight="normal"><tspan x="83" y="184">[[Prototype]]</tspan></text><text id="[[Prototype]]-Copy" fill="#8A704D" font-family="PTMono-Regular, PT Mono" font-size="14" font-weight="normal"><tspan x="83" y="274">[[Prototype]]</tspan></text><path id="Line-2" fill="#EE6B47" fill-rule="nonzero" d="M74.5,44.5 L74.5,72.5 L72.5,72.5 L72.5,44.5 L66.5,44.5 L73.5,30.5 L80.5,44.5 L74.5,44.5 Z"/><text id="[[Prototype]]" fill="#8A704D" font-family="PTMono-Regular, PT Mono" font-size="14" font-weight="normal"><tspan x="83" y="52">[[Prototype]]</tspan></text><text id="null" fill="#8A704D" font-family="PTMono-Regular, PT Mono" font-size="14" font-weight="normal"><tspan x="59" y="19">null</tspan></text><text id="eats:-true" fill="#8A704D" font-family="PTMono-Regular, PT Mono" font-size="14" font-weight="normal"><tspan x="24" y="231">eats: true</tspan></text><rect id="Rectangle-1-Copy" width="218" height="28" x="14" y="302" fill="#FFF9EB" stroke="#E8C48E" stroke-width="2"/><text id="rabbit-copy" fill="#8A704D" font-family="PTMono-Regular, PT Mono" font-size="14" font-weight="normal"><tspan x="13" y="294">rabbit</tspan></text><path id="Line-Copy" fill="#EE6B47" fill-rule="nonzero" d="M74.5,265.5 L74.5,293.5 L72.5,293.5 L72.5,265.5 L66.5,265.5 L73.5,251.5 L80.5,265.5 L74.5,265.5 Z"/><text id="jumps:-true" fill="#8A704D" font-family="PTMono-Regular, PT Mono" font-size="14" font-weight="normal"><tspan x="24" y="320">jumps: true</tspan></text></g></g></svg>