<svg xmlns="http://www.w3.org/2000/svg" xmlns:xlink="http://www.w3.org/1999/xlink" width="668" height="192" version="1.1" viewBox="0 0 668 192"><title>cookie-third-party.svg</title><desc>Created with sketchtool.</desc><g id="data-storage" fill="none" fill-rule="evenodd" stroke="none" stroke-width="1"><g id="cookie-third-party.svg"><rect id="Rectangle-1" width="282" height="99" x="38" y="48" fill="#FFF9EB" stroke="#E8C48E" stroke-width="2"/><text id="&lt;img-src=&quot;https://ad" fill="#8A704D" font-family="OpenSans-Regular, Open Sans" font-size="14" font-weight="normal"><tspan x="42" y="70">&lt;img src=&quot;https://ads.com/banner.png&quot;&gt;</tspan></text><text id="site.com" fill="#8A704D" font-family="OpenSans-Bold, Open Sans" font-size="14" font-weight="bold"><tspan x="149" y="36">site.com</tspan></text><rect id="Rectangle-1-Copy" width="140" height="99" x="505" y="48" fill="#FFF9EB" stroke="#E8C48E" stroke-width="2"/><text id="ads.com" fill="#8A704D" font-family="OpenSans-Bold, Open Sans" font-size="14" font-weight="bold"><tspan x="543" y="36">ads.com</tspan></text><path id="Line" fill="#EE6B47" fill-rule="nonzero" d="M485.492587,88.6098407 L321.374704,66.3565684 L321.643432,64.3747042 L485.761314,86.6279765 L486.567496,80.682384 L499.5,89.5 L484.686405,94.5554332 L485.492587,88.6098407 Z"/><path id="Line-Copy" fill="#EE6B47" fill-rule="nonzero" d="M336.262135,126.742529 L500.365913,105.881879 L500.618121,107.865913 L336.514342,128.726563 L337.270966,134.678665 L322.5,129.5 L335.505512,120.790427 L336.262135,126.742529 Z"/><text id="GET-/banner.png" fill="#8A704D" font-family="OpenSans-Regular, Open Sans" font-size="14" font-weight="normal" transform="translate(416.568389, 65.381858) rotate(7.000000) translate(-416.568389, -65.381858)"><tspan x="361.068" y="70.882">GET /banner.png</tspan></text><text id="Set-Cookie:-id=123" fill="#8A704D" font-family="OpenSans-Regular, Open Sans" font-size="14" font-weight="normal" transform="translate(413.468881, 128.991204) rotate(-7.000000) translate(-413.468881, -128.991204)"><tspan x="352.969" y="134.491">Set-Cookie: id=123</tspan></text></g></g></svg>