<svg xmlns="http://www.w3.org/2000/svg" xmlns:xlink="http://www.w3.org/1999/xlink" width="486" height="370" version="1.1" viewBox="0 0 486 370"><title>object-date-inheritance.svg</title><desc>Created with sketchtool.</desc><g id="inheritance" fill="none" fill-rule="evenodd" stroke="none" stroke-width="1"><g id="object-date-inheritance.svg"><rect id="Rectangle-1" width="219" height="78" x="262" y="23" fill="#FFF9EB" stroke="#E8C48E" stroke-width="2"/><text id="constructor:-Object" fill="#8A704D" font-family="PTMono-Regular, PT Mono" font-size="14" font-weight="normal"><tspan x="272" y="42">constructor: Object</tspan> <tspan x="272" y="57">toString: function</tspan> <tspan x="272" y="72">hasOwnProperty: function</tspan> <tspan x="272" y="87">...</tspan></text><rect id="Rectangle-1-Copy" width="178" height="28" x="262" y="329" fill="#FFF9EB" stroke="#E8C48E" stroke-width="2"/><text id="Object.prototype" fill="#8A704D" font-family="PTMono-Regular, PT Mono" font-size="14" font-weight="normal"><tspan x="261" y="15">Object.prototype</tspan></text><rect id="Rectangle-1-Copy-4" width="219" height="78" x="262" y="183" fill="#FFF9EB" stroke="#E8C48E" stroke-width="2"/><text id="constructor:-Date-to" fill="#8A704D" font-family="PTMono-Regular, PT Mono" font-size="14" font-weight="normal"><tspan x="272" y="202">constructor: Date</tspan> <tspan x="272" y="217">toString: function</tspan> <tspan x="272" y="232">getDate: function</tspan> <tspan x="272" y="247">...</tspan></text><text id="Date.prototype" fill="#8A704D" font-family="PTMono-Regular, PT Mono" font-size="14" font-weight="normal"><tspan x="261" y="175">Date.prototype</tspan></text><rect id="Rectangle-1-Copy-2" width="133" height="64" x="15" y="23" fill="#FFF9EB" stroke="#E8C48E" stroke-width="2"/><text id="Object" fill="#8A704D" font-family="PTMono-Regular, PT Mono" font-size="14" font-weight="normal"><tspan x="14" y="15">Object</tspan></text><rect id="Rectangle-1-Copy-3" width="133" height="64" x="15" y="183" fill="#FFF9EB" stroke="#E8C48E" stroke-width="2"/><text id="Date" fill="#8A704D" font-family="PTMono-Regular, PT Mono" font-size="14" font-weight="normal"><tspan x="14" y="175">Date</tspan></text><text id="new-Date()" fill="#8A704D" font-family="PTMono-Regular, PT Mono" font-size="14" font-weight="normal"><tspan x="263" y="318">new Date()</tspan></text><path id="Line" fill="#EE6B47" fill-rule="nonzero" d="M351.5,127.5 L351.5,155.5 L349.5,155.5 L349.5,127.5 L343.5,127.5 L350.5,113.5 L357.5,127.5 L351.5,127.5 Z"/><path id="Line-Copy" fill="#EE6B47" fill-rule="nonzero" d="M223,38 L156,38 L156,36 L223,36 L223,30 L237,37 L223,44 L223,38 Z"/><text id="[[Prototype]]" fill="#8A704D" font-family="PTMono-Regular, PT Mono" font-size="14" font-weight="normal"><tspan x="360" y="137">[[Prototype]]</tspan></text><path id="Line-Copy-3" fill="#EE6B47" fill-rule="nonzero" d="M351.5,287.5 L351.5,315.5 L349.5,315.5 L349.5,287.5 L343.5,287.5 L350.5,273.5 L357.5,287.5 L351.5,287.5 Z"/><text id="[[Prototype]]-Copy" fill="#8A704D" font-family="PTMono-Regular, PT Mono" font-size="14" font-weight="normal"><tspan x="360" y="297">[[Prototype]]</tspan></text><text id="prototype" fill="#8A704D" font-family="PTMono-Regular, PT Mono" font-size="14" font-weight="normal"><tspan x="163" y="25">prototype</tspan></text><path id="Line-Copy-2" fill="#EE6B47" fill-rule="nonzero" d="M223,206 L156,206 L156,204 L223,204 L223,198 L237,205 L223,212 L223,206 Z"/><text id="prototype-copy" fill="#8A704D" font-family="PTMono-Regular, PT Mono" font-size="14" font-weight="normal"><tspan x="163" y="193">prototype</tspan></text><text id="defineProperty" fill="#8A704D" font-family="PTMono-Regular, PT Mono" font-size="14" font-weight="normal"><tspan x="24" y="41">defineProperty</tspan> <tspan x="24" y="56">keys</tspan> <tspan x="24" y="71">...</tspan></text><text id="now" fill="#8A704D" font-family="PTMono-Regular, PT Mono" font-size="14" font-weight="normal"><tspan x="24" y="202">now</tspan> <tspan x="24" y="217">parse</tspan> <tspan x="24" y="232">...</tspan></text><text id="1-Jan-2019" fill="#8A704D" font-family="PTMono-Regular, PT Mono" font-size="14" font-weight="normal"><tspan x="273" y="347">1 Jan 2019</tspan></text></g></g></svg>