<svg xmlns="http://www.w3.org/2000/svg" xmlns:xlink="http://www.w3.org/1999/xlink" width="463" height="204" version="1.1" viewBox="0 0 463 204"><title>garbage-collection-5.svg</title><desc>Created with sketchtool.</desc><defs><rect id="path-1" width="146" height="88" x="0" y="0"/><rect id="path-3" width="80" height="28" x="0" y="0"/><rect id="path-5" width="40" height="20" x="0" y="0"/><rect id="path-7" width="40" height="20" x="0" y="0"/><rect id="path-9" width="40" height="20" x="0" y="0"/><rect id="path-11" width="40" height="20" x="0" y="0"/><rect id="path-13" width="40" height="20" x="0" y="0"/><rect id="path-15" width="40" height="20" x="0" y="0"/><rect id="path-17" width="40" height="20" x="0" y="0"/><rect id="path-19" width="40" height="20" x="0" y="0"/><rect id="path-21" width="40" height="20" x="0" y="0"/><rect id="path-23" width="40" height="20" x="0" y="0"/><rect id="path-25" width="40" height="20" x="0" y="0"/></defs><g id="garbage-collection" fill="none" fill-rule="evenodd" stroke="none" stroke-width="1"><g id="garbage-collection-5.svg"><g id="Rectangle-5-Clipped" transform="translate(260.000000, 46.000000)"><mask id="mask-2" fill="#fff"><use xlink:href="#path-1"/></mask><g id="Rectangle-5" stroke="#D0011B" stroke-width="4" mask="url(#mask-2)"><rect id="path-23" width="146" height="88" x="0" y="0"/></g></g><g id="Rectangle-1-Clipped" transform="translate(106.000000, 8.000000)"><mask id="mask-4" fill="#fff"><use xlink:href="#path-3"/></mask><g id="Rectangle-1" fill="#FFF9EB" stroke="#E8C48E" stroke-width="4" mask="url(#mask-4)"><rect id="path-1" width="80" height="28" x="0" y="0"/></g></g><text id="&lt;global&gt;" fill="#8A704D" font-family="PTMono-Regular, PT Mono" font-size="14" font-weight="normal"><tspan x="115" y="26">&lt;global&gt;</tspan></text><g id="Rectangle-2-Clipped" transform="translate(360.000000, 99.000000)"><mask id="mask-6" fill="#fff"><use xlink:href="#path-5"/></mask><g id="Rectangle-2" fill="#FFF9EB" fill-opacity=".8" stroke="#BCA68E" stroke-width="4" mask="url(#mask-6)"><rect id="path-3" width="40" height="20" x="0" y="0"/></g></g><g id="Rectangle-2-Copy-2-Clipped" transform="translate(267.000000, 99.000000)"><mask id="mask-8" fill="#fff"><use xlink:href="#path-7"/></mask><g id="Rectangle-2-Copy-2" fill="#FFF9EB" fill-opacity=".8" stroke="#BCA68E" stroke-width="4" mask="url(#mask-8)"><rect id="path-5" width="40" height="20" x="0" y="0"/></g></g><g id="Rectangle-2-Copy-2-Clipped" transform="translate(126.000000, 79.000000)"><mask id="mask-10" fill="#fff"><use xlink:href="#path-9"/></mask><g id="Rectangle-2-Copy-2" fill="#FFF9EB" stroke="#BCA68E" stroke-width="4" mask="url(#mask-10)"><rect id="path-7" width="40" height="20" x="0" y="0"/></g></g><g id="Rectangle-2-Copy-Clipped" transform="translate(313.000000, 53.000000)"><mask id="mask-12" fill="#fff"><use xlink:href="#path-11"/></mask><g id="Rectangle-2-Copy" fill="#FFF9EB" fill-opacity=".8" stroke="#BCA68E" stroke-width="4" mask="url(#mask-12)"><rect id="path-9" width="40" height="20" x="0" y="0"/></g></g><g id="Rectangle-2-Copy-3-Clipped" transform="translate(176.000000, 129.000000)"><mask id="mask-14" fill="#fff"><use xlink:href="#path-13"/></mask><g id="Rectangle-2-Copy-3" fill="#FFF9EB" stroke="#BCA68E" stroke-width="4" mask="url(#mask-14)"><rect id="path-11" width="40" height="20" x="0" y="0"/></g></g><g id="Rectangle-2-Copy-8-Clipped" transform="translate(196.000000, 69.000000)"><mask id="mask-16" fill="#fff"><use xlink:href="#path-15"/></mask><g id="Rectangle-2-Copy-8" fill="#FFF9EB" stroke="#BCA68E" stroke-width="4" mask="url(#mask-16)"><rect id="path-13" width="40" height="20" x="0" y="0"/></g></g><g id="Rectangle-2-Copy-4-Clipped" transform="translate(128.000000, 139.000000)"><mask id="mask-18" fill="#fff"><use xlink:href="#path-17"/></mask><g id="Rectangle-2-Copy-4" fill="#FFF9EB" stroke="#BCA68E" stroke-width="4" mask="url(#mask-18)"><rect id="path-15" width="40" height="20" x="0" y="0"/></g></g><g id="Rectangle-2-Copy-5-Clipped" transform="translate(76.000000, 131.000000)"><mask id="mask-20" fill="#fff"><use xlink:href="#path-19"/></mask><g id="Rectangle-2-Copy-5" fill="#FFF9EB" stroke="#BCA68E" stroke-width="4" mask="url(#mask-20)"><rect id="path-17" width="40" height="20" x="0" y="0"/></g></g><g id="Rectangle-2-Copy-6-Clipped" transform="translate(76.000000, 71.000000)"><mask id="mask-22" fill="#fff"><use xlink:href="#path-21"/></mask><g id="Rectangle-2-Copy-6" fill="#FFF9EB" stroke="#BCA68E" stroke-width="4" mask="url(#mask-22)"><rect id="path-19" width="40" height="20" x="0" y="0"/></g></g><g id="Rectangle-2-Copy-7-Clipped" transform="translate(27.000000, 57.000000)"><mask id="mask-24" fill="#fff"><use xlink:href="#path-23"/></mask><g id="Rectangle-2-Copy-7" fill="#FFF9EB" stroke="#BCA68E" stroke-width="4" mask="url(#mask-24)"><rect id="path-21" width="40" height="20" x="0" y="0"/></g></g><path id="Line" fill="#EE6B47" stroke="#EE6B47" stroke-width="2" d="M148.5,40.5 L148.5,71.5"/><polygon id="Line-decoration-1" fill="#EE6B47" stroke="#EE6B47" stroke-width="2" points="148.5 71.5 151.5 60.7 145.5 60.7"/><path id="Line-Copy" fill="#EE6B47" stroke="#EE6B47" stroke-width="2" d="M148.5,105.5 L148.5,129.5"/><polygon id="Line-Copy-decoration-1" fill="#EE6B47" stroke="#EE6B47" stroke-width="2" points="148.5 129.5 151.5 118.7 145.5 118.7"/><path id="Line-2" fill="#EE6B47" fill-opacity=".8" stroke="#EE6B47" stroke-width="2" d="M319.5,77.5 L300.5,93.5"/><polygon id="Line-2-decoration-1" fill="#EE6B47" fill-opacity=".8" stroke="#EE6B47" stroke-width="2" points="300.5 93.5 310.693 88.838 306.829 84.249"/><path id="Line-2" fill="#EE6B47" stroke="#EE6B47" stroke-width="2" d="M127.5,47.5 L108.5,63.5"/><polygon id="Line-2-decoration-1" fill="#EE6B47" stroke="#EE6B47" stroke-width="2" points="108.5 63.5 118.693 58.838 114.829 54.249"/><path id="Line-2-Copy-2" fill="#EE6B47" stroke="#EE6B47" stroke-width="2" d="M97.5,42.5 L74.5,51.5"/><polygon id="Line-2-Copy-2-decoration-1" fill="#EE6B47" stroke="#EE6B47" stroke-width="2" points="74.5 51.5 85.651 50.358 83.464 44.771"/><path id="Line-2-Copy" fill="#EE6B47" stroke="#EE6B47" stroke-width="2" d="M133.5,107.5 L114.5,123.5"/><polygon id="Line-2-Copy-decoration-1" fill="#EE6B47" stroke="#EE6B47" stroke-width="2" points="114.5 123.5 124.693 118.838 120.829 114.249"/><path id="Line" fill="#EE6B47" stroke="#EE6B47" stroke-width="2" d="M313.070628,109.5 L352.425466,109.5"/><polygon id="Line-decoration-1" fill="#EE6B47" stroke="#EE6B47" stroke-width="2" points="352.425 109.5 341.625 106.5 341.625 112.5"/><path id="Line" fill="#EE6B47" stroke="#EE6B47" stroke-width="2" d="M170.5,107.5 L188.5,122.5"/><polygon id="Line-decoration-1" fill="#EE6B47" stroke="#EE6B47" stroke-width="2" points="188.5 122.5 182.124 113.281 178.283 117.891"/><path id="Line-Copy-6" fill="#EE6B47" stroke="#EE6B47" stroke-width="2" d="M202.5,154.5 L220.5,169.5"/><polygon id="Line-Copy-6-decoration-1" fill="#EE6B47" stroke="#EE6B47" stroke-width="2" points="220.5 169.5 214.124 160.281 210.283 164.891"/><path id="Line-Copy-5" fill="#EE6B47" stroke="#EE6B47" stroke-width="2" d="M170.5,87.5 L190.5,80.5"/><polygon id="Line-Copy-5-decoration-1" fill="#EE6B47" stroke="#EE6B47" stroke-width="2" points="190.5 80.5 179.315 81.236 181.297 86.899"/><path id="Line-Copy-4" fill="#EE6B47" stroke="#EE6B47" stroke-width="2" d="M209.5,120.5 L223.5,98.5"/><polygon id="Line-Copy-4-decoration-1" fill="#EE6B47" stroke="#EE6B47" stroke-width="2" points="223.5 98.5 215.171 106.001 220.233 109.222"/><path id="Line-Copy-3" fill="#EE6B47" stroke="#EE6B47" stroke-width="2" d="M46.5,82.5 L78.5,122.5"/><polygon id="Line-Copy-3-decoration-1" fill="#EE6B47" stroke="#EE6B47" stroke-width="2" points="78.5 122.5 74.096 112.193 69.411 115.941"/><g id="noun_48910_cc" transform="translate(261.000000, 5.000000)"><path id="Shape" d="M17.5030263,1.75054945 L12.4969737,1.75054945 C12.3098684,1.75054945 12.1571053,1.90364835 12.1571053,2.09156044 L12.1571053,3.21745055 L17.8432895,3.21745055 L17.8432895,2.09156044 C17.8432895,1.90364835 17.6905263,1.75054945 17.5030263,1.75054945 L17.5030263,1.75054945 L17.5030263,1.75054945 Z"/><path id="Shape" fill="#D0021B" d="M28.3638158,3.21745055 L19.5896053,3.21745055 L19.5896053,2.09156044 C19.5896053,0.937978022 18.6540789,0 17.5030263,0 L12.4969737,0 C11.3463158,0 10.4103947,0.937978022 10.4103947,2.09156044 L10.4103947,3.21745055 L1.63657895,3.21745055 C0.9375,3.21745055 0.370657895,3.78514286 0.370657895,4.48575824 L0.370657895,4.57516484 C0.370657895,5.27578022 0.9375,5.84347253 1.63657895,5.84347253 L28.3638158,5.84347253 C29.0628947,5.84347253 29.6297368,5.27578022 29.6297368,4.57516484 L29.6297368,4.48575824 C29.6297368,3.78514286 29.0625,3.21745055 28.3638158,3.21745055 L28.3638158,3.21745055 L28.3638158,3.21745055 Z M17.8432895,3.21745055 L12.1571053,3.21745055 L12.1571053,2.09156044 C12.1571053,1.90364835 12.3098684,1.75054945 12.4969737,1.75054945 L17.5034211,1.75054945 C17.6909211,1.75054945 17.8432895,1.90364835 17.8432895,2.09156044 L17.8432895,3.21745055 L17.8432895,3.21745055 L17.8432895,3.21745055 Z"/><path id="Shape" fill="#D0021B" d="M26.0542105,6.28101099 L3.7275,6.28101099 C2.42960526,6.28101099 1.37723684,6.0567033 1.37723684,7.35784615 L3.13973684,33.195956 C3.13973684,34.4959121 4.1925,35.6047912 5.49039474,35.6047912 L24.2921053,35.6047912 C25.59,35.6047912 26.6423684,34.4959121 26.6423684,33.195956 L28.4048684,7.35784615 C28.4044737,6.0567033 27.3521053,6.28101099 26.0542105,6.28101099 L26.0542105,6.28101099 L26.0542105,6.28101099 Z M9.63710526,32.1927033 C9.26013158,32.2053626 8.94552632,31.932 8.93289474,31.5807033 L8.23894737,11.664 C8.22671053,11.3127033 8.52236842,11.0171868 8.89815789,11.0041319 C9.27513158,10.9910769 9.58973684,11.2652308 9.60236842,11.6165275 L10.2963158,31.5332308 C10.3085526,31.8841319 10.0132895,32.180044 9.63710526,32.1927033 L9.63710526,32.1927033 L9.63710526,32.1927033 Z M15.6809211,31.5632967 C15.6809211,31.9145934 15.3753947,32.1998242 14.9988158,32.1998242 C14.6222368,32.1998242 14.3167105,31.9141978 14.3167105,31.5632967 L14.3167105,11.6343297 C14.3167105,11.2826374 14.6222368,10.9978022 14.9988158,10.9978022 C15.3753947,10.9978022 15.6809211,11.2826374 15.6809211,11.6343297 L15.6809211,31.5632967 L15.6809211,31.5632967 L15.6809211,31.5632967 Z M21.0651316,31.5810989 C21.0528947,31.9323956 20.7378947,32.2057582 20.3609211,32.1930989 C19.9847368,32.1804396 19.6894737,31.8845275 19.7017105,31.5332308 L20.3956579,11.6165275 C20.4078947,11.2652308 20.7225,10.9910769 21.0994737,11.0041319 C21.4756579,11.0175824 21.7713158,11.3127033 21.7590789,11.664 L21.0651316,31.5810989 L21.0651316,31.5810989 L21.0651316,31.5810989 Z"/></g><text id="unreachables" fill="#8A704D" font-family="PTMono-Regular, PT Mono" font-size="14" font-weight="normal"><tspan x="296" y="29">unreachables</tspan></text><g id="Group" fill="#417505" transform="translate(83.500000, 78.500000) rotate(270.000000) translate(-83.500000, -78.500000) translate(79.000000, 74.000000)"><polyline id="Fill-72" points="5.5 5.511 4.634 4.5 5.5 3.489 5.5 1 2.505 4.497 2.5 4.497 2.503 4.5 2.5 4.503 2.505 4.503 5.5 8 5.5 5.511"/><path id="Fill-73" d="M4.5,1.09755648 C2.62387766,1.09755648 1.09755648,2.62406215 1.09755648,4.5 C1.09755648,6.37612234 2.62387766,7.90244352 4.5,7.90244352 C6.37612234,7.90244352 7.90244352,6.37612234 7.90244352,4.5 C7.90244352,2.62406215 6.37612234,1.09755648 4.5,1.09755648 L4.5,1.09755648 L4.5,1.09755648 Z M4.5,9 C2.01855192,9 5.68434189e-14,6.98144808 5.68434189e-14,4.5 C5.68434189e-14,2.01873642 2.01855192,0 4.5,0 C6.98126358,0 9,2.01873642 9,4.5 C9,6.98144808 6.98126358,9 4.5,9 L4.5,9 L4.5,9 Z"/></g><g id="Group-Copy" fill="#417505" transform="translate(34.500000, 64.500000) rotate(270.000000) translate(-34.500000, -64.500000) translate(30.000000, 60.000000)"><polyline id="Fill-72" points="5.5 5.511 4.634 4.5 5.5 3.489 5.5 1 2.505 4.497 2.5 4.497 2.503 4.5 2.5 4.503 2.505 4.503 5.5 8 5.5 5.511"/><path id="Fill-73" d="M4.5,1.09755648 C2.62387766,1.09755648 1.09755648,2.62406215 1.09755648,4.5 C1.09755648,6.37612234 2.62387766,7.90244352 4.5,7.90244352 C6.37612234,7.90244352 7.90244352,6.37612234 7.90244352,4.5 C7.90244352,2.62406215 6.37612234,1.09755648 4.5,1.09755648 L4.5,1.09755648 L4.5,1.09755648 Z M4.5,9 C2.01855192,9 0,6.98144808 0,4.5 C0,2.01873642 2.01855192,-8.8817842e-16 4.5,-8.8817842e-16 C6.98126358,-8.8817842e-16 9,2.01873642 9,4.5 C9,6.98144808 6.98126358,9 4.5,9 L4.5,9 L4.5,9 Z"/></g><g id="Group-Copy-2" fill="#417505" transform="translate(83.500000, 139.500000) rotate(270.000000) translate(-83.500000, -139.500000) translate(79.000000, 135.000000)"><polyline id="Fill-72" points="5.5 5.511 4.634 4.5 5.5 3.489 5.5 1 2.505 4.497 2.5 4.497 2.503 4.5 2.5 4.503 2.505 4.503 5.5 8 5.5 5.511"/><path id="Fill-73" d="M4.5,1.09755648 C2.62387766,1.09755648 1.09755648,2.62406215 1.09755648,4.5 C1.09755648,6.37612234 2.62387766,7.90244352 4.5,7.90244352 C6.37612234,7.90244352 7.90244352,6.37612234 7.90244352,4.5 C7.90244352,2.62406215 6.37612234,1.09755648 4.5,1.09755648 L4.5,1.09755648 L4.5,1.09755648 Z M4.5,9 C2.01855192,9 0,6.98144808 0,4.5 C0,2.01873642 2.01855192,0 4.5,0 C6.98126358,0 9,2.01873642 9,4.5 C9,6.98144808 6.98126358,9 4.5,9 L4.5,9 L4.5,9 Z"/></g><g id="Group-Copy-3" fill="#417505" transform="translate(135.500000, 146.500000) rotate(270.000000) translate(-135.500000, -146.500000) translate(131.000000, 142.000000)"><polyline id="Fill-72" points="5.5 5.511 4.634 4.5 5.5 3.489 5.5 1 2.505 4.497 2.5 4.497 2.503 4.5 2.5 4.503 2.505 4.503 5.5 8 5.5 5.511"/><path id="Fill-73" d="M4.5,1.09755648 C2.62387766,1.09755648 1.09755648,2.62406215 1.09755648,4.5 C1.09755648,6.37612234 2.62387766,7.90244352 4.5,7.90244352 C6.37612234,7.90244352 7.90244352,6.37612234 7.90244352,4.5 C7.90244352,2.62406215 6.37612234,1.09755648 4.5,1.09755648 L4.5,1.09755648 L4.5,1.09755648 Z M4.5,9 C2.01855192,9 0,6.98144808 0,4.5 C0,2.01873642 2.01855192,0 4.5,0 C6.98126358,0 9,2.01873642 9,4.5 C9,6.98144808 6.98126358,9 4.5,9 L4.5,9 L4.5,9 Z"/></g><g id="Group-Copy-4" fill="#417505" transform="translate(133.500000, 86.500000) rotate(270.000000) translate(-133.500000, -86.500000) translate(129.000000, 82.000000)"><polyline id="Fill-72" points="5.5 5.511 4.634 4.5 5.5 3.489 5.5 1 2.505 4.497 2.5 4.497 2.503 4.5 2.5 4.503 2.505 4.503 5.5 8 5.5 5.511"/><path id="Fill-73" d="M4.5,1.09755648 C2.62387766,1.09755648 1.09755648,2.62406215 1.09755648,4.5 C1.09755648,6.37612234 2.62387766,7.90244352 4.5,7.90244352 C6.37612234,7.90244352 7.90244352,6.37612234 7.90244352,4.5 C7.90244352,2.62406215 6.37612234,1.09755648 4.5,1.09755648 L4.5,1.09755648 L4.5,1.09755648 Z M4.5,9 C2.01855192,9 5.68434189e-14,6.98144808 5.68434189e-14,4.5 C5.68434189e-14,2.01873642 2.01855192,0 4.5,0 C6.98126358,0 9,2.01873642 9,4.5 C9,6.98144808 6.98126358,9 4.5,9 L4.5,9 L4.5,9 Z"/></g><g id="Group-Copy-5" fill="#417505" transform="translate(183.500000, 136.500000) rotate(270.000000) translate(-183.500000, -136.500000) translate(179.000000, 132.000000)"><polyline id="Fill-72" points="5.5 5.511 4.634 4.5 5.5 3.489 5.5 1 2.505 4.497 2.5 4.497 2.503 4.5 2.5 4.503 2.505 4.503 5.5 8 5.5 5.511"/><path id="Fill-73" d="M4.5,1.09755648 C2.62387766,1.09755648 1.09755648,2.62406215 1.09755648,4.5 C1.09755648,6.37612234 2.62387766,7.90244352 4.5,7.90244352 C6.37612234,7.90244352 7.90244352,6.37612234 7.90244352,4.5 C7.90244352,2.62406215 6.37612234,1.09755648 4.5,1.09755648 L4.5,1.09755648 L4.5,1.09755648 Z M4.5,9 C2.01855192,9 -1.26217745e-29,6.98144808 -1.26217745e-29,4.5 C-1.26217745e-29,2.01873642 2.01855192,0 4.5,0 C6.98126358,0 9,2.01873642 9,4.5 C9,6.98144808 6.98126358,9 4.5,9 L4.5,9 L4.5,9 Z"/></g><g id="Rectangle-2-Copy-9-Clipped" transform="translate(219.000000, 177.000000)"><mask id="mask-26" fill="#fff"><use xlink:href="#path-25"/></mask><g id="Rectangle-2-Copy-9" fill="#FFF9EB" stroke="#BCA68E" stroke-width="4" mask="url(#mask-26)"><rect id="path-25" width="40" height="20" x="0" y="0"/></g></g><g id="Group-Copy-7" fill="#417505" transform="translate(226.500000, 184.500000) rotate(270.000000) translate(-226.500000, -184.500000) translate(222.000000, 180.000000)"><polyline id="Fill-72" points="5.5 5.511 4.634 4.5 5.5 3.489 5.5 1 2.505 4.497 2.5 4.497 2.503 4.5 2.5 4.503 2.505 4.503 5.5 8 5.5 5.511"/><path id="Fill-73" d="M4.5,1.09755648 C2.62387766,1.09755648 1.09755648,2.62406215 1.09755648,4.5 C1.09755648,6.37612234 2.62387766,7.90244352 4.5,7.90244352 C6.37612234,7.90244352 7.90244352,6.37612234 7.90244352,4.5 C7.90244352,2.62406215 6.37612234,1.09755648 4.5,1.09755648 L4.5,1.09755648 L4.5,1.09755648 Z M4.5,9 C2.01855192,9 -1.26217745e-29,6.98144808 -1.26217745e-29,4.5 C-1.26217745e-29,2.01873642 2.01855192,0 4.5,0 C6.98126358,0 9,2.01873642 9,4.5 C9,6.98144808 6.98126358,9 4.5,9 L4.5,9 L4.5,9 Z"/></g><g id="Group-Copy-6" fill="#417505" transform="translate(203.500000, 76.500000) rotate(270.000000) translate(-203.500000, -76.500000) translate(199.000000, 72.000000)"><polyline id="Fill-72" points="5.5 5.511 4.634 4.5 5.5 3.489 5.5 1 2.505 4.497 2.5 4.497 2.503 4.5 2.5 4.503 2.505 4.503 5.5 8 5.5 5.511"/><path id="Fill-73" d="M4.5,1.09755648 C2.62387766,1.09755648 1.09755648,2.62406215 1.09755648,4.5 C1.09755648,6.37612234 2.62387766,7.90244352 4.5,7.90244352 C6.37612234,7.90244352 7.90244352,6.37612234 7.90244352,4.5 C7.90244352,2.62406215 6.37612234,1.09755648 4.5,1.09755648 L4.5,1.09755648 L4.5,1.09755648 Z M4.5,9 C2.01855192,9 0,6.98144808 0,4.5 C0,2.01873642 2.01855192,0 4.5,0 C6.98126358,0 9,2.01873642 9,4.5 C9,6.98144808 6.98126358,9 4.5,9 L4.5,9 L4.5,9 Z"/></g><path id="Line-Copy-2" fill="#EE6B47" stroke="#EE6B47" stroke-width="2" d="M187.5,41.5 L208.5,62.5"/><polygon id="Line-Copy-2-decoration-1" fill="#EE6B47" stroke="#EE6B47" stroke-width="2" points="208.5 62.5 202.985 52.742 198.742 56.985"/><path id="Line" fill="#EE6B47" fill-rule="nonzero" d="M367.026599,89.8074683 L370.905564,94.6561738 L369.343826,95.9055639 L365.464862,91.0568584 L360.779649,94.8050287 L357.5,79.5 L371.711812,86.059298 L367.026599,89.8074683 Z"/></g></g></svg>