<svg xmlns="http://www.w3.org/2000/svg" xmlns:xlink="http://www.w3.org/1999/xlink" width="463" height="204" version="1.1" viewBox="0 0 463 204"><title>garbage-collection-1.svg</title><desc>Created with sketchtool.</desc><defs><rect id="path-1" width="80" height="28" x="0" y="0"/><rect id="path-3" width="40" height="20" x="0" y="0"/><rect id="path-5" width="40" height="20" x="0" y="0"/><rect id="path-7" width="40" height="20" x="0" y="0"/><rect id="path-9" width="40" height="20" x="0" y="0"/><rect id="path-11" width="40" height="20" x="0" y="0"/><rect id="path-13" width="40" height="20" x="0" y="0"/><rect id="path-15" width="40" height="20" x="0" y="0"/><rect id="path-17" width="40" height="20" x="0" y="0"/><rect id="path-19" width="40" height="20" x="0" y="0"/><rect id="path-21" width="40" height="20" x="0" y="0"/><rect id="path-23" width="40" height="20" x="0" y="0"/></defs><g id="garbage-collection" fill="none" fill-rule="evenodd" stroke="none" stroke-width="1"><g id="garbage-collection-1.svg"><g id="Rectangle-1-Clipped" transform="translate(106.000000, 8.000000)"><mask id="mask-2" fill="#fff"><use xlink:href="#path-1"/></mask><g id="Rectangle-1" fill="#FFF9EB" stroke="#E8C48E" stroke-width="4" mask="url(#mask-2)"><rect id="path-1" width="80" height="28" x="0" y="0"/></g></g><text id="&lt;global&gt;" fill="#8A704D" font-family="PTMono-Regular, PT Mono" font-size="14" font-weight="normal"><tspan x="115" y="26">&lt;global&gt;</tspan></text><g id="Rectangle-2-Clipped" transform="translate(360.000000, 99.000000)"><mask id="mask-4" fill="#fff"><use xlink:href="#path-3"/></mask><g id="Rectangle-2" fill="#FFF9EB" fill-opacity=".8" stroke="#BCA68E" stroke-width="4" mask="url(#mask-4)"><rect id="path-3" width="40" height="20" x="0" y="0"/></g></g><g id="Rectangle-2-Copy-2-Clipped" transform="translate(267.000000, 99.000000)"><mask id="mask-6" fill="#fff"><use xlink:href="#path-5"/></mask><g id="Rectangle-2-Copy-2" fill="#FFF9EB" fill-opacity=".8" stroke="#BCA68E" stroke-width="4" mask="url(#mask-6)"><rect id="path-5" width="40" height="20" x="0" y="0"/></g></g><g id="Rectangle-2-Copy-2-Clipped" transform="translate(126.000000, 79.000000)"><mask id="mask-8" fill="#fff"><use xlink:href="#path-7"/></mask><g id="Rectangle-2-Copy-2" fill="#FFF9EB" stroke="#BCA68E" stroke-width="4" mask="url(#mask-8)"><rect id="path-7" width="40" height="20" x="0" y="0"/></g></g><g id="Rectangle-2-Copy-Clipped" transform="translate(313.000000, 53.000000)"><mask id="mask-10" fill="#fff"><use xlink:href="#path-9"/></mask><g id="Rectangle-2-Copy" fill="#FFF9EB" fill-opacity=".8" stroke="#BCA68E" stroke-width="4" mask="url(#mask-10)"><rect id="path-9" width="40" height="20" x="0" y="0"/></g></g><g id="Rectangle-2-Copy-3-Clipped" transform="translate(176.000000, 129.000000)"><mask id="mask-12" fill="#fff"><use xlink:href="#path-11"/></mask><g id="Rectangle-2-Copy-3" fill="#FFF9EB" stroke="#BCA68E" stroke-width="4" mask="url(#mask-12)"><rect id="path-11" width="40" height="20" x="0" y="0"/></g></g><g id="Rectangle-2-Copy-8-Clipped" transform="translate(196.000000, 69.000000)"><mask id="mask-14" fill="#fff"><use xlink:href="#path-13"/></mask><g id="Rectangle-2-Copy-8" fill="#FFF9EB" stroke="#BCA68E" stroke-width="4" mask="url(#mask-14)"><rect id="path-13" width="40" height="20" x="0" y="0"/></g></g><g id="Rectangle-2-Copy-4-Clipped" transform="translate(128.000000, 139.000000)"><mask id="mask-16" fill="#fff"><use xlink:href="#path-15"/></mask><g id="Rectangle-2-Copy-4" fill="#FFF9EB" stroke="#BCA68E" stroke-width="4" mask="url(#mask-16)"><rect id="path-15" width="40" height="20" x="0" y="0"/></g></g><g id="Rectangle-2-Copy-5-Clipped" transform="translate(76.000000, 131.000000)"><mask id="mask-18" fill="#fff"><use xlink:href="#path-17"/></mask><g id="Rectangle-2-Copy-5" fill="#FFF9EB" stroke="#BCA68E" stroke-width="4" mask="url(#mask-18)"><rect id="path-17" width="40" height="20" x="0" y="0"/></g></g><g id="Rectangle-2-Copy-6-Clipped" transform="translate(76.000000, 71.000000)"><mask id="mask-20" fill="#fff"><use xlink:href="#path-19"/></mask><g id="Rectangle-2-Copy-6" fill="#FFF9EB" stroke="#BCA68E" stroke-width="4" mask="url(#mask-20)"><rect id="path-19" width="40" height="20" x="0" y="0"/></g></g><g id="Rectangle-2-Copy-7-Clipped" transform="translate(27.000000, 57.000000)"><mask id="mask-22" fill="#fff"><use xlink:href="#path-21"/></mask><g id="Rectangle-2-Copy-7" fill="#FFF9EB" stroke="#BCA68E" stroke-width="4" mask="url(#mask-22)"><rect id="path-21" width="40" height="20" x="0" y="0"/></g></g><path id="Line" fill="#EE6B47" stroke="#EE6B47" stroke-width="2" d="M148.5,40.5 L148.5,71.5"/><polygon id="Line-decoration-1" fill="#EE6B47" stroke="#EE6B47" stroke-width="2" points="148.5 71.5 151.5 60.7 145.5 60.7"/><path id="Line-Copy" fill="#EE6B47" stroke="#EE6B47" stroke-width="2" d="M148.5,105.5 L148.5,129.5"/><polygon id="Line-Copy-decoration-1" fill="#EE6B47" stroke="#EE6B47" stroke-width="2" points="148.5 129.5 151.5 118.7 145.5 118.7"/><path id="Line-2" fill="#EE6B47" fill-opacity=".8" stroke="#EE6B47" stroke-width="2" d="M319.5,77.5 L300.5,93.5"/><polygon id="Line-2-decoration-1" fill="#EE6B47" fill-opacity=".8" stroke="#EE6B47" stroke-width="2" points="300.5 93.5 310.693 88.838 306.829 84.249"/><path id="Line-2" fill="#EE6B47" stroke="#EE6B47" stroke-width="2" d="M127.5,47.5 L108.5,63.5"/><polygon id="Line-2-decoration-1" fill="#EE6B47" stroke="#EE6B47" stroke-width="2" points="108.5 63.5 118.693 58.838 114.829 54.249"/><path id="Line-2-Copy-2" fill="#EE6B47" stroke="#EE6B47" stroke-width="2" d="M97.5,42.5 L74.5,51.5"/><polygon id="Line-2-Copy-2-decoration-1" fill="#EE6B47" stroke="#EE6B47" stroke-width="2" points="74.5 51.5 85.651 50.358 83.464 44.771"/><path id="Line-2-Copy" fill="#EE6B47" stroke="#EE6B47" stroke-width="2" d="M133.5,107.5 L114.5,123.5"/><polygon id="Line-2-Copy-decoration-1" fill="#EE6B47" stroke="#EE6B47" stroke-width="2" points="114.5 123.5 124.693 118.838 120.829 114.249"/><path id="Line" fill="#EE6B47" stroke="#EE6B47" stroke-width="2" d="M313.070628,109.5 L352.425466,109.5"/><polygon id="Line-decoration-1" fill="#EE6B47" stroke="#EE6B47" stroke-width="2" points="352.425 109.5 341.625 106.5 341.625 112.5"/><path id="Line" fill="#EE6B47" stroke="#EE6B47" stroke-width="2" d="M170.5,107.5 L188.5,122.5"/><polygon id="Line-decoration-1" fill="#EE6B47" stroke="#EE6B47" stroke-width="2" points="188.5 122.5 182.124 113.281 178.283 117.891"/><path id="Line-Copy-6" fill="#EE6B47" stroke="#EE6B47" stroke-width="2" d="M202.5,154.5 L220.5,169.5"/><polygon id="Line-Copy-6-decoration-1" fill="#EE6B47" stroke="#EE6B47" stroke-width="2" points="220.5 169.5 214.124 160.281 210.283 164.891"/><path id="Line-Copy-5" fill="#EE6B47" stroke="#EE6B47" stroke-width="2" d="M170.5,87.5 L190.5,80.5"/><polygon id="Line-Copy-5-decoration-1" fill="#EE6B47" stroke="#EE6B47" stroke-width="2" points="190.5 80.5 179.315 81.236 181.297 86.899"/><path id="Line-Copy-4" fill="#EE6B47" stroke="#EE6B47" stroke-width="2" d="M209.5,120.5 L223.5,98.5"/><polygon id="Line-Copy-4-decoration-1" fill="#EE6B47" stroke="#EE6B47" stroke-width="2" points="223.5 98.5 215.171 106.001 220.233 109.222"/><path id="Line-Copy-3" fill="#EE6B47" stroke="#EE6B47" stroke-width="2" d="M46.5,82.5 L78.5,122.5"/><polygon id="Line-Copy-3-decoration-1" fill="#EE6B47" stroke="#EE6B47" stroke-width="2" points="78.5 122.5 74.096 112.193 69.411 115.941"/><g id="Rectangle-2-Copy-9-Clipped" transform="translate(219.000000, 177.000000)"><mask id="mask-24" fill="#fff"><use xlink:href="#path-23"/></mask><g id="Rectangle-2-Copy-9" fill="#FFF9EB" stroke="#BCA68E" stroke-width="4" mask="url(#mask-24)"><rect id="path-25" width="40" height="20" x="0" y="0"/></g></g><path id="Line-Copy-2" fill="#EE6B47" stroke="#EE6B47" stroke-width="2" d="M187.5,41.5 L208.5,62.5"/><polygon id="Line-Copy-2-decoration-1" fill="#EE6B47" stroke="#EE6B47" stroke-width="2" points="208.5 62.5 202.985 52.742 198.742 56.985"/><path id="Line-Copy" fill="#EE6B47" fill-rule="nonzero" d="M367.026599,89.8074683 L370.905564,94.6561738 L369.343826,95.9055639 L365.464862,91.0568584 L360.779649,94.8050287 L357.5,79.5 L371.711812,86.059298 L367.026599,89.8074683 Z"/></g></g></svg>