<svg xmlns="http://www.w3.org/2000/svg" xmlns:xlink="http://www.w3.org/1999/xlink" width="260" height="130" version="1.1" viewBox="0 0 260 130"><title>bezier-car.svg</title><desc>Created with sketchtool.</desc><g id="animation" fill="none" fill-rule="evenodd" stroke="none" stroke-width="1"><g id="bezier-car.svg" stroke="#000"><g id="car" transform="translate(20.000000, 12.000000)"><path id="Shape" fill="silver" stroke-width="2" d="M3.5483871,89.7419355 C-8.27956989,60.9784946 15.3763441,43.7204301 74.516129,37.9677419 C80.4301075,26.4623656 83.3870968,14.9569892 83.3870968,3.4516129 C183.924731,-8.05376344 228.27957,20.7096774 216.451613,89.7419355 L3.5483871,89.7419355 Z"/><g id="crvpnt-link" fill="#D3D3D3" transform="translate(0.000000, 86.290323)"><ellipse id="crvpnt" cx="3.548" cy="3.452" rx="3.548" ry="3.452"/></g><g id="crvpnt-link" fill="#D3D3D3" transform="translate(70.967742, 34.516129)"><ellipse id="crvpnt" cx="3.548" cy="3.452" rx="3.548" ry="3.452"/></g><g id="crvpnt-link" fill="#D3D3D3" transform="translate(79.838710, 0.000000)"><ellipse id="crvpnt" cx="3.548" cy="3.452" rx="3.548" ry="3.452"/></g><g id="crvpnt-link" fill="#D3D3D3" transform="translate(212.903226, 86.290323)"><ellipse id="crvpnt" cx="3.548" cy="3.452" rx="3.548" ry="3.452"/></g><g id="wheel-link" fill="#D3D3D3" stroke-width="5" transform="translate(39.032258, 72.483871)"><ellipse id="wheel" cx="17.742" cy="17.258" rx="17.742" ry="17.258"/></g><g id="wheel-link" fill="#D3D3D3" stroke-width="5" transform="translate(154.354839, 72.483871)"><ellipse id="wheel" cx="17.742" cy="17.258" rx="17.742" ry="17.258"/></g></g></g></g></svg>