<svg xmlns="http://www.w3.org/2000/svg" xmlns:xlink="http://www.w3.org/1999/xlink" width="166" height="173" version="1.1" viewBox="0 0 166 173"><title>bezier-letter.svg</title><desc>Created with sketchtool.</desc><g id="animation" fill="none" fill-rule="evenodd" stroke="none" stroke-width="1"><g id="bezier-letter.svg"><g id="blue-zones" transform="translate(13.000000, 3.000000)"><g id="g10" transform="translate(74.667210, 82.907153) scale(1, -1) translate(-74.667210, -82.907153) translate(0.167210, 0.907153)"><g id="g12" transform="translate(0.082789, 0.014893)"><g id="g14" transform="translate(0.000000, 0.000000)"><g id="g24" transform="translate(0.000000, 0.778344)"><path id="path30" fill="#B3B3B3" d="M94.1950078,31.5813173 C95.4706172,17.7726644 104.08103,3.27358276 119.069517,3.27358276 C125.766502,3.27358276 145.219636,8.10661506 145.219636,36.0691123 L145.219636,55.4012263 L137.247042,55.4012263 L137.247042,36.0691123 C137.247042,16.0465847 129.274434,13.975283 125.766502,13.975283 C115.242661,13.975283 113.967052,29.5100156 113.967052,31.2360953 L113.967052,100.279314 C113.967052,114.778396 113.967052,128.241826 102.486511,141.014828 C90.0492562,154.478259 74.1040547,160.001705 58.7966719,160.001705 C32.6465531,160.001705 10.6421719,143.776559 10.6421719,120.992285 C10.6421719,110.635807 17.0202609,104.767124 25.31175,104.767124 C34.2410719,104.767124 39.9813422,111.671458 39.9813422,120.647079 C39.9813422,124.789667 38.3868234,136.181796 23.7172453,136.527018 C32.3276438,148.609576 47.9539359,152.406957 58.1588672,152.406957 C73.7851594,152.406957 91.9626844,138.943527 91.9626844,108.219283 L91.9626844,95.4462967 C75.6985734,94.4106459 53.3752969,93.374995 33.2843578,83.0185168 C9.3665625,71.2811657 1.39396875,53.3299246 1.39396875,38.1404141 C1.39396875,10.1779168 32.3276437,1.54750305 52.4185969,1.54750305 C73.46625,1.54750305 88.1358281,15.3561407 94.1950078,31.5813173 L94.1950078,31.5813173 Z"/><path id="path32" fill="#FFF" d="M91.9626844,88.1967559 L91.9626844,53.6751466 C91.9626844,20.879617 69.0016031,9.14226592 54.6509203,9.14226592 C39.0246281,9.14226592 25.9495688,21.2248238 25.9495688,38.4856361 C25.9495688,57.4725281 39.3435375,86.1254542 91.9626844,88.1967559 L91.9626844,88.1967559 Z"/><polygon id="path34" fill="#000" points="93.07 30.363 95.32 30.363 95.32 32.799 93.07 32.799"/><polygon id="path36" fill="#000" points="117.945 2.056 120.195 2.056 120.195 4.491 117.945 4.491"/><polygon id="path38" fill="#000" points="144.095 34.851 146.345 34.851 146.345 37.287 144.095 37.287"/><polygon id="path40" fill="#000" points="144.095 54.183 146.345 54.183 146.345 56.619 144.095 56.619"/><polygon id="path42" fill="#000" points="136.122 54.183 138.372 54.183 138.372 56.619 136.122 56.619"/><polygon id="path44" fill="#000" points="136.122 34.851 138.372 34.851 138.372 37.287 136.122 37.287"/><polygon id="path46" fill="#000" points="124.641 12.757 126.892 12.757 126.892 15.193 124.641 15.193 124.641 12.757"/><polygon id="path48" fill="#000" points="112.842 30.018 115.092 30.018 115.092 32.454 112.842 32.454"/><polygon id="path50" fill="#000" points="112.842 99.061 115.092 99.061 115.092 101.497 112.842 101.497"/><polygon id="path52" fill="#000" points="101.362 139.797 103.612 139.797 103.612 142.233 101.362 142.233"/><polygon id="path54" fill="#000" points="57.672 158.784 59.922 158.784 59.922 161.22 57.672 161.22"/><polygon id="path56" fill="#000" points="9.517 119.774 11.767 119.774 11.767 122.21 9.517 122.21"/><polygon id="path58" fill="#000" points="24.187 103.549 26.437 103.549 26.437 105.985 24.187 105.985"/><polygon id="path60" fill="#000" points="38.856 119.429 41.106 119.429 41.106 121.865 38.856 121.865"/><polygon id="path62" fill="#000" points="22.592 135.309 24.842 135.309 24.842 137.745 22.592 137.745"/><polygon id="path64" fill="#000" points="57.034 151.189 59.284 151.189 59.284 153.625 57.034 153.625"/><polygon id="path66" fill="#000" points="90.838 107.001 93.088 107.001 93.088 109.437 90.838 109.437"/><polygon id="path68" fill="#000" points="90.838 94.228 93.088 94.228 93.088 96.664 90.838 96.664"/><polygon id="path70" fill="#000" points="32.159 81.801 34.409 81.801 34.409 84.236 32.159 84.236 32.159 81.801"/><polygon id="path72" fill="#000" points=".269 36.923 2.519 36.923 2.519 39.358 .269 39.358"/><polygon id="path74" fill="#000" points="51.294 .33 53.544 .33 53.544 2.765 51.294 2.765"/><polygon id="path76" fill="#000" points="93.07 30.363 95.32 30.363 95.32 32.799 93.07 32.799"/><polygon id="path78" fill="#000" points="90.838 86.979 93.088 86.979 93.088 89.415 90.838 89.415"/><polygon id="path80" fill="#000" points="90.838 52.457 93.088 52.457 93.088 54.893 90.838 54.893 90.838 52.457"/><polygon id="path82" fill="#000" points="53.526 7.924 55.776 7.924 55.776 10.36 53.526 10.36"/><polygon id="path84" fill="#000" points="24.825 37.268 27.075 37.268 27.075 39.703 24.825 39.703"/><polygon id="path86" fill="#000" points="90.838 86.979 93.088 86.979 93.088 89.415 90.838 89.415"/></g></g></g></g></g></g></g></svg>