<svg xmlns="http://www.w3.org/2000/svg" xmlns:xlink="http://www.w3.org/1999/xlink" width="514" height="411" version="1.1" viewBox="0 0 514 411"><title>try-catch-flow.svg</title><desc>Created with sketchtool.</desc><g id="combined" fill="none" fill-rule="evenodd" stroke="none" stroke-width="1"><g id="try-catch-flow.svg"><g id="Rectangle-1-+-Корень" transform="translate(207.000000, 4.000000)"><rect id="Rectangle-1" width="78" height="28" x="1" y="1" fill="#FFF9EB" stroke="#E8C48E" stroke-width="2" rx="14"/><text id="Begin" fill="#8A704D" font-family="OpenSans-Regular, Open Sans" font-size="14" font-weight="normal"><tspan x="21" y="20">Begin</tspan></text></g><path id="Line" fill="#EE6B47" fill-rule="nonzero" d="M246,57.0499687 L246,34 L249,34 L249,57.0499687 L257,57.0499687 L247.5,76.0499687 L238,57.0499687 L246,57.0499687 Z"/><path id="Line-Copy" fill="#EE6B47" fill-rule="nonzero" d="M396,320.049969 L396,297 L399,297 L399,320.049969 L407,320.049969 L397.5,339.049969 L388,320.049969 L396,320.049969 Z"/><path id="Path-1218" fill="#EE6B47" fill-rule="nonzero" d="M96.5,219.5 L96.5,131.5 L158.5,131.5 L158.5,134.5 L99.5,134.5 L99.5,219.5 L107.5,219.5 L98,238.5 L88.5,219.5 L96.5,219.5 Z"/><path id="Path-1218-Copy" fill="#EE6B47" fill-rule="nonzero" d="M397.5,219.5 L397.5,134.5 L317,134.5 L315.5,134.5 L315.5,131.5 L400.5,131.5 L400.5,219.5 L408.5,219.5 L399,238.5 L389.5,219.5 L397.5,219.5 Z"/><g id="Rectangle-354-+-Каково-“официальное”" fill="#FFF9EB" stroke="#E8C48E" stroke-width="2" transform="translate(154.000000, 81.000000)"><path id="Rectangle-354" d="M2.05929887,52 L93.6102814,102.856071 L185.161264,52 L93.6102814,1.14392927 L2.05929887,52 Z"/></g><g id="Rectangle-356-+-Отмена" transform="translate(59.000000, 177.000000)"><rect id="Rectangle-356" width="60" height="20" x="0" y="2" fill="#FFF"/><text id="No-Errors" fill="#8A704D" font-family="OpenSans-Regular, Open Sans" font-size="14" font-weight="normal"><tspan x="7.5" y="15">No Errors</tspan></text></g><g id="Rectangle-356-Copy-+-“Админ”" transform="translate(303.000000, 176.000000)"><rect id="Rectangle-356-Copy" width="60" height="20" x="65" y="2" fill="#FFF"/><text id="An-error-occured-in" fill="#8A704D" font-family="OpenSans-Regular, Open Sans" font-size="14" font-weight="normal"><tspan x=".932" y="15">An error occured in the code</tspan></text></g><rect id="Rectangle-1-Copy-2" width="214" height="49" x="292" y="349" fill="#FFF9EB" stroke="#E8C48E" stroke-width="2" rx="24.5"/><rect id="Rectangle-1" width="195" height="49" x="1" y="244" fill="#FFF9EB" stroke="#E8C48E" stroke-width="2" rx="24.5"/><rect id="Rectangle-1-Copy" width="216" height="49" x="290" y="244" fill="#FFF9EB" stroke="#E8C48E" stroke-width="2" rx="24.5"/><text id="Ignore-catch-block" fill="#8A704D" font-family="OpenSans-Regular, Open Sans" font-size="14" font-weight="normal"><tspan x="39" y="272">Ignore catch block</tspan></text><text id="Ignore-the-rest-of-t" fill="#8A704D" font-family="OpenSans-Regular, Open Sans" font-size="14" font-weight="normal"><tspan x="332" y="272">Ignore the rest of try</tspan></text><text id="Execute-catch-block" fill="#8A704D" font-family="OpenSans-Regular, Open Sans" font-size="14" font-weight="normal"><tspan x="333" y="379">Execute catch block</tspan></text><text id="try-{-}" fill="#8A704D" font-family="PTMono-Regular, PT Mono" font-size="14" font-weight="normal" line-spacing="10"><tspan x="218" y="117">try {</tspan> <tspan x="218" y="157">}</tspan></text><text id="//-code..." fill="#8A704D" font-family="PTMono-Regular, PT Mono" font-size="14" font-weight="normal" line-spacing="10"><tspan x="232" y="138">// code...</tspan></text></g></g></svg>