<svg xmlns="http://www.w3.org/2000/svg" xmlns:xlink="http://www.w3.org/1999/xlink" width="512" height="246" version="1.1" viewBox="0 0 512 246"><title>promise-resolve-reject.svg</title><desc>Created with sketchtool.</desc><g id="promise" fill="none" fill-rule="evenodd" stroke="none" stroke-width="1"><g id="promise-resolve-reject.svg"><rect id="Rectangle-1" width="170" height="70" x="9" y="91" fill="#FFF9EB" stroke="#E8C48E" stroke-width="2"/><text id="new-Promise(executor" fill="#707175" font-family="PTMono-Regular, PT Mono" font-size="14" font-weight="normal"><tspan x="10" y="82">new Promise(executor)</tspan></text><text id="state:-&quot;pending&quot;-res" fill="#8A704D" font-family="PTMono-Regular, PT Mono" font-size="14" font-weight="normal" line-spacing="20"><tspan x="21" y="115.432">state: &quot;pending&quot;</tspan> <tspan x="21" y="135.432">result: undefined</tspan></text><path id="Line" fill="#EE6B47" fill-rule="nonzero" d="M299.865748,184.482759 L195.673354,136.489909 L196.510091,134.673354 L300.702485,182.666204 L303.212697,177.21654 L313,189.431641 L297.355537,189.932423 L299.865748,184.482759 Z"/><path id="Line-Copy" fill="#EE6B47" fill-rule="nonzero" d="M300.492513,63.3688916 L196.467935,107.310308 L195.689692,105.467935 L299.71427,61.5265189 L297.379539,55.9994011 L313,57 L302.827244,68.8960094 L300.492513,63.3688916 Z"/><text id="resolve(value)" fill="#EE6B47" font-family="PTMono-Regular, PT Mono" font-size="14" font-weight="normal" transform="translate(244.389895, 72.629682) rotate(-23.000000) translate(-244.389895, -72.629682)"><tspan x="185.59" y="77.13">resolve(value)</tspan></text><text id="reject(error)" fill="#EE6B47" font-family="PTMono-Regular, PT Mono" font-size="14" font-weight="normal" transform="translate(251.633927, 150.640538) rotate(25.000000) translate(-251.633927, -150.640538)"><tspan x="197.034" y="155.141">reject(error)</tspan></text><rect id="Rectangle-1-Copy" width="182" height="64" x="323" y="10" fill="#FFF9EB" stroke="#7ED321" stroke-width="2"/><text id="state:-&quot;fulfilled&quot;-r" fill="#417505" font-family="PTMono-Regular, PT Mono" font-size="14" font-weight="normal" line-spacing="20"><tspan x="338" y="34.432">state: &quot;fulfilled&quot;</tspan> <tspan x="338" y="54.432">result: value</tspan></text><rect id="Rectangle-1-Copy-3" width="182" height="64" x="323" y="177" fill="#FCDFE1" stroke="#C74A6C" stroke-width="2"/><text id="state:-&quot;rejected&quot;-re" fill="#727155" font-family="PTMono-Regular, PT Mono" font-size="14" font-weight="normal" line-spacing="20"><tspan x="338" y="201.432">state: &quot;rejected&quot;</tspan> <tspan x="338" y="221.432">result: error</tspan></text></g></g></svg>