<svg xmlns="http://www.w3.org/2000/svg" xmlns:xlink="http://www.w3.org/1999/xlink" width="233" height="150" version="1.1" viewBox="0 0 233 150"><title>mouseover-to-child.svg</title><desc>Created with sketchtool.</desc><g id="dom" fill="none" fill-rule="evenodd" stroke="none" stroke-width="1"><g id="mouseover-to-child.svg"><rect id="Rectangle-7" width="210" height="115" x="13" y="15" fill="#FFF9EB" stroke="#E8C48E" stroke-width="2"/><text id="#FROM" fill="#8A704D" font-family="OpenSans-Bold, Open Sans" font-size="14" font-weight="bold"><tspan x="18.514" y="31">#FROM</tspan></text><rect id="Rectangle-6" width="67" height="34" x="141" y="65" fill="#FFF9EB" stroke="#E8C48E" stroke-width="2"/><text id="#TO" fill="#8A704D" font-family="OpenSans-Bold, Open Sans" font-size="14" font-weight="bold"><tspan x="159.997" y="88">#TO</tspan></text><path id="Fill-54" fill="#EE6B47" stroke="#EE6B47" stroke-linecap="square" stroke-width="3" d="M150,83.0279175 C150,83.0279175 134.824497,73.7186483 124.752316,70 C124.5079,71.5378926 124.264184,73.074982 124.019768,74.6120715 C107.511532,73.7507714 90.7455739,75.0256562 75,78.436726 C77.0169574,81.4976542 79.0339148,84.5581808 81.0508721,87.6187075 C94.3543869,84.7368655 108.520011,83.6599391 122.467831,84.3875269 C122.223415,85.9254195 121.978999,87.462509 121.735284,89 C129.836729,86.2297857 150,83.0279175 150,83.0279175"/><text id="mouseover" fill="#8A704D" font-family="PTMono-Bold, PT Mono" font-size="14" font-weight="bold"><tspan x="138" y="59">mouseover</tspan></text><text id="mouseout" fill="#8A704D" font-family="PTMono-Bold, PT Mono" font-size="14" font-weight="bold"><tspan x="39" y="70">mouseout</tspan></text></g></g></svg>