<svg xmlns="http://www.w3.org/2000/svg" xmlns:xlink="http://www.w3.org/1999/xlink" width="610" height="633" version="1.1" viewBox="0 0 610 633"><title>xhr-preflight.svg</title><desc>Created with sketchtool.</desc><g id="network" fill="none" fill-rule="evenodd" stroke="none" stroke-width="1"><g id="xhr-preflight.svg"><rect id="Rectangle-227" width="128" height="64" x="1" y="16" fill="#FFF9EB" stroke="#E8C48E" stroke-width="2"/><text id="JavaScript" fill="#8A704D" font-family="OpenSans-Regular, Open Sans" font-size="14" font-weight="normal"><tspan x="33" y="50">JavaScript</tspan></text><rect id="Rectangle-228" width="128" height="64" x="240" y="16" fill="#FFF9EB" stroke="#E8C48E" stroke-width="2"/><text id="Browser" fill="#8A704D" font-family="OpenSans-Regular, Open Sans" font-size="14" font-weight="normal"><tspan x="278" y="48">Browser</tspan></text><rect id="Rectangle-229" width="128" height="64" x="480" y="16" fill="#FFF9EB" stroke="#E8C48E" stroke-width="2"/><text id="Server" fill="#8A704D" font-family="OpenSans-Regular, Open Sans" font-size="14" font-weight="normal"><tspan x="523" y="50">Server</tspan></text><path id="Line" stroke="#979797" stroke-linecap="square" d="M66,82 L66,602"/><path id="Line" stroke="#979797" stroke-linecap="square" d="M305,82 L305,602"/><path id="Line" stroke="#979797" stroke-linecap="square" d="M545,82 L545,602"/><path id="Line" fill="#EE6B47" fill-rule="nonzero" d="M287.5,140.5 L66.5,140.5 L66.5,138.5 L287.5,138.5 L287.5,132.5 L301.5,139.5 L287.5,146.5 L287.5,140.5 Z"/><text id="fetch()" fill="#8A704D" font-family="OpenSans-Regular, Open Sans" font-size="14" font-weight="normal"><tspan x="164" y="130">fetch()</tspan></text><text id="OPTIONS-Origin-Acces" fill="#8A704D" font-family="OpenSans-Regular, Open Sans" font-size="14" font-weight="normal" line-spacing="18"><tspan x="395.001" y="174">OPTIONS</tspan> <tspan x="405.081" y="192">Origin</tspan> <tspan x="320.366" y="210">Access-Control-Request-Method</tspan> <tspan x="318.5" y="228">Access-Control-Request-Headers</tspan></text><path id="Line" fill="#EE6B47" fill-rule="nonzero" d="M528.5,293.5 L307.5,293.5 L307.5,291.5 L528.5,291.5 L528.5,285.5 L542.5,292.5 L528.5,299.5 L528.5,293.5 Z"/><text id="200-OK" fill="#8A704D" font-family="OpenSans-Regular, Open Sans" font-size="14" font-weight="normal" line-spacing="18"><tspan x="402.914" y="287">200 OK</tspan> <tspan x="330.866" y="305">Access-Control-Allow-Method</tspan> <tspan x="329" y="323">Access-Control-Allow-Headers</tspan> <tspan x="347.83" y="341">Access-Control-Max-Age</tspan></text><path id="Line-4" fill="#EE6B47" fill-rule="nonzero" d="M527.5,180.5 L306.5,180.5 L306.5,178.5 L527.5,178.5 L527.5,172.5 L541.5,179.5 L527.5,186.5 L527.5,180.5 Z"/><path id="Line-2" fill="#EE6B47" fill-rule="nonzero" d="M322.5,500.5 L543.5,500.5 L543.5,502.5 L322.5,502.5 L322.5,508.5 L308.5,501.5 L322.5,494.5 L322.5,500.5 Z"/><path id="Line-3" fill="#EE6B47" fill-rule="nonzero" d="M90,552 L304,552 L304,555 L90,555 L90,563 L71,553.5 L90,544 L90,552 Z"/><text id="Access-Control-Allow" fill="#8A704D" font-family="OpenSans-Regular, Open Sans" font-size="14" font-weight="normal" line-spacing="18"><tspan x="336" y="524">Access-Control-Allow-Origin</tspan></text><text id="Main-HTTP-response" fill="#8A704D" font-family="OpenSans-Regular, Open Sans" font-size="14" font-weight="normal" line-spacing="18"><tspan x="355" y="495">Main HTTP-response</tspan></text><text id="otherwise-error" fill="#8A704D" font-family="OpenSans-Regular, Open Sans" font-size="14" font-weight="normal" line-spacing="18"><tspan x="130" y="569">otherwise error</tspan></text><text id="if-allowed:-success," fill="#8A704D" font-family="OpenSans-Regular, Open Sans" font-size="14" font-weight="normal" line-spacing="18"><tspan x="116" y="545">if allowed: success,</tspan></text><path id="Line-5" fill="#EE6B47" fill-rule="nonzero" d="M527.5,436.5 L306.5,436.5 L306.5,434.5 L527.5,434.5 L527.5,428.5 L541.5,435.5 L527.5,442.5 L527.5,436.5 Z"/><text id="Origin" fill="#8A704D" font-family="OpenSans-Regular, Open Sans" font-size="14" font-weight="normal" line-spacing="18"><tspan x="405" y="456">Origin</tspan></text><text id="Main-HTTP-request" fill="#8A704D" font-family="OpenSans-Regular, Open Sans" font-size="14" font-weight="normal" line-spacing="18"><tspan x="360" y="425">Main HTTP-request</tspan></text><text id="preflight" fill="#9B9B9B" font-family="OpenSans-Regular, Open Sans" font-size="24" font-weight="normal"><tspan x="205.943" y="186">preflight</tspan></text><text id="if-allowed" fill="#9B9B9B" font-family="OpenSans-Regular, Open Sans" font-size="24" font-weight="normal"><tspan x="193.609" y="441">if allowed</tspan></text><text id="1" fill="#000" font-family="OpenSans-Regular, Open Sans" font-size="24" font-weight="normal"><tspan x="559.139" y="186">1</tspan></text><text id="2" fill="#000" font-family="OpenSans-Regular, Open Sans" font-size="24" font-weight="normal"><tspan x="559.139" y="302">2</tspan></text><text id="3" fill="#000" font-family="OpenSans-Regular, Open Sans" font-size="24" font-weight="normal"><tspan x="559.139" y="443">3</tspan></text><text id="4" fill="#000" font-family="OpenSans-Regular, Open Sans" font-size="24" font-weight="normal"><tspan x="559.139" y="509">4</tspan></text></g></g></svg>