<svg xmlns="http://www.w3.org/2000/svg" xmlns:xlink="http://www.w3.org/1999/xlink" width="610" height="411" version="1.1" viewBox="0 0 610 411"><title>xhr-another-domain.svg</title><desc>Created with sketchtool.</desc><g id="network" fill="none" fill-rule="evenodd" stroke="none" stroke-width="1"><g id="xhr-another-domain.svg"><rect id="Rectangle-227" width="128" height="64" x="2" y="16" fill="#FFF9EB" stroke="#E8C48E" stroke-width="2"/><text id="JavaScript" fill="#8A704D" font-family="OpenSans-Regular, Open Sans" font-size="14" font-weight="normal"><tspan x="36" y="50">JavaScript</tspan></text><rect id="Rectangle-228" width="128" height="64" x="238" y="16" fill="#FFF9EB" stroke="#E8C48E" stroke-width="2"/><text id="Browser" fill="#8A704D" font-family="OpenSans-Regular, Open Sans" font-size="14" font-weight="normal"><tspan x="273" y="50">Browser</tspan></text><rect id="Rectangle-229" width="128" height="64" x="481" y="16" fill="#FFF9EB" stroke="#E8C48E" stroke-width="2"/><text id="Server" fill="#8A704D" font-family="OpenSans-Regular, Open Sans" font-size="14" font-weight="normal"><tspan x="521" y="50">Server</tspan></text><path id="Line" stroke="#979797" stroke-linecap="square" d="M67,81 L67,401"/><path id="Line" stroke="#979797" stroke-linecap="square" d="M303,81 L303,401"/><path id="Line" stroke="#979797" stroke-linecap="square" d="M546,81 L546,401"/><path id="Line" fill="#EE6B47" fill-rule="nonzero" d="M284,141 L67,141 L67,139 L284,139 L284,133 L298,140 L284,147 L284,141 Z"/><text id="Origin:-https://java" fill="#8A704D" font-family="OpenSans-Regular, Open Sans" font-size="14" font-weight="normal" line-spacing="26"><tspan x="331.313" y="206">Origin: https://javascript.info</tspan></text><text id="HTTP-request" fill="#8A704D" font-family="OpenSans-Regular, Open Sans" font-size="14" font-weight="normal" line-spacing="26"><tspan x="378.015" y="169">HTTP-request</tspan></text><text id="fetch()" fill="#8A704D" font-family="OpenSans-Regular, Open Sans" font-size="14" font-weight="normal"><tspan x="154" y="128">fetch()</tspan></text><text id="HTTP-response" fill="#8A704D" font-family="OpenSans-Regular, Open Sans" font-size="14" font-weight="normal" line-spacing="27"><tspan x="374.919" y="250">HTTP-response</tspan></text><text id="Access-Control-Allow" fill="#8A704D" font-family="OpenSans-Regular, Open Sans" font-size="14" font-weight="normal" line-spacing="18"><tspan x="332" y="288">Access-Control-Allow-Origin: </tspan> <tspan x="337.13" y="306">* OR https://javascript.info</tspan></text><text id="if-the-header-allows" fill="#8A704D" font-family="OpenSans-Regular, Open Sans" font-size="14" font-weight="normal" line-spacing="18"><tspan x="92" y="322">if the header allows, success,</tspan></text><text id="otherwise-fail" fill="#8A704D" font-family="OpenSans-Regular, Open Sans" font-size="14" font-weight="normal" line-spacing="18"><tspan x="142" y="356">otherwise fail</tspan></text><path id="Line" fill="#EE6B47" fill-rule="nonzero" d="M531,188 L305,188 L305,186 L531,186 L531,180 L545,187 L531,194 L531,188 Z"/><path id="Line-2" fill="#EE6B47" fill-rule="nonzero" d="M317,264 L545,264 L545,266 L317,266 L317,272 L303,265 L317,258 L317,264 Z"/><path id="Line-3" fill="#EE6B47" fill-rule="nonzero" d="M85,332 L302,332 L302,334 L85,334 L85,340 L71,333 L85,326 L85,332 Z"/></g></g></svg>