<svg xmlns="http://www.w3.org/2000/svg" xmlns:xlink="http://www.w3.org/1999/xlink" width="610" height="175" version="1.1" viewBox="0 0 610 175"><title>array-shift.svg</title><desc>Created with sketchtool.</desc><g id="array" fill="none" fill-rule="evenodd" stroke="none" stroke-width="1"><g id="array-shift.svg"><text id="1" fill="#8A704D" font-family="PTMono-Regular, PT Mono" font-size="14" font-weight="normal"><tspan x="63" y="116.973">1</tspan></text><rect id="Rectangle-3" width="35" height="52" x="84" y="86.973" fill="#FFF9EB" stroke="#E8C48E" stroke-width="2"/><text id="2" fill="#8A704D" font-family="PTMono-Regular, PT Mono" font-size="14" font-weight="normal"><tspan x="99" y="116.973">2</tspan></text><rect id="Rectangle-4" width="35" height="52" x="120" y="86.973" fill="#FFF9EB" stroke="#E8C48E" stroke-width="2"/><text id="3" fill="#8A704D" font-family="PTMono-Regular, PT Mono" font-size="14" font-weight="normal"><tspan x="135" y="116.973">3</tspan></text><text id="&quot;Orange&quot;" fill="#8A704D" font-family="PTMono-Regular, PT Mono" font-size="14" font-weight="normal" transform="translate(60.052814, 49.448100) rotate(-89.000000) translate(-60.052814, -49.448100)"><tspan x="26.053" y="53.948">&quot;Orange&quot;</tspan></text><text id="&quot;Pear&quot;" fill="#8A704D" font-family="PTMono-Regular, PT Mono" font-size="14" font-weight="normal" transform="translate(96.535362, 57.447947) rotate(-89.000000) translate(-96.535362, -57.447947)"><tspan x="71.035" y="61.948">&quot;Pear&quot;</tspan></text><text id="&quot;Lemon&quot;" fill="#8A704D" font-family="PTMono-Regular, PT Mono" font-size="14" font-weight="normal" transform="translate(138.044088, 53.948024) rotate(-89.000000) translate(-138.044088, -53.948024)"><tspan x="108.544" y="58.448">&quot;Lemon&quot;</tspan></text><text id="length-=-4" fill="#8A704D" font-family="PTMono-Regular, PT Mono" font-size="14" font-weight="normal"><tspan x="172" y="63.973">length = 4</tspan></text><rect id="Rectangle-8" width="35" height="52" x="230" y="86.973" fill="#FFF9EB" stroke="#E8C48E" stroke-width="2"/><rect id="Rectangle-5" width="35" height="52" x="266" y="86.973" fill="#FFF9EB" stroke="#E8C48E" stroke-width="2"/><rect id="Rectangle-6" width="35" height="52" x="302" y="86.973" fill="#FFF9EB" stroke="#E8C48E" stroke-width="2"/><text id="-3" fill="#8A704D" font-family="PTMono-Regular, PT Mono" font-size="14" font-weight="normal"><tspan x="317" y="116.973">2</tspan></text><rect id="Rectangle-7" width="35" height="52" x="338" y="86.973" fill="#FFF9EB" stroke="#E8C48E" stroke-width="2"/><text id="-4" fill="#8A704D" font-family="PTMono-Regular, PT Mono" font-size="14" font-weight="normal"><tspan x="353" y="116.973">3</tspan></text><text id="&quot;Orange&quot;" fill="#8A704D" font-family="PTMono-Regular, PT Mono" font-size="14" font-weight="normal" transform="translate(278.052814, 49.448100) rotate(-89.000000) translate(-278.052814, -49.448100)"><tspan x="244.053" y="53.948">&quot;Orange&quot;</tspan></text><text id="&quot;Pear&quot;" fill="#8A704D" font-family="PTMono-Regular, PT Mono" font-size="14" font-weight="normal" transform="translate(314.535362, 57.447947) rotate(-89.000000) translate(-314.535362, -57.447947)"><tspan x="289.035" y="61.948">&quot;Pear&quot;</tspan></text><text id="&quot;Lemon&quot;" fill="#8A704D" font-family="PTMono-Regular, PT Mono" font-size="14" font-weight="normal" transform="translate(356.044088, 53.948024) rotate(-89.000000) translate(-356.044088, -53.948024)"><tspan x="326.544" y="58.448">&quot;Lemon&quot;</tspan></text><text id="length-=-3" fill="#8A704D" font-family="PTMono-Regular, PT Mono" font-size="14" font-weight="normal"><tspan x="390" y="63.973">length = 3</tspan></text><polygon id="Shape" fill="#EE6B47" points="195 141.973 204 125.367 198 125.367 198 82.973 192 82.973 192 125.367 186 125.367" transform="translate(195.000000, 112.473154) rotate(-90.000000) translate(-195.000000, -112.473154)"/><text id="clear" fill="#EE6B47" font-family="OpenSans-Regular, Open Sans" font-size="14" font-weight="normal"><tspan x="176" y="101">clear</tspan></text><text id="move" fill="#EE6B47" font-family="OpenSans-Regular, Open Sans" font-size="14" font-weight="normal"><tspan x="393" y="98.973">move</tspan> <tspan x="393" y="136.973">elements</tspan> <tspan x="393" y="155.973">to the left</tspan></text><rect id="Rectangle-1" width="35" height="52" x="12" y="87" fill="#FFF9EB" stroke="#E8C48E" stroke-width="2"/><rect id="Rectangle-2" width="35" height="52" x="48" y="86.973" fill="#FFF9EB" stroke="#E8C48E" stroke-width="2"/><text id="0" fill="#EE6B47" font-family="PTMono-Regular, PT Mono" font-size="14" font-weight="normal"><tspan x="26" y="116.973">0</tspan></text><text id="&quot;Apple&quot;" fill="#EE6B47" font-family="PTMono-Regular, PT Mono" font-size="14" font-weight="normal" transform="translate(23.044088, 53.948024) rotate(-89.000000) translate(-23.044088, -53.948024)"><tspan x="-6.456" y="58.448">&quot;Apple&quot;</tspan></text><polygon id="Shape-2" fill="#EE6B47" points="437 158.519 446 141.913 440 141.913 440 69.973 433.443 69.973 434 141.913 428 141.913" transform="translate(437.000000, 114.246103) rotate(-90.000000) translate(-437.000000, -114.246103)"/><rect id="Rectangle-12" width="35" height="52" x="496" y="86.973" fill="#FFF9EB" stroke="#E8C48E" stroke-width="2"/><rect id="Rectangle-9" width="35" height="52" x="532" y="86.973" fill="#FFF9EB" stroke="#E8C48E" stroke-width="2"/><text id="-5" fill="#8A704D" font-family="PTMono-Regular, PT Mono" font-size="14" font-weight="normal"><tspan x="510" y="116.973">0</tspan></text><text id="-6" fill="#8A704D" font-family="PTMono-Regular, PT Mono" font-size="14" font-weight="normal"><tspan x="547" y="116.973">1</tspan></text><rect id="Rectangle-10" width="35" height="52" x="568" y="86.973" fill="#FFF9EB" stroke="#E8C48E" stroke-width="2"/><text id="-7" fill="#8A704D" font-family="PTMono-Regular, PT Mono" font-size="14" font-weight="normal"><tspan x="583" y="116.973">2</tspan></text><text id="&quot;Orange&quot;" fill="#8A704D" font-family="PTMono-Regular, PT Mono" font-size="14" font-weight="normal" transform="translate(506.052814, 49.448100) rotate(-89.000000) translate(-506.052814, -49.448100)"><tspan x="472.053" y="53.948">&quot;Orange&quot;</tspan></text><text id="&quot;Pear&quot;" fill="#8A704D" font-family="PTMono-Regular, PT Mono" font-size="14" font-weight="normal" transform="translate(542.535362, 57.447947) rotate(-89.000000) translate(-542.535362, -57.447947)"><tspan x="517.035" y="61.948">&quot;Pear&quot;</tspan></text><text id="&quot;Lemon&quot;" fill="#8A704D" font-family="PTMono-Regular, PT Mono" font-size="14" font-weight="normal" transform="translate(584.044088, 53.948024) rotate(-89.000000) translate(-584.044088, -53.948024)"><tspan x="554.544" y="58.448">&quot;Lemon&quot;</tspan></text><text id="-2" fill="#8A704D" font-family="PTMono-Regular, PT Mono" font-size="14" font-weight="normal"><tspan x="61" y="116.973">1</tspan></text><text id="-2-copy" fill="#8A704D" font-family="PTMono-Regular, PT Mono" font-size="14" font-weight="normal"><tspan x="280" y="116.973">1</tspan></text></g></g></svg>