<svg xmlns="http://www.w3.org/2000/svg" xmlns:xlink="http://www.w3.org/1999/xlink" width="641" height="633" version="1.1" viewBox="0 0 641 633"><title>eventflow.svg</title><desc>Created with sketchtool.</desc><g id="dom" fill="none" fill-rule="evenodd" stroke="none" stroke-width="1"><g id="eventflow.svg"><g id="eventflow" transform="translate(22.000000, 28.000000)"><g id="nodes"><g id="Window-node" transform="translate(224.684713, 0.000000)"><g id="Group"><rect id="Rectangle-path" width="134.427" height="34.567" x="0" y="0" fill="#DCDCDC" stroke="#000"/><text id="Window" fill="#000" font-family="OpenSans-Regular, Open Sans" font-size="15.555" font-weight="normal"><tspan x="39.368" y="21.913">Window</tspan></text></g></g><g id="document-node" transform="translate(234.286624, 60.492537)"><g id="Group"><rect id="Rectangle-path" width="115.223" height="34.567" x="0" y="0" fill="#DCDCDC" stroke="#000"/><text id="Document" fill="#000" font-family="OpenSans-Regular, Open Sans" font-size="15.555" font-weight="normal"><tspan x="22.084" y="21.913">Document</tspan></text></g></g><g id="html-node" transform="translate(243.888535, 120.985075)"><rect id="Rectangle-path" width="96.019" height="34.567" x="0" y="0" fill="#87CEFA" stroke="#000" rx="5"/><text id="&lt;html&gt;" fill="#000" font-family="OpenSans-Regular, Open Sans" font-size="15.555" font-weight="normal"><tspan x="23.045" y="21.913">&lt;html&gt;</tspan></text></g><g id="body-node" transform="translate(243.888535, 181.477612)"><rect id="Rectangle-path" width="96.019" height="34.567" x="0" y="0" fill="#87CEFA" stroke="#000" rx="5"/><text id="&lt;body&gt;" fill="#000" font-family="OpenSans-Regular, Open Sans" font-size="15.555" font-weight="normal"><tspan x="23.045" y="21.913">&lt;body&gt;</tspan></text></g><g id="table-node" transform="translate(243.888535, 241.970149)"><rect id="Rectangle-path" width="96.019" height="34.567" x="0" y="0" fill="#87CEFA" stroke="#000" rx="5"/><text id="&lt;table&gt;" fill="#000" font-family="OpenSans-Regular, Open Sans" font-size="15.555" font-weight="normal"><tspan x="23.045" y="21.913">&lt;table&gt;</tspan></text></g><g id="tbody-node" transform="translate(243.888535, 302.462687)"><rect id="Rectangle-path" width="96.019" height="34.567" x="0" y="0" fill="#87CEFA" stroke="#000" rx="5"/><text id="&lt;tbody&gt;" fill="#000" font-family="OpenSans-Regular, Open Sans" font-size="15.555" font-weight="normal"><tspan x="19.204" y="21.913">&lt;tbody&gt;</tspan></text></g><g id="tr_1-node" transform="translate(80.656051, 380.238806)"><rect id="Rectangle-path" width="96.019" height="34.567" x="0" y="0" fill="#87CEFA" stroke="#000" rx="5"/><text id="&lt;tr&gt;" fill="#000" font-family="OpenSans-Regular, Open Sans" font-size="15.555" font-weight="normal"><tspan x="35.527" y="21.913">&lt;tr&gt;</tspan></text></g><g id="tr_2-node" transform="translate(426.324841, 380.238806)"><rect id="Rectangle-path" width="96.019" height="34.567" x="0" y="0" fill="#87CEFA" stroke="#000" rx="5"/><text id="&lt;tr&gt;" fill="#000" font-family="OpenSans-Regular, Open Sans" font-size="15.555" font-weight="normal"><tspan x="33.607" y="21.913">&lt;tr&gt;</tspan></text></g><g id="tr_1_td_1-node" transform="translate(13.442675, 458.014925)"><rect id="Rectangle-path" width="96.019" height="34.567" x="0" y="0" fill="#87CEFA" stroke="#000" rx="5"/><text id="&lt;td&gt;" fill="#000" font-family="OpenSans-Regular, Open Sans" font-size="15.555" font-weight="normal"><tspan x="31.686" y="21.913">&lt;td&gt;</tspan></text></g><g id="tr_1_td_1_text-node" transform="translate(0.000000, 518.507463)"><ellipse id="Oval" cx="61.452" cy="30.246" fill="#4682B4" stroke="#000" rx="61.452" ry="30.246"/><text id="Shady-Grove" fill="#FFF" font-family="OpenSans-Regular, Open Sans" font-size="12.963" font-weight="normal"><tspan x="19.204" y="34.604">Shady Grove</tspan></text></g><g id="tr_1_td_2-node" transform="translate(147.869427, 458.014925)"><rect id="Rectangle-path" width="96.019" height="34.567" x="0" y="0" fill="#87CEFA" stroke="#000" rx="5"/><text id="&lt;td&gt;" fill="#000" font-family="OpenSans-Regular, Open Sans" font-size="15.555" font-weight="normal"><tspan x="33.607" y="21.913">&lt;td&gt;</tspan></text></g><g id="tr_1_td_2_text-node" transform="translate(134.426752, 518.507463)"><ellipse id="Oval" cx="61.452" cy="30.246" fill="#4682B4" stroke="#000" rx="61.452" ry="30.246"/><text id="Aeolian" fill="#FFF" font-family="OpenSans-Regular, Open Sans" font-size="12.963" font-weight="normal"><tspan x="36.967" y="34.604">Aeolian</tspan></text></g><g id="tr_2_td_1-node" transform="translate(359.111465, 458.014925)"><rect id="Rectangle-path" width="96.019" height="34.567" x="0" y="0" fill="#00F" stroke="#000" rx="5"/><text id="&lt;td&gt;" fill="#FFF" font-family="PTMono-Regular, PT Mono" font-size="15.555" font-weight="normal"><tspan x="27.846" y="22.37">&lt;td&gt;</tspan></text></g><g id="tr_2_td_1_text-node" transform="translate(345.668790, 518.507463)"><ellipse id="Oval" cx="61.452" cy="30.246" fill="#4682B4" stroke="#000" rx="61.452" ry="30.246"/><g id="Group" fill="#FFF" font-family="OpenSans-Regular, Open Sans" font-size="12.963" font-weight="normal" transform="translate(12.482484, 14.555224)"><text id="Over-the-River,"><tspan x=".48" y="14">Over the River,</tspan></text><text id="Charlie"><tspan x="25.925" y="31.284">Charlie</tspan></text></g></g><g id="tr_2_td_2-node" transform="translate(493.538217, 458.014925)"><rect id="Rectangle-path" width="96.019" height="34.567" x="0" y="0" fill="#87CEFA" stroke="#000" rx="5"/><text id="&lt;td&gt;" fill="#000" font-family="OpenSans-Regular, Open Sans" font-size="15.555" font-weight="normal"><tspan x="33.607" y="21.913">&lt;td&gt;</tspan></text></g><g id="tr_2_td_2_text-node" transform="translate(480.095541, 518.507463)"><ellipse id="Oval" cx="61.452" cy="30.246" fill="#4682B4" stroke="#000" rx="61.452" ry="30.246"/><text id="Dorian" fill="#FFF" font-family="OpenSans-Regular, Open Sans" font-size="12.963" font-weight="normal"><tspan x="39.848" y="34.604">Dorian</tspan></text></g></g><g id="edges" stroke="#000" stroke-width="2" transform="translate(61.452229, 34.567164)"><path id="window-document" fill="#000" d="M230.44586,0 L230.44586,19.8761194"/><path id="document-html" fill="#000" d="M230.44586,60.4925373 L230.44586,80.3686567"/><path id="html-body" fill="#000" d="M230.44586,120.985075 L230.44586,140.861194"/><path id="body-table" fill="#000" d="M230.44586,181.477612 L230.44586,201.353731"/><path id="table-tbody" fill="#000" d="M230.44586,241.970149 L230.44586,261.846269"/><path id="tbody-tr_1" d="M230.44586,302.462687 C230.44586,313.985075 214.442675,319.746269 182.436306,319.746269 L86.4171975,319.746269 C73.6146497,319.746269 67.2133758,326.371642 67.2133758,339.622388"/><path id="tbody-tr_2" d="M230.44586,302.462687 C230.44586,313.985075 252.850318,319.746269 297.659236,319.746269 L393.678344,319.746269 C406.480892,319.746269 412.882166,326.371642 412.882166,339.622388"/><path id="tr_1-tr_2_td_1" d="M67.2133758,380.238806 C67.2133758,391.761194 60.8121019,397.522388 48.0095541,397.522388 L19.2038217,397.522388 C6.40127389,397.522388 0,404.147761 0,417.398507"/><path id="tr_1-tr_2_td_2" d="M67.2133758,380.238806 C67.2133758,391.761194 73.6146497,397.522388 86.4171975,397.522388 L115.22293,397.522388 C128.025478,397.522388 134.426752,404.147761 134.426752,417.398507"/><path id="tr_2-tr_2_td_1" d="M412.882166,380.238806 C412.882166,391.761194 406.480892,397.522388 393.678344,397.522388 L364.872611,397.522388 C352.070064,397.522388 345.66879,404.147761 345.66879,417.398507"/><path id="tr_2-tr_2_td_2" d="M412.882166,380.238806 C412.882166,391.761194 425.684713,397.522388 451.289809,397.522388 L460.89172,397.522388 C473.694268,397.522388 480.095541,404.147761 480.095541,417.398507"/><path id="tr_1_td_1-text" fill="#000" d="M0,458.014925 L0,477.891045"/><path id="tr_1_td_2-text" fill="#000" d="M134.426752,458.014925 L134.426752,477.891045"/><path id="tr_2_td_1-text" fill="#000" d="M345.66879,458.014925 L345.66879,477.891045"/><path id="tr_2_td_2-text" fill="#000" d="M482.015924,458.014925 L482.015924,477.891045"/></g><g id="event-flow" transform="translate(103.700637, 14.691045)"><g id="target_phase" transform="translate(186.277070, 443.323881)"><text id="Target" fill="#00F" font-family="OpenSans-Regular, Open Sans" font-size="17.284" font-weight="normal"><tspan x=".96" y="34.148">Target</tspan></text><text id="Phase" fill="#00F" font-family="OpenSans-Regular, Open Sans" font-size="17.284" font-weight="normal"><tspan x=".48" y="51.431">Phase</tspan></text><text id="(2)" fill="#00F" font-family="OpenSans-Regular, Open Sans" font-size="17.284" font-weight="normal"><tspan x="15.843" y="68.715">(2)</tspan></text><rect id="Rectangle-path" width="96.019" height="34.567" x="69.134" y="0" stroke="#000" stroke-width="5" rx="5"/></g><g id="capture_phase"><text id="Capture" fill="red" font-family="OpenSans-Regular, Open Sans" font-size="17.284" font-weight="normal"><tspan x="0" y="166.367">Capture</tspan></text><text id="Phase" fill="red" font-family="OpenSans-Regular, Open Sans" font-size="17.284" font-weight="normal"><tspan x="7.201" y="183.651">Phase</tspan></text><text id="(1)" fill="red" font-family="OpenSans-Regular, Open Sans" font-size="17.284" font-weight="normal"><tspan x="22.564" y="200.934">(1)</tspan></text><path id="capture_phase_arrow" stroke="red" stroke-width="3" d="M116.183121,0.864179104 C77.7754777,-1.72835821 77.7754777,41.480597 119.063694,50.1223881"/><g id="capture_phase_arrow-link" stroke="red" stroke-width="3" transform="translate(92.178344, 60.492537)"><path id="capture_phase_arrow" d="M28.8057325,0.864179104 C-9.60191083,-1.72835821 -9.60191083,41.480597 31.6863057,50.1223881"/></g><g id="capture_phase_arrow-link" stroke="red" stroke-width="3" transform="translate(96.979299, 120.985075)"><path id="capture_phase_arrow" d="M28.8057325,0.864179104 C-9.60191083,-1.72835821 -9.60191083,41.480597 31.6863057,50.1223881"/></g><g id="capture_phase_arrow-link" stroke="red" stroke-width="3" transform="translate(96.979299, 181.477612)"><path id="capture_phase_arrow" d="M28.8057325,0.864179104 C-9.60191083,-1.72835821 -9.60191083,41.480597 31.6863057,50.1223881"/></g><g id="capture_phase_arrow-link" stroke="red" stroke-width="3" transform="translate(96.979299, 241.970149)"><path id="capture_phase_arrow" d="M28.8057325,0.864179104 C-9.60191083,-1.72835821 -9.60191083,41.480597 31.6863057,50.1223881"/></g><path id="capture_phase_arrow2" stroke="red" stroke-width="3" d="M125.785032,303.326866 C87.3773885,300.734328 87.3773885,385.423881 301.5,372.461194"/><path id="capture_phase_arrow3" stroke="red" stroke-width="3" d="M301.5,385.423881 C207.401274,382.831343 207.401274,437.274627 239.08758,450.237313"/></g><g id="bubble_phase" transform="translate(250.609873, 12.962687)"><text id="Bubbling" fill="green" font-family="OpenSans-Regular, Open Sans" font-size="17.284" font-weight="normal"><tspan x="72.975" y="239.822">Bubbling</tspan></text><text id="Phase" fill="green" font-family="OpenSans-Regular, Open Sans" font-size="17.284" font-weight="normal"><tspan x="83.057" y="257.106">Phase</tspan></text><text id="(3)" fill="green" font-family="OpenSans-Regular, Open Sans" font-size="17.284" font-weight="normal"><tspan x="98.42" y="274.39">(3)</tspan></text><path id="bubble_phase_arrow3" stroke="green" stroke-width="3" d="M112.342357,437.274627 C244.848726,381.102985 244.848726,369.868657 179.555732,372.461194"/><path id="bubble_phase_arrow2" stroke="green" stroke-width="3" d="M182.436306,358.634328 C220.843949,349.992537 220.843949,307.647761 1.92038217,299.00597"/><path id="bubble_phase_arrow" stroke="green" stroke-width="3" d="M0,287.771642 C38.4076433,285.179104 38.4076433,250.61194 0,241.970149"/><g id="bubble_phase_arrow-link" stroke="green" stroke-width="3" transform="translate(0.000000, 181.477612)"><path id="bubble_phase_arrow" d="M0,45.8014925 C38.4076433,43.2089552 38.4076433,8.64179104 0,0"/></g><g id="bubble_phase_arrow-link" stroke="green" stroke-width="3" transform="translate(0.000000, 120.985075)"><path id="bubble_phase_arrow" d="M0,45.8014925 C38.4076433,43.2089552 38.4076433,8.64179104 0,0"/></g><path id="bubble_phase_arrow4" stroke="green" stroke-width="3" d="M0,106.29403 C48.0095541,103.701493 48.0095541,69.1343284 9.60191083,60.4925373"/><path id="bubble_phase_arrow" stroke="green" stroke-width="3" d="M9.60191083,45.8014925 C57.611465,43.2089552 57.611465,8.64179104 19.2038217,0"/></g></g></g></g></g></svg>