<svg xmlns="http://www.w3.org/2000/svg" xmlns:xlink="http://www.w3.org/1999/xlink" width="446" height="316" version="1.1" viewBox="0 0 446 316"><title>animal-rabbit-extends.svg</title><desc>Created with sketchtool.</desc><g id="inheritance" fill="none" fill-rule="evenodd" stroke="none" stroke-width="1"><g id="animal-rabbit-extends.svg"><rect id="Rectangle-1" width="185" height="64" x="238" y="23" fill="#FFF9EB" stroke="#E8C48E" stroke-width="2"/><text id="constructor:-Animal" fill="#8A704D" font-family="PTMono-Regular, PT Mono" font-size="14" font-weight="normal"><tspan x="248" y="42">constructor: Animal</tspan> <tspan x="248" y="57">run: function</tspan> <tspan x="248" y="72">stop: function</tspan></text><rect id="Rectangle-1-Copy" width="185" height="28" x="238" y="286" fill="#FFF9EB" stroke="#E8C48E" stroke-width="2"/><text id="Animal.prototype" fill="#8A704D" font-family="PTMono-Regular, PT Mono" font-size="14" font-weight="normal"><tspan x="237" y="15">Animal.prototype</tspan></text><rect id="Rectangle-1-Copy-4" width="185" height="48" x="238" y="166" fill="#FFF9EB" stroke="#E8C48E" stroke-width="2"/><text id="constructor:-Rabbit" fill="#8A704D" font-family="PTMono-Regular, PT Mono" font-size="14" font-weight="normal"><tspan x="248" y="185">constructor: Rabbit</tspan> <tspan x="248" y="200">hide: function</tspan></text><text id="Rabbit.prototype" fill="#8A704D" font-family="PTMono-Regular, PT Mono" font-size="14" font-weight="normal"><tspan x="237" y="158">Rabbit.prototype</tspan></text><rect id="Rectangle-1-Copy-2" width="105" height="48" x="11" y="23" fill="#FFF9EB" stroke="#E8C48E" stroke-width="2"/><text id="Animal" fill="#8A704D" font-family="PTMono-Regular, PT Mono" font-size="14" font-weight="normal"><tspan x="10" y="15">Animal</tspan></text><rect id="Rectangle-1-Copy-3" width="105" height="48" x="11" y="166" fill="#FFF9EB" stroke="#E8C48E" stroke-width="2"/><text id="Rabbit" fill="#8A704D" font-family="PTMono-Regular, PT Mono" font-size="14" font-weight="normal"><tspan x="10" y="158">Rabbit</tspan></text><text id="new-Rabbit" fill="#8A704D" font-family="PTMono-Regular, PT Mono" font-size="14" font-weight="normal"><tspan x="243" y="278">new Rabbit</tspan></text><path id="Line" fill="#EE6B47" fill-rule="nonzero" d="M327.5,110.5 L327.5,138.5 L325.5,138.5 L325.5,110.5 L319.5,110.5 L326.5,96.5 L333.5,110.5 L327.5,110.5 Z"/><path id="Line-Copy" fill="#EE6B47" fill-rule="nonzero" d="M199,48 L132,48 L132,46 L199,46 L199,40 L213,47 L199,54 L199,48 Z"/><text id="[[Prototype]]" fill="#8A704D" font-family="PTMono-Regular, PT Mono" font-size="14" font-weight="normal"><tspan x="336" y="120">[[Prototype]]</tspan></text><path id="Line-Copy-3" fill="#EE6B47" fill-rule="nonzero" d="M327.5,244.5 L327.5,272.5 L325.5,272.5 L325.5,244.5 L319.5,244.5 L326.5,230.5 L333.5,244.5 L327.5,244.5 Z"/><text id="[[Prototype]]-Copy" fill="#8A704D" font-family="PTMono-Regular, PT Mono" font-size="14" font-weight="normal"><tspan x="336" y="254">[[Prototype]]</tspan></text><text id="prototype" fill="#8A704D" font-family="PTMono-Regular, PT Mono" font-size="14" font-weight="normal"><tspan x="139" y="35">prototype</tspan></text><path id="Line-Copy-2" fill="#EE6B47" fill-rule="nonzero" d="M199,189 L132,189 L132,187 L199,187 L199,181 L213,188 L199,195 L199,189 Z"/><text id="prototype-copy" fill="#8A704D" font-family="PTMono-Regular, PT Mono" font-size="14" font-weight="normal"><tspan x="139" y="176">prototype</tspan></text><text id="name:-&quot;White-Rabbit&quot;" fill="#8A704D" font-family="PTMono-Regular, PT Mono" font-size="14" font-weight="normal"><tspan x="249" y="304">name: &quot;White Rabbit&quot;</tspan></text><text id="constructor" fill="#8A704D" font-family="PTMono-Regular, PT Mono" font-size="14" font-weight="normal"><tspan x="17" y="41">constructor</tspan></text><text id="constructor-copy" fill="#8A704D" font-family="PTMono-Regular, PT Mono" font-size="14" font-weight="normal"><tspan x="17" y="183">constructor</tspan></text></g></g></svg>