<svg xmlns="http://www.w3.org/2000/svg" xmlns:xlink="http://www.w3.org/1999/xlink" width="589" height="467" version="1.1" viewBox="0 0 589 467"><title>class-inheritance-rabbit-animal-2.svg</title><desc>Created with sketchtool.</desc><g id="inheritance" fill="none" fill-rule="evenodd" stroke="none" stroke-width="1"><g id="class-inheritance-rabbit-animal-2.svg"><rect id="Rectangle-1" width="220" height="28" x="11" y="336" fill="#FFF9EB" stroke="#E8C48E" stroke-width="2"/><text id="jump:-function" fill="#8A704D" font-family="PTMono-Regular, PT Mono" font-size="14" font-weight="normal"><tspan x="21" y="354">jump: function</tspan></text><text id="Rabbit.prototype" fill="#8A704D" font-family="PTMono-Regular, PT Mono" font-size="14" font-weight="normal"><tspan x="10" y="328">Rabbit.prototype</tspan></text><text id="rabbit" fill="#8A704D" font-family="PTMono-Regular, PT Mono" font-size="14" font-weight="normal"><tspan x="10" y="424">rabbit</tspan></text><rect id="Rectangle-1" width="220" height="28" x="11" y="230" fill="#FFF9EB" stroke="#E8C48E" stroke-width="2"/><text id="eat:-function" fill="#8A704D" font-family="PTMono-Regular, PT Mono" font-size="14" font-weight="normal"><tspan x="21" y="250">eat: function</tspan></text><text id="Animal.prototype" fill="#8A704D" font-family="PTMono-Regular, PT Mono" font-size="14" font-weight="normal"><tspan x="10" y="222">Animal.prototype</tspan></text><rect id="Rectangle-1" width="220" height="28" x="11" y="433" fill="#FFF9EB" stroke="#E8C48E" stroke-width="2"/><path id="Line" fill="#EE6B47" fill-rule="nonzero" d="M71.5,392.5 L71.5,420.5 L69.5,420.5 L69.5,392.5 L63.5,392.5 L70.5,378.5 L77.5,392.5 L71.5,392.5 Z"/><path id="Line-2" fill="#EE6B47" fill-rule="nonzero" d="M71.5,284.5 L71.5,312.5 L69.5,312.5 L69.5,284.5 L63.5,284.5 L70.5,270.5 L77.5,284.5 L71.5,284.5 Z"/><text id="name:-&quot;White-Rabbit&quot;" fill="#8A704D" font-family="PTMono-Regular, PT Mono" font-size="14" font-weight="normal"><tspan x="18" y="451">name: &quot;White Rabbit&quot;</tspan></text><text id="[[Prototype]]" fill="#EC6B4E" font-family="PTMono-Regular, PT Mono" font-size="14" font-weight="normal"><tspan x="83" y="303">[[Prototype]]</tspan></text><text id="[[Prototype]]-Copy" fill="#8A704D" font-family="PTMono-Regular, PT Mono" font-size="14" font-weight="normal"><tspan x="83" y="406">[[Prototype]]</tspan></text><text id="Rabbit.prototype.__p" fill="#EC6B4E" font-family="PTMono-Regular, PT Mono" font-size="14" font-weight="normal"><tspan x="84" y="283">Rabbit.prototype.__proto__ = Animal.prototype sets this</tspan></text><rect id="Rectangle-1" width="220" height="58" x="11" y="95" fill="#FFF9EB" stroke="#E8C48E" stroke-width="2"/><text id="toString:-function-h" fill="#8A704D" font-family="PTMono-Regular, PT Mono" font-size="14" font-weight="normal"><tspan x="21" y="112">toString: function</tspan> <tspan x="21" y="127">hasOwnProperty: function</tspan> <tspan x="21" y="142">...</tspan></text><text id="Object.prototype" fill="#8A704D" font-family="PTMono-Regular, PT Mono" font-size="14" font-weight="normal"><tspan x="10" y="87">Object.prototype</tspan></text><path id="Line" fill="#EE6B47" fill-rule="nonzero" d="M71.5,175.5 L71.5,203.5 L69.5,203.5 L69.5,175.5 L63.5,175.5 L70.5,161.5 L77.5,175.5 L71.5,175.5 Z"/><text id="[[Prototype]]" fill="#8A704D" font-family="PTMono-Regular, PT Mono" font-size="14" font-weight="normal"><tspan x="80" y="183">[[Prototype]]</tspan></text><path id="Line-2" fill="#EE6B47" fill-rule="nonzero" d="M71.5,43.5 L71.5,71.5 L69.5,71.5 L69.5,43.5 L63.5,43.5 L70.5,29.5 L77.5,43.5 L71.5,43.5 Z"/><text id="[[Prototype]]" fill="#8A704D" font-family="PTMono-Regular, PT Mono" font-size="14" font-weight="normal"><tspan x="80" y="51">[[Prototype]]</tspan></text><text id="null" fill="#8A704D" font-family="PTMono-Regular, PT Mono" font-size="14" font-weight="normal"><tspan x="56" y="18">null</tspan></text></g></g></svg>