<svg xmlns="http://www.w3.org/2000/svg" xmlns:xlink="http://www.w3.org/1999/xlink" width="233" height="316" version="1.1" viewBox="0 0 233 316"><title>class-inheritance-array-object.svg</title><desc>Created with sketchtool.</desc><g id="inheritance" fill="none" fill-rule="evenodd" stroke="none" stroke-width="1"><g id="class-inheritance-array-object.svg"><rect id="Rectangle-1" width="219" height="58" x="13" y="158" fill="#FFF9EB" stroke="#E8C48E" stroke-width="2"/><text id="slice:-function" fill="#8A704D" font-family="PTMono-Regular, PT Mono" font-size="14" font-weight="normal"><tspan x="23" y="181">slice: function</tspan> <tspan x="23" y="196">...</tspan></text><text id="Array.prototype" fill="#8A704D" font-family="PTMono-Regular, PT Mono" font-size="14" font-weight="normal"><tspan x="12" y="150">Array.prototype</tspan></text><text id="arr" fill="#8A704D" font-family="PTMono-Regular, PT Mono" font-size="14" font-weight="normal"><tspan x="12" y="267">arr</tspan></text><rect id="Rectangle-1" width="219" height="58" x="13" y="25" fill="#FFF9EB" stroke="#E8C48E" stroke-width="2"/><text id="hasOwnProperty:-func" fill="#8A704D" font-family="PTMono-Regular, PT Mono" font-size="14" font-weight="normal"><tspan x="23" y="48">hasOwnProperty: function</tspan> <tspan x="23" y="63">...</tspan></text><text id="Object.prototype" fill="#8A704D" font-family="PTMono-Regular, PT Mono" font-size="14" font-weight="normal"><tspan x="12" y="17">Object.prototype</tspan></text><rect id="Rectangle-1" width="219" height="28" x="13" y="275" fill="#FFF9EB" stroke="#E8C48E" stroke-width="2"/><path id="Line" fill="#EE6B47" fill-rule="nonzero" d="M73.5,238.5 L73.5,266.5 L71.5,266.5 L71.5,238.5 L65.5,238.5 L72.5,224.5 L79.5,238.5 L73.5,238.5 Z"/><path id="Line-2" fill="#EE6B47" fill-rule="nonzero" d="M73.5,106.5 L73.5,134.5 L71.5,134.5 L71.5,106.5 L65.5,106.5 L72.5,92.5 L79.5,106.5 L73.5,106.5 Z"/><text id="[1,-2,-3]" fill="#8A704D" font-family="PTMono-Regular, PT Mono" font-size="14" font-weight="normal"><tspan x="20" y="293">[1, 2, 3]</tspan></text><text id="[[Prototype]]" fill="#EE6B47" font-family="PTMono-Regular, PT Mono" font-size="14" font-weight="normal"><tspan x="86" y="115">[[Prototype]]</tspan></text><text id="[[Prototype]]-Copy" fill="#EE6B47" font-family="PTMono-Regular, PT Mono" font-size="14" font-weight="normal"><tspan x="86" y="247">[[Prototype]]</tspan></text></g></g></svg>