<svg xmlns="http://www.w3.org/2000/svg" xmlns:xlink="http://www.w3.org/1999/xlink" width="198" height="258" version="1.1" viewBox="0 0 198 258"><title>class-inheritance-rabbit-animal.svg</title><desc>Created with sketchtool.</desc><g id="inheritance" fill="none" fill-rule="evenodd" stroke="none" stroke-width="1"><g id="class-inheritance-rabbit-animal.svg"><rect id="Rectangle-1" width="179" height="28" x="11" y="128" fill="#FFF9EB" stroke="#E8C48E" stroke-width="2"/><text id="methods-of-Rabbit" fill="#8A704D" font-family="PTMono-Regular, PT Mono" font-size="14" font-weight="normal"><tspan x="19" y="146">methods of Rabbit</tspan></text><text id="Rabbit.prototype" fill="#8A704D" font-family="PTMono-Regular, PT Mono" font-size="14" font-weight="normal"><tspan x="10" y="120">Rabbit.prototype</tspan></text><text id="rabbit" fill="#8A704D" font-family="PTMono-Regular, PT Mono" font-size="14" font-weight="normal"><tspan x="10" y="213">rabbit</tspan></text><rect id="Rectangle-1" width="179" height="28" x="11" y="21" fill="#FFF9EB" stroke="#E8C48E" stroke-width="2"/><text id="methods-of-Animal" fill="#8A704D" font-family="PTMono-Regular, PT Mono" font-size="14" font-weight="normal"><tspan x="19" y="38">methods of Animal</tspan></text><text id="Animal.prototype" fill="#8A704D" font-family="PTMono-Regular, PT Mono" font-size="14" font-weight="normal"><tspan x="10" y="13">Animal.prototype</tspan></text><rect id="Rectangle-1" width="179" height="28" x="11" y="222" fill="#FFF9EB" stroke="#E8C48E" stroke-width="2"/><path id="Line" fill="#EE6B47" fill-rule="nonzero" d="M71.5,181.5 L71.5,209.5 L69.5,209.5 L69.5,181.5 L63.5,181.5 L70.5,167.5 L77.5,181.5 L71.5,181.5 Z"/><path id="Line-2" fill="#EE6B47" fill-rule="nonzero" d="M71.5,76.5 L71.5,104.5 L69.5,104.5 L69.5,76.5 L63.5,76.5 L70.5,62.5 L77.5,76.5 L71.5,76.5 Z"/><text id="[[Prototype]]" fill="#8A704D" font-family="PTMono-Regular, PT Mono" font-size="14" font-weight="normal"><tspan x="80" y="86">[[Prototype]]</tspan></text><text id="[[Prototype]]-Copy" fill="#8A704D" font-family="PTMono-Regular, PT Mono" font-size="14" font-weight="normal"><tspan x="80" y="190">[[Prototype]]</tspan></text><text id="properties-of-rabbit" fill="#8A704D" font-family="PTMono-Regular, PT Mono" font-size="14" font-weight="normal"><tspan x="19" y="239">properties of rabbit</tspan></text></g></g></svg>