<svg xmlns="http://www.w3.org/2000/svg" xmlns:xlink="http://www.w3.org/1999/xlink" width="449" height="202" version="1.1" viewBox="0 0 449 202"><title>rabbit-animal-independent-rabbit.svg</title><desc>Created with sketchtool.</desc><g id="inheritance" fill="none" fill-rule="evenodd" stroke="none" stroke-width="1"><g id="rabbit-animal-independent-rabbit.svg"><path id="Rectangle-1" fill="#FFF9EB" stroke="#E8C48E" stroke-width="2" d="M238,23 L238,71 L416,71 L416,23 L238,23 Z"/><text id="constructor:-Rabbit" fill="#8A704D" font-family="PTMono-Regular, PT Mono" font-size="14" font-weight="normal"><tspan x="248" y="44">constructor: Rabbit</tspan> <tspan x="248" y="59">hide: function</tspan></text><text id="Rabbit.prototype" fill="#8A704D" font-family="PTMono-Regular, PT Mono" font-size="14" font-weight="normal"><tspan x="237" y="15">Rabbit.prototype</tspan></text><rect id="Rectangle-1-Copy-2" width="105" height="28" x="11" y="23" fill="#FFF9EB" stroke="#E8C48E" stroke-width="2"/><text id="Rabbit" fill="#8A704D" font-family="PTMono-Regular, PT Mono" font-size="14" font-weight="normal"><tspan x="10" y="15">Rabbit</tspan></text><path id="Rectangle-1-Copy-3" fill="#FFF9EB" stroke="#E8C48E" stroke-width="2" d="M237,151 L237,179 L415,179 L415,151 L237,151 Z"/><text id="new-Rabbit" fill="#8A704D" font-family="PTMono-Regular, PT Mono" font-size="14" font-weight="normal"><tspan x="239" y="143">new Rabbit</tspan></text><path id="Line" fill="#EE6B47" fill-rule="nonzero" d="M327.5,95.5 L327.5,123.5 L325.5,123.5 L325.5,95.5 L319.5,95.5 L326.5,81.5 L333.5,95.5 L327.5,95.5 Z"/><path id="Line-Copy" fill="#EE6B47" fill-rule="nonzero" d="M199,38 L132,38 L132,36 L199,36 L199,30 L213,37 L199,44 L199,38 Z"/><text id="[[Prototype]]" fill="#8A704D" font-family="PTMono-Regular, PT Mono" font-size="14" font-weight="normal"><tspan x="336" y="105">[[Prototype]]</tspan></text><text id="prototype" fill="#8A704D" font-family="PTMono-Regular, PT Mono" font-size="14" font-weight="normal"><tspan x="139" y="25">prototype</tspan></text><text id="name:-&quot;My-rabbit&quot;" fill="#8A704D" font-family="PTMono-Regular, PT Mono" font-size="14" font-weight="normal"><tspan x="249" y="169">name: &quot;My rabbit&quot;</tspan></text><text id="constructor" fill="#8A704D" font-family="PTMono-Regular, PT Mono" font-size="14" font-weight="normal"><tspan x="17" y="41">constructor</tspan></text></g></g></svg>