<svg xmlns="http://www.w3.org/2000/svg" xmlns:xlink="http://www.w3.org/1999/xlink" width="458" height="344" version="1.1" viewBox="0 0 458 344"><title>rabbit-extends-object.svg</title><desc>Created with sketchtool.</desc><g id="inheritance" fill="none" fill-rule="evenodd" stroke="none" stroke-width="1"><g id="rabbit-extends-object.svg"><path id="Rectangle-1" fill="#FFF9EB" stroke="#E8C48E" stroke-width="2" d="M228,61 L228,129 L406,129 L406,61 L228,61 Z"/><text id="call:-function-bind:" fill="#8A704D" font-family="PTMono-Regular, PT Mono" font-size="14" font-weight="normal"><tspan x="238" y="80">call: function</tspan> <tspan x="238" y="95">bind: function</tspan> <tspan x="238" y="110">...</tspan></text><rect id="Rectangle-1-Copy" width="178" height="28" x="228" y="303" fill="#FFF9EB" stroke="#E8C48E" stroke-width="2"/><text id="Function.prototype" fill="#8A704D" font-family="PTMono-Regular, PT Mono" font-size="14" font-weight="normal"><tspan x="227" y="53">Function.prototype</tspan></text><path id="Rectangle-1-Copy-4" fill="#FFF9EB" stroke="#E8C48E" stroke-width="2" d="M228,202 L228,230 L406,230 L406,202 L228,202 Z"/><text id="constructor" fill="#8A704D" font-family="PTMono-Regular, PT Mono" font-size="14" font-weight="normal"><tspan x="238" y="220">constructor</tspan></text><text id="Object" fill="#8A704D" font-family="PTMono-Regular, PT Mono" font-size="14" font-weight="normal"><tspan x="227" y="194">Object</tspan></text><text id="Rabbit" fill="#8A704D" font-family="PTMono-Regular, PT Mono" font-size="14" font-weight="normal"><tspan x="233" y="292">Rabbit</tspan></text><path id="Line" fill="#EE6B47" fill-rule="nonzero" d="M317.5,157.5 L317.5,185.5 L315.5,185.5 L315.5,157.5 L309.5,157.5 L316.5,143.5 L323.5,157.5 L317.5,157.5 Z"/><text id="[[Prototype]]" fill="#8A704D" font-family="PTMono-Regular, PT Mono" font-size="14" font-weight="normal"><tspan x="326" y="167">[[Prototype]]</tspan></text><path id="Line-Copy-3" fill="#EE6B47" fill-rule="nonzero" d="M317.5,261.5 L317.5,289.5 L315.5,289.5 L315.5,261.5 L309.5,261.5 L316.5,247.5 L323.5,261.5 L317.5,261.5 Z"/><text id="[[Prototype]]-Copy" fill="#8A704D" font-family="PTMono-Regular, PT Mono" font-size="14" font-weight="normal"><tspan x="326" y="271">[[Prototype]]</tspan></text><text id="constructor-copy" fill="#8A704D" font-family="PTMono-Regular, PT Mono" font-size="14" font-weight="normal"><tspan x="236" y="321">constructor</tspan></text><rect id="Rectangle-1-Copy-3" width="178" height="68" x="8" y="61" fill="#FFF9EB" stroke="#E8C48E" stroke-width="2"/><text id="call:-function-bind:-copy" fill="#8A704D" font-family="PTMono-Regular, PT Mono" font-size="14" font-weight="normal"><tspan x="18" y="80">call: function</tspan> <tspan x="18" y="95">bind: function</tspan> <tspan x="18" y="110">...</tspan></text><rect id="Rectangle-1-Copy-2" width="178" height="28" x="8" y="201" fill="#FFF9EB" stroke="#E8C48E" stroke-width="2"/><text id="Function.prototype-Copy" fill="#8A704D" font-family="PTMono-Regular, PT Mono" font-size="14" font-weight="normal"><tspan x="7" y="53">Function.prototype</tspan></text><text id="Rabbit-Copy" fill="#8A704D" font-family="PTMono-Regular, PT Mono" font-size="14" font-weight="normal"><tspan x="13" y="190">Rabbit</tspan></text><path id="Line-Copy-4" fill="#EE6B47" fill-rule="nonzero" d="M97.5,159.5 L97.5,187.5 L95.5,187.5 L95.5,159.5 L89.5,159.5 L96.5,145.5 L103.5,159.5 L97.5,159.5 Z"/><text id="[[Prototype]]-Copy-2" fill="#8A704D" font-family="PTMono-Regular, PT Mono" font-size="14" font-weight="normal"><tspan x="106" y="169">[[Prototype]]</tspan></text><text id="constructor-copy-2" fill="#8A704D" font-family="PTMono-Regular, PT Mono" font-size="14" font-weight="normal"><tspan x="16" y="219">constructor</tspan></text><text id="class-Rabbit" fill="#EE6B47" font-family="PTMono-Regular, PT Mono" font-size="14" font-weight="normal"><tspan x="14" y="18">class Rabbit</tspan></text><text id="class-Rabbit-extends" fill="#EE6B47" font-family="PTMono-Regular, PT Mono" font-size="14" font-weight="normal"><tspan x="224" y="18">class Rabbit extends Object</tspan></text></g></g></svg>