<svg xmlns="http://www.w3.org/2000/svg" xmlns:xlink="http://www.w3.org/1999/xlink" width="354" height="308" version="1.1" viewBox="0 0 354 308"><title>windowObjects.svg</title><desc>Created with sketchtool.</desc><g id="combined" fill="none" fill-rule="evenodd" stroke="none" stroke-width="1"><g id="windowObjects.svg"><rect id="Rectangle-1" width="78" height="28" x="136" y="10" fill="#FFF9EB" stroke="#E8C48E" stroke-width="2"/><text id="window" fill="#707175" font-family="Consolas" font-size="14" font-weight="normal"><tspan x="152" y="28">window</tspan></text><rect id="Rectangle-2" width="78" height="26" x="18" y="80" fill="#F5F4D8" stroke="#CFCE95" stroke-width="2"/><rect id="Rectangle-2" width="78" height="26" x="255" y="118" fill="#FCDFE1" stroke="#C74A6C" stroke-width="2"/><rect id="Rectangle-2" width="132" height="26" x="110" y="270" fill="#EDFCFD" stroke="#99C0C3" stroke-width="2"/><text id="document" fill="#727155" font-family="Consolas" font-size="14" font-weight="normal"><tspan x="26" y="97">document</tspan></text><rect id="Rectangle-2" width="78" height="26" x="255" y="80" fill="#FCDFE1" stroke="#C74A6C" stroke-width="2"/><text id="Object" fill="#924565" font-family="Consolas" font-size="14" font-weight="normal"><tspan x="271" y="97">Object</tspan></text><rect id="Rectangle-2" width="78" height="26" x="135" y="80" fill="#EDFCFD" stroke="#99C0C3" stroke-width="2"/><text id="navigator" fill="#366378" font-family="Consolas" font-size="14" font-weight="normal"><tspan x="139.5" y="97">navigator</tspan></text><rect id="Rectangle-2" width="78" height="26" x="135" y="118" fill="#EDFCFD" stroke="#99C0C3" stroke-width="2"/><text id="screen" fill="#366378" font-family="Consolas" font-size="14" font-weight="normal"><tspan x="151" y="135">screen</tspan></text><rect id="Rectangle-2" width="78" height="26" x="135" y="156" fill="#EDFCFD" stroke="#99C0C3" stroke-width="2"/><text id="location" fill="#366378" font-family="Consolas" font-size="14" font-weight="normal"><tspan x="143.5" y="173">location</tspan></text><rect id="Rectangle-2" width="78" height="26" x="135" y="194" fill="#EDFCFD" stroke="#99C0C3" stroke-width="2"/><text id="frames" fill="#366378" font-family="Consolas" font-size="14" font-weight="normal"><tspan x="151" y="211">frames</tspan></text><rect id="Rectangle-2" width="78" height="26" x="135" y="232" fill="#EDFCFD" stroke="#99C0C3" stroke-width="2"/><text id="history" fill="#366378" font-family="Consolas" font-size="14" font-weight="normal"><tspan x="147.5" y="249">history</tspan></text><text id="Array" fill="#924565" font-family="Consolas" font-size="14" font-weight="normal"><tspan x="275" y="135">Array</tspan></text><rect id="Rectangle-3" width="78" height="26" x="255" y="156" fill="#FCDFE1" stroke="#C74A6C" stroke-width="2"/><text id="Function" fill="#924565" font-family="Consolas" font-size="14" font-weight="normal"><tspan x="263.5" y="173">Function</tspan></text><text id="XMLHttpRequest" fill="#366378" font-family="Consolas" font-size="14" font-weight="normal"><tspan x="122" y="287">XMLHttpRequest</tspan></text><text id="BOM" fill="#99C0C3" font-family="Consolas" font-size="14" font-weight="normal"><tspan x="135" y="73">BOM</tspan></text><text id="JavaScript" fill="#C74A6C" font-family="Consolas" font-size="14" font-weight="normal"><tspan x="271" y="73">JavaScript</tspan></text><text id="DOM" fill="#CFCE95" font-family="Consolas" font-size="14" font-weight="normal"><tspan x="17" y="73">DOM</tspan></text><path id="Line" fill="#EE6B47" fill-rule="nonzero" d="M173.5,58.5 L173.5,40.5 L175.5,40.5 L175.5,58.5 L181.5,58.5 L174.5,72.5 L167.5,58.5 L173.5,58.5 Z"/><path id="Line-2" fill="#EE6B47" fill-rule="nonzero" d="M97.4216083,64.684192 L132.749841,40.1080303 L133.89197,41.7498407 L98.5637373,66.3260024 L101.990124,71.2514336 L86.5,73.5 L93.9952214,59.7587608 L97.4216083,64.684192 Z"/><text id="…" fill="#727155" font-family="Consolas" font-size="24" font-weight="normal"><tspan x="50" y="122">…</tspan></text><text id="…-2" fill="#924565" font-family="Consolas" font-size="24" font-weight="normal"><tspan x="287" y="201">…</tspan></text><path id="Line" fill="#EE6B47" fill-rule="nonzero" d="M255.37175,67.4660359 L216.101095,40.7504484 L217.226047,39.0968214 L256.496703,65.8124089 L259.87156,60.851528 L267.509615,74.5138889 L251.996893,72.4269168 L255.37175,67.4660359 Z"/></g></g></svg>