<svg xmlns="http://www.w3.org/2000/svg" xmlns:xlink="http://www.w3.org/1999/xlink" width="620" height="129" version="1.1" viewBox="0 0 620 129"><title>reduce.svg</title><desc>Created with sketchtool.</desc><g id="array" fill="none" fill-rule="evenodd" stroke="none" stroke-width="1"><g id="reduce.svg"><rect id="Rectangle-1" width="78" height="38" x="9" y="75" fill="#FFF9EB" stroke="#E8C48E" stroke-width="2"/><text id="1" fill="#8A704D" font-family="PTMono-Regular, PT Mono" font-size="14" font-weight="normal"><tspan x="44" y="99">1</tspan></text><text id="sum" fill="#8A704D" font-family="PTMono-Regular, PT Mono" font-size="14" font-weight="normal"><tspan x="15" y="17">sum</tspan> <tspan x="15" y="32">0</tspan> <tspan x="15" y="47">current</tspan> <tspan x="15" y="62">1</tspan></text><rect id="Rectangle-2" width="78" height="38" x="88" y="75" fill="#FFF9EB" stroke="#E8C48E" stroke-width="2"/><text id="2" fill="#8A704D" font-family="PTMono-Regular, PT Mono" font-size="14" font-weight="normal"><tspan x="123" y="99">2</tspan></text><text id="sum" fill="#8A704D" font-family="PTMono-Regular, PT Mono" font-size="14" font-weight="normal"><tspan x="94" y="17">sum</tspan> <tspan x="94" y="32">0+1</tspan> <tspan x="94" y="47">current</tspan> <tspan x="94" y="62">2</tspan></text><rect id="Rectangle-3" width="78" height="38" x="167" y="75" fill="#FFF9EB" stroke="#E8C48E" stroke-width="2"/><text id="3" fill="#8A704D" font-family="PTMono-Regular, PT Mono" font-size="14" font-weight="normal"><tspan x="202" y="99">3</tspan></text><text id="sum" fill="#8A704D" font-family="PTMono-Regular, PT Mono" font-size="14" font-weight="normal"><tspan x="173" y="17">sum</tspan> <tspan x="173" y="32">0+1+2</tspan> <tspan x="173" y="47">current</tspan> <tspan x="173" y="62">3</tspan></text><rect id="Rectangle-5" width="78" height="38" x="246" y="75" fill="#FFF9EB" stroke="#E8C48E" stroke-width="2"/><text id="4" fill="#8A704D" font-family="PTMono-Regular, PT Mono" font-size="14" font-weight="normal"><tspan x="281" y="99">4</tspan></text><text id="sum" fill="#8A704D" font-family="PTMono-Regular, PT Mono" font-size="14" font-weight="normal"><tspan x="252" y="17">sum</tspan> <tspan x="252" y="32">0+1+2+3</tspan> <tspan x="252" y="47">current</tspan> <tspan x="252" y="62">4</tspan></text><rect id="Rectangle-4" width="78" height="38" x="325" y="75" fill="#FFF9EB" stroke="#E8C48E" stroke-width="2"/><text id="5" fill="#8A704D" font-family="PTMono-Regular, PT Mono" font-size="14" font-weight="normal"><tspan x="360" y="99">5</tspan></text><text id="sum" fill="#8A704D" font-family="PTMono-Regular, PT Mono" font-size="14" font-weight="normal"><tspan x="331" y="17">sum</tspan> <tspan x="331" y="32">0+1+2+3+4</tspan> <tspan x="331" y="47">current</tspan> <tspan x="331" y="62">5</tspan></text><path id="Line" fill="#EE6B47" fill-rule="nonzero" d="M456.5,93 L419.5,93 L419.5,91 L456.5,91 L456.5,85 L470.5,92 L456.5,99 L456.5,93 Z"/><text id="0+1+2+3+4+5-=-15" fill="#8A704D" font-family="PTMono-Regular, PT Mono" font-size="14" font-weight="normal"><tspan x="480" y="96">0+1+2+3+4+5 = 15</tspan></text></g></g></svg>