<svg xmlns="http://www.w3.org/2000/svg" xmlns:xlink="http://www.w3.org/1999/xlink" width="206" height="258" version="1.1" viewBox="0 0 206 258"><title>proto-animal-rabbit-chain.svg</title><desc>Created with sketchtool.</desc><g id="inheritance" fill="none" fill-rule="evenodd" stroke="none" stroke-width="1"><g id="proto-animal-rabbit-chain.svg"><rect id="Rectangle-1" width="134" height="48" x="14" y="23" fill="#FFF9EB" stroke="#E8C48E" stroke-width="2"/><text id="eats:-true" fill="#8A704D" font-family="PTMono-Regular, PT Mono" font-size="14" font-weight="normal"><tspan x="24" y="42">eats: true</tspan> <tspan x="24" y="57">walk: function</tspan></text><text id="animal" fill="#8A704D" font-family="PTMono-Regular, PT Mono" font-size="14" font-weight="normal"><tspan x="13" y="15">animal</tspan></text><rect id="Rectangle-1" width="134" height="28" x="14" y="134" fill="#FFF9EB" stroke="#E8C48E" stroke-width="2"/><text id="jumps:-true" fill="#8A704D" font-family="PTMono-Regular, PT Mono" font-size="14" font-weight="normal"><tspan x="24" y="151">jumps: true</tspan></text><text id="rabbit" fill="#8A704D" font-family="PTMono-Regular, PT Mono" font-size="14" font-weight="normal"><tspan x="13" y="126">rabbit</tspan></text><path id="Line" fill="#EE6B47" fill-rule="nonzero" d="M79.5,97.5 L79.5,125.5 L77.5,125.5 L77.5,97.5 L71.5,97.5 L78.5,83.5 L85.5,97.5 L79.5,97.5 Z"/><text id="[[Prototype]]" fill="#8A704D" font-family="PTMono-Regular, PT Mono" font-size="14" font-weight="normal"><tspan x="88" y="105">[[Prototype]]</tspan></text><rect id="Rectangle-1-Copy" width="134" height="28" x="14" y="227" fill="#FFF9EB" stroke="#E8C48E" stroke-width="2"/><text id="earLength:-10" fill="#8A704D" font-family="PTMono-Regular, PT Mono" font-size="14" font-weight="normal"><tspan x="24" y="244">earLength: 10</tspan></text><text id="longEar" fill="#8A704D" font-family="PTMono-Regular, PT Mono" font-size="14" font-weight="normal"><tspan x="13" y="219">longEar</tspan></text><path id="Line-Copy" fill="#EE6B47" fill-rule="nonzero" d="M79.5,190.5 L79.5,218.5 L77.5,218.5 L77.5,190.5 L71.5,190.5 L78.5,176.5 L85.5,190.5 L79.5,190.5 Z"/><text id="[[Prototype]]-Copy" fill="#8A704D" font-family="PTMono-Regular, PT Mono" font-size="14" font-weight="normal"><tspan x="88" y="198">[[Prototype]]</tspan></text></g></g></svg>