<svg xmlns="http://www.w3.org/2000/svg" xmlns:xlink="http://www.w3.org/1999/xlink" width="373" height="152" version="1.1" viewBox="0 0 373 152"><title>promise-then-many.svg</title><desc>Created with sketchtool.</desc><g id="promise" fill="none" fill-rule="evenodd" stroke="none" stroke-width="1"><g id="promise-then-many.svg"><rect id="Rectangle-1-Copy-3" width="108" height="28" x="10" y="120" fill="#FFF9EB" stroke="#E8C48E" stroke-width="2"/><text id=".then" fill="#8A704D" font-family="PTMono-Regular, PT Mono" font-size="14" font-weight="normal" line-spacing="20"><tspan x="42.5" y="139">.then</tspan></text><rect id="Rectangle-1-Copy-8" width="108" height="28" x="131" y="4" fill="#FFF9EB" stroke="#E8C48E" stroke-width="2"/><text id="new-Promise" fill="#8A704D" font-family="PTMono-Regular, PT Mono" font-size="14" font-weight="normal" line-spacing="20"><tspan x="138.3" y="22">new Promise</tspan></text><text id="resolve(1)" fill="#8A704D" font-family="PTMono-Regular, PT Mono" font-size="14" font-weight="normal"><tspan x="142" y="54">resolve(1)</tspan></text><path id="Line-Copy-8" fill="#EE6B47" fill-rule="nonzero" d="M184,93 L184,71 L186,71 L186,93 L192,93 L185,107 L178,93 L184,93 Z"/><rect id="Rectangle-1-Copy-4" width="108" height="28" x="131" y="120" fill="#FFF9EB" stroke="#E8C48E" stroke-width="2"/><text id=".then-copy" fill="#8A704D" font-family="PTMono-Regular, PT Mono" font-size="14" font-weight="normal" line-spacing="20"><tspan x="164" y="139">.then</tspan></text><path id="Line-Copy-9" fill="#EE6B47" fill-rule="nonzero" d="M74.3957845,97.6522953 L113.74577,70.1073057 L114.892694,71.7457696 L75.5427092,99.2907591 L78.9834833,104.206151 L63.5,106.5 L70.9550105,92.7369037 L74.3957845,97.6522953 Z"/><rect id="Rectangle-1-Copy-5" width="108" height="28" x="255" y="120" fill="#FFF9EB" stroke="#E8C48E" stroke-width="2"/><text id=".then-copy-2" fill="#8A704D" font-family="PTMono-Regular, PT Mono" font-size="14" font-weight="normal" line-spacing="20"><tspan x="287.5" y="139">.then</tspan></text><path id="Line-Copy-10" fill="#EE6B47" fill-rule="nonzero" d="M293.891997,98.6098627 L256.595473,69.1652385 L257.834762,67.5954729 L295.131286,97.0400972 L298.849151,92.3308006 L305.5,106.5 L290.174131,103.319159 L293.891997,98.6098627 Z"/></g></g></svg>