<svg xmlns="http://www.w3.org/2000/svg" xmlns:xlink="http://www.w3.org/1999/xlink" width="165" height="339" version="1.1" viewBox="0 0 165 339"><title>promise-then-chain.svg</title><desc>Created with sketchtool.</desc><g id="promise" fill="none" fill-rule="evenodd" stroke="none" stroke-width="1"><g id="promise-then-chain.svg"><rect id="Rectangle-1-Copy-3" width="108" height="28" x="40" y="105" fill="#FFF9EB" stroke="#E8C48E" stroke-width="2"/><text id=".then" fill="#8A704D" font-family="PTMono-Regular, PT Mono" font-size="14" font-weight="normal" line-spacing="20"><tspan x="72.5" y="124">.then</tspan></text><rect id="Rectangle-1-Copy-8" width="108" height="28" x="40" y="10" fill="#FFF9EB" stroke="#E8C48E" stroke-width="2"/><text id="new-Promise" fill="#8A704D" font-family="PTMono-Regular, PT Mono" font-size="14" font-weight="normal" line-spacing="20"><tspan x="47.3" y="28">new Promise</tspan></text><text id="resolve(1)" fill="#8A704D" font-family="PTMono-Regular, PT Mono" font-size="14" font-weight="normal"><tspan x="7" y="70">resolve(1)</tspan></text><text id="return-2" fill="#8A704D" font-family="PTMono-Regular, PT Mono" font-size="14" font-weight="normal"><tspan x="14" y="167">return 2</tspan></text><path id="Line-Copy-8" fill="#EE6B47" fill-rule="nonzero" d="M92.5,173.5 L92.5,142.5 L94.5,142.5 L94.5,173.5 L100.5,173.5 L93.5,187.5 L86.5,173.5 L92.5,173.5 Z"/><rect id="Rectangle-1-Copy-4" width="108" height="28" x="40" y="202" fill="#FFF9EB" stroke="#E8C48E" stroke-width="2"/><text id=".then-copy" fill="#8A704D" font-family="PTMono-Regular, PT Mono" font-size="14" font-weight="normal" line-spacing="20"><tspan x="72.5" y="221">.then</tspan></text><text id="return-4" fill="#8A704D" font-family="PTMono-Regular, PT Mono" font-size="14" font-weight="normal"><tspan x="14" y="264">return 4</tspan></text><path id="Line-Copy-10" fill="#EE6B47" fill-rule="nonzero" d="M92.5,271.5 L92.5,240.5 L94.5,240.5 L94.5,271.5 L100.5,271.5 L93.5,285.5 L86.5,271.5 L92.5,271.5 Z"/><rect id="Rectangle-1-Copy-5" width="108" height="28" x="40" y="298" fill="#FFF9EB" stroke="#E8C48E" stroke-width="2"/><text id=".then-copy-2" fill="#8A704D" font-family="PTMono-Regular, PT Mono" font-size="14" font-weight="normal" line-spacing="20"><tspan x="72.5" y="317">.then</tspan></text><path id="Line-Copy-9" fill="#EE6B47" fill-rule="nonzero" d="M92.5,77.5 L92.5,46.5 L94.5,46.5 L94.5,77.5 L100.5,77.5 L93.5,91.5 L86.5,77.5 L92.5,77.5 Z"/></g></g></svg>