<svg xmlns="http://www.w3.org/2000/svg" xmlns:xlink="http://www.w3.org/1999/xlink" width="176" height="183" version="1.1" viewBox="0 0 176 183"><title>object.svg</title><desc>Created with sketchtool.</desc><g id="combined" fill="none" fill-rule="evenodd" stroke="none" stroke-width="1"><g id="object.svg"><rect width="176" height="183" x="0" y="0" fill="#FFF"/><path id="Rectangle-4-Copy" fill="#D1C4B1" stroke="#D1C4B1" stroke-width="4" d="M36.9367499,113 L20.2700832,133 L150.729917,133 L134.06325,113 L36.9367499,113 Z" opacity=".5"/><g id="Group-2" transform="translate(33.000000, 6.000000)"><g id="Group"><rect id="Rectangle-7" width="32" height="124" x="0" y="0" fill="#FFF"/><path id="Combined-Shape" fill="#E8C48F" d="M0,0 L32,0 L32,124 L0,124 L0,0 Z M16.5,115 C20.6421356,115 24,111.642136 24,107.5 C24,103.357864 20.6421356,100 16.5,100 C12.3578644,100 9,103.357864 9,107.5 C9,111.642136 12.3578644,115 16.5,115 Z M4,5 L4,92 L28,92 L28,5 L4,5 Z"/></g><text id="key1" fill="#EE6B47" font-family="PTMono-Bold, PT Mono" font-size="16" font-weight="bold" transform="translate(15.500000, 47.500000) rotate(-90.000000) translate(-15.500000, -47.500000)"><tspan x="-3.7" y="52.5">key1</tspan></text></g><g id="Group-2-Copy" transform="translate(70.000000, 6.000000)"><g id="Group"><rect id="Rectangle-7" width="32" height="124" x="0" y="0" fill="#FFF"/><path id="Combined-Shape" fill="#E8C48F" d="M0,0 L32,0 L32,124 L0,124 L0,0 Z M16.5,115 C20.6421356,115 24,111.642136 24,107.5 C24,103.357864 20.6421356,100 16.5,100 C12.3578644,100 9,103.357864 9,107.5 C9,111.642136 12.3578644,115 16.5,115 Z M4,5 L4,92 L28,92 L28,5 L4,5 Z"/></g><text id="key2" fill="#EE6B47" font-family="PTMono-Bold, PT Mono" font-size="16" font-weight="bold" transform="translate(15.500000, 47.500000) rotate(-90.000000) translate(-15.500000, -47.500000)"><tspan x="-3.7" y="52.5">key2</tspan></text></g><g id="Group-2-Copy-2" transform="translate(107.000000, 6.000000)"><g id="Group"><rect id="Rectangle-7" width="32" height="124" x="0" y="0" fill="#FFF"/><path id="Combined-Shape" fill="#E8C48F" d="M0,0 L32,0 L32,124 L0,124 L0,0 Z M16.5,115 C20.6421356,115 24,111.642136 24,107.5 C24,103.357864 20.6421356,100 16.5,100 C12.3578644,100 9,103.357864 9,107.5 C9,111.642136 12.3578644,115 16.5,115 Z M4,5 L4,92 L28,92 L28,5 L4,5 Z"/></g><text id="key3" fill="#EE6B47" font-family="PTMono-Bold, PT Mono" font-size="16" font-weight="bold" transform="translate(15.500000, 47.500000) rotate(-90.000000) translate(-15.500000, -47.500000)"><tspan x="-3.7" y="52.5">key3</tspan></text></g><rect id="Rectangle-4" width="135" height="50" x="18" y="127" fill="#FFF9EB" stroke="#BCA68E" stroke-width="4"/><rect id="Rectangle-8" width="25" height="10" x="73.5" y="147.5" stroke="#BCA68E" stroke-width="3"/></g></g></svg>