<svg xmlns="http://www.w3.org/2000/svg" xmlns:xlink="http://www.w3.org/1999/xlink" width="248" height="173" version="1.1" viewBox="0 0 248 173"><title>object-user.svg</title><desc>Created with sketchtool.</desc><g id="combined" fill="none" fill-rule="evenodd" stroke="none" stroke-width="1"><g id="object-user.svg"><rect width="248" height="173" x="0" y="0" fill="#FFF"/><path id="Rectangle-4-Copy" fill="#D1C4B1" stroke="#D1C4B1" stroke-width="4" d="M127.93675,101 L111.270083,121 L241.729917,121 L225.06325,101 L127.93675,101 Z" opacity=".5"/><g id="Group-2" transform="translate(142.000000, 8.000000)"><g id="Group"><rect id="Rectangle-7" width="32" height="110" x="0" y="0" fill="#FFF"/><path id="Combined-Shape" fill="#E8C48F" d="M0,0 L32,0 L32,110 L0,110 L0,0 Z M16.5,102.016129 C20.6421356,102.016129 24,99.0373784 24,95.3629032 C24,91.6884281 20.6421356,88.7096774 16.5,88.7096774 C12.3578644,88.7096774 9,91.6884281 9,95.3629032 C9,99.0373784 12.3578644,102.016129 16.5,102.016129 Z M4,4.43548387 L4,81.6129032 L28,81.6129032 L28,4.43548387 L4,4.43548387 Z"/></g><text id="name" fill="#EE6B47" font-family="PTMono-Bold, PT Mono" font-size="14" font-weight="bold" transform="translate(15.500000, 42.858871) rotate(-90.000000) translate(-15.500000, -42.858871)"><tspan x="-1.3" y="47.359">name</tspan></text></g><g id="Group-2-Copy" transform="translate(179.000000, 8.000000)"><g id="Group"><rect id="Rectangle-7" width="32" height="110" x="0" y="0" fill="#FFF"/><path id="Combined-Shape" fill="#E8C48F" d="M0,0 L32,0 L32,110 L0,110 L0,0 Z M16.5,102.016129 C20.6421356,102.016129 24,99.0373784 24,95.3629032 C24,91.6884281 20.6421356,88.7096774 16.5,88.7096774 C12.3578644,88.7096774 9,91.6884281 9,95.3629032 C9,99.0373784 12.3578644,102.016129 16.5,102.016129 Z M4,4.43548387 L4,81.6129032 L28,81.6129032 L28,4.43548387 L4,4.43548387 Z"/></g><text id="age" fill="#EE6B47" font-family="PTMono-Bold, PT Mono" font-size="14" font-weight="bold" transform="translate(14.500000, 41.653226) rotate(-90.000000) translate(-14.500000, -41.653226)"><tspan x="1.9" y="46.153">age</tspan></text></g><rect id="Rectangle-4" width="135" height="50" x="109" y="115" fill="#FFF9EB" stroke="#BCA68E" stroke-width="4"/><rect id="Rectangle-8" width="25" height="10" x="164.5" y="135.5" stroke="#BCA68E" stroke-width="3"/><text id="user" fill="#EE6B47" font-family="OpenSans-Bold, Open Sans" font-size="14" font-weight="bold"><tspan x="11" y="145">user</tspan></text><path id="Line-8" fill="#EE6B47" fill-rule="nonzero" d="M77.5,142 L51,142 L51,139 L77.5,139 L77.5,131 L96.5,140.5 L77.5,150 L77.5,142 Z"/></g></g></svg>