<svg xmlns="http://www.w3.org/2000/svg" xmlns:xlink="http://www.w3.org/1999/xlink" width="248" height="215" version="1.1" viewBox="0 0 248 215"><title>object-user-props.svg</title><desc>Created with sketchtool.</desc><g id="combined" fill="none" fill-rule="evenodd" stroke="none" stroke-width="1"><g id="object-user-props.svg"><rect width="248" height="215" x="0" y="0" fill="#FFF"/><path id="Rectangle-4-Copy" fill="#D1C4B1" stroke="#D1C4B1" stroke-width="4" d="M127.93675,143 L111.270083,163 L241.729917,163 L225.06325,143 L127.93675,143 Z" opacity=".5"/><g id="Group-2" transform="translate(124.000000, 3.000000)"><g id="Group"><rect id="Rectangle-7" width="32" height="157" x="0" y="0" fill="#FFF"/><path id="Combined-Shape" fill="#E8C48F" d="M0,0 L32,0 L32,157 L0,157 L0,0 Z M16.5,145.604839 C20.6421356,145.604839 24,141.353349 24,136.108871 C24,130.864393 20.6421356,126.612903 16.5,126.612903 C12.3578644,126.612903 9,130.864393 9,136.108871 C9,141.353349 12.3578644,145.604839 16.5,145.604839 Z M4,6.33064516 L4,116.483871 L28,116.483871 L28,6.33064516 L4,6.33064516 Z"/></g><text id="name" fill="#EE6B47" font-family="PTMono-Bold, PT Mono" font-size="16" font-weight="bold" transform="translate(15.500000, 60.141129) rotate(-90.000000) translate(-15.500000, -60.141129)"><tspan x="-3.7" y="62.746">name</tspan></text></g><g id="Group-2-Copy" transform="translate(161.000000, 3.000000)"><g id="Group"><rect id="Rectangle-7" width="32" height="157" x="0" y="0" fill="#FFF"/><path id="Combined-Shape" fill="#E8C48F" d="M0,0 L32,0 L32,157 L0,157 L0,0 Z M16.5,145.604839 C20.6421356,145.604839 24,141.353349 24,136.108871 C24,130.864393 20.6421356,126.612903 16.5,126.612903 C12.3578644,126.612903 9,130.864393 9,136.108871 C9,141.353349 12.3578644,145.604839 16.5,145.604839 Z M4,6.33064516 L4,116.483871 L28,116.483871 L28,6.33064516 L4,6.33064516 Z"/></g><text id="age" fill="#EE6B47" font-family="PTMono-Bold, PT Mono" font-size="16" font-weight="bold" transform="translate(15.500000, 60.141129) rotate(-90.000000) translate(-15.500000, -60.141129)"><tspan x="1.1" y="62.746">age</tspan></text></g><g id="Group-2-Copy-2" transform="translate(198.000000, 3.000000)"><g id="Group"><rect id="Rectangle-7" width="32" height="157" x="0" y="0" fill="#FFF"/><path id="Combined-Shape" fill="#E8C48F" d="M0,0 L32,0 L32,157 L0,157 L0,0 Z M16.5,145.604839 C20.6421356,145.604839 24,141.353349 24,136.108871 C24,130.864393 20.6421356,126.612903 16.5,126.612903 C12.3578644,126.612903 9,130.864393 9,136.108871 C9,141.353349 12.3578644,145.604839 16.5,145.604839 Z M4,6.33064516 L4,116.483871 L28,116.483871 L28,6.33064516 L4,6.33064516 Z"/></g><text id="likes-birds" fill="#EE6B47" font-family="PTMono-Bold, PT Mono" font-size="14" font-weight="bold" transform="translate(17.500000, 60.774194) rotate(-90.000000) translate(-17.500000, -60.774194)"><tspan x="-28.7" y="63.278">likes birds</tspan></text></g><rect id="Rectangle-4" width="135" height="50" x="109" y="157" fill="#FFF9EB" stroke="#BCA68E" stroke-width="4"/><rect id="Rectangle-8" width="25" height="10" x="164.5" y="177.5" stroke="#BCA68E" stroke-width="3"/><text id="user" fill="#EE6B47" font-family="OpenSans-Bold, Open Sans" font-size="14" font-weight="bold"><tspan x="5" y="187">user</tspan></text><path id="Line-8" fill="#EE6B47" fill-rule="nonzero" d="M71.5,184 L45,184 L45,181 L71.5,181 L71.5,173 L90.5,182.5 L71.5,192 L71.5,184 Z"/></g></g></svg>