<svg xmlns="http://www.w3.org/2000/svg" xmlns:xlink="http://www.w3.org/1999/xlink" width="359" height="143" version="1.1" viewBox="0 0 359 143"><title>variable-copy-value.svg</title><desc>Created with sketchtool.</desc><g id="combined" fill="none" fill-rule="evenodd" stroke="none" stroke-width="1"><g id="variable-copy-value.svg"><g id="noun_1211_cc-+-Message" transform="translate(11.000000, 6.000000)"><g id="noun_1211_cc"><path id="Shape" fill="#E8C48F" d="M17,37.1960457 L129.557785,37.1960457 L129.557785,80.1456641 C129.557785,80.5185728 129.479295,81.0083855 129.279367,81.4404861 C129.07944,81.8725868 112.704625,117 112.704625,117 L112.704625,62.6396695 L129.559266,37.1960457 L148,9 L35.4407339,9 L17,37.1960457 L17,37.1960457 Z"/><polyline id="Shape" fill="#E8C48F" points="17 66 17 38 2 66"/><g id="Rectangle-5-+-&quot;World!&quot;" transform="translate(15.000000, 0.000000)"><path id="Rectangle-5" fill="#FFF9EB" stroke="#8A704D" stroke-width="2" d="M18.8613371,1.80856046 L1.99871056,17.5332141 L55.1386629,74.5188362 L72.0012894,58.7941826 L18.8613371,1.80856046 Z"/><text id="&quot;Hello!&quot;" fill="#8A704D" font-family="OpenSans-SemiBold, Open Sans" font-size="14" font-weight="500" line-spacing="17" transform="translate(38.099228, 39.181970) rotate(47.000000) translate(-38.099228, -39.181970)"><tspan x="4.419" y="43.998">&quot;Hello!&quot;</tspan></text></g><path id="Shape" fill="#E8C48F" d="M0,68 L0,122.729971 C0,126.150501 1.4836395,128 4.38712201,128 L104.473443,128 C107.59502,128 110,125.4521 110,124.524372 L110,68 L0,68 L0,68 Z"/></g><text id="message" fill="#FFF" font-family="OpenSans-SemiBold, Open Sans" font-size="18" font-weight="500"><tspan x="17" y="105">message</tspan></text></g><g id="Group" transform="translate(210.000000, 6.000000)"><path id="Shape" fill="#E8C48F" d="M17,37.1960457 L130.417005,37.1960457 L130.417005,80.1456641 C130.417005,80.5185728 130.337916,81.0083855 130.136462,81.4404861 C129.935008,81.8725868 113.435195,117 113.435195,117 L113.435195,62.6396695 L130.418497,37.1960457 L149,9 L35.5815029,9 L17,37.1960457 L17,37.1960457 Z"/><polyline id="Shape" fill="#E8C48F" points="18 66 18 38 2 66"/><g id="Rectangle-5-+-&quot;World!&quot;" transform="translate(15.000000, 0.000000)"><path id="Rectangle-5" fill="#FFF9EB" stroke="#8A704D" stroke-width="2" d="M19.1172186,1.79919253 L2.01617912,17.5335434 L55.8827814,74.5282042 L72.9838209,58.7938532 L19.1172186,1.79919253 Z"/><text id="&quot;Hello!&quot;" fill="#8A704D" font-family="OpenSans-SemiBold, Open Sans" font-size="14" font-weight="500" line-spacing="17" transform="translate(38.155854, 37.706510) rotate(47.000000) translate(-38.155854, -37.706510)"><tspan x="4.475" y="42.523">&quot;Hello!&quot;</tspan></text></g><path id="Shape" fill="#E8C48F" d="M0,68 L0,122.729971 C0,126.150501 1.49712713,128 4.42700494,128 L105.423201,128 C108.573157,128 111,125.4521 111,124.524372 L111,68 L0,68 L0,68 Z"/><text id="phrase" fill="#FFF" font-family="OpenSans-SemiBold, Open Sans" font-size="18" font-weight="500"><tspan x="25" y="105">phrase</tspan></text></g></g></g></svg>